<?xml version="1.0" standalone="no"?>
<!DOCTYPE svg PUBLIC "-//W3C//DTD SVG 20010904//EN"
 "http://www.w3.org/TR/2001/REC-SVG-20010904/DTD/svg10.dtd">
<svg version="1.0" xmlns="http://www.w3.org/2000/svg"
 width="233.031424pt" height="150.000000pt" viewBox="0 0 233.031424 150.000000"
 preserveAspectRatio="xMidYMid meet">
<metadata>
Created by potrace 1.16, written by Peter Selinger 2001-2019
</metadata>
<g transform="translate(-6.422827,161.197274) scale(0.008752,-0.008752)"
fill="#444444" stroke="none">
<path d="M17690 18403 c-74 -6 -152 -16 -173 -23 -20 -6 -42 -8 -47 -5 -6 3
-10 1 -10 -5 0 -8 -9 -10 -27 -5 -16 5 -80 7 -143 6 -63 -2 -191 -5 -285 -7
-209 -4 -209 -4 -267 -2 -26 1 -59 -4 -73 -12 -19 -10 -27 -11 -39 -1 -8 7
-20 10 -26 6 -6 -4 -118 -8 -248 -10 -131 -2 -250 -7 -264 -10 -14 -4 -60 -1
-103 5 -48 7 -81 8 -88 2 -24 -19 -188 -43 -205 -30 -8 7 -22 6 -44 -5 -18 -9
-37 -13 -43 -9 -15 10 -108 11 -127 1 -10 -6 -19 -5 -23 1 -4 6 -15 8 -25 5
-11 -3 -101 -7 -200 -9 -100 -1 -184 -6 -188 -12 -4 -5 -37 -10 -74 -11 -37
-1 -77 -7 -87 -13 -14 -7 -22 -7 -26 1 -4 5 -17 9 -28 8 -12 -1 -39 1 -59 5
-23 5 -51 3 -74 -4 -22 -8 -74 -12 -123 -10 -195 7 -237 6 -246 -1 -6 -4 -60
-11 -120 -14 -205 -11 -234 -13 -245 -20 -6 -4 -33 -2 -59 5 -37 9 -61 9 -102
0 -30 -7 -68 -13 -85 -14 -17 -1 -38 -6 -45 -13 -9 -7 -30 -9 -54 -6 -22 4
-71 6 -110 5 -101 -2 -290 -10 -290 -12 0 -10 -825 -17 -831 -8 -7 12 -62 10
-85 -3 -13 -7 -24 -7 -32 -1 -7 6 -102 8 -247 4 -262 -6 -501 -7 -675 -2 -22
0 -159 3 -305 6 -199 5 -272 9 -292 20 -18 9 -53 13 -105 12 -48 -2 -90 2
-110 11 -78 32 -149 -43 -137 -145 4 -27 1 -89 -5 -139 -13 -98 -14 -104 -30
-185 -6 -30 -13 -102 -15 -160 -3 -58 -7 -118 -10 -135 -6 -41 -15 -183 -21
-350 -3 -77 -7 -158 -10 -180 -3 -22 -8 -119 -11 -215 -3 -96 -7 -206 -9 -245
-1 -38 1 -75 6 -81 5 -6 4 -36 -1 -68 -6 -36 -6 -94 0 -155 5 -53 10 -124 10
-158 0 -67 28 -157 55 -177 14 -10 14 -15 -5 -53 -34 -71 -28 -97 32 -138 29
-19 65 -35 81 -35 40 0 86 27 97 55 6 16 17 25 30 25 12 0 19 4 16 9 -3 5 7
11 22 14 15 3 30 1 33 -5 4 -7 9 -6 13 1 9 15 56 14 88 -1 18 -9 30 -27 42
-65 9 -30 16 -64 16 -77 0 -41 31 -68 80 -71 25 -1 49 0 54 3 5 3 23 6 40 8
17 2 69 8 116 14 83 12 152 8 465 -26 52 -5 246 -15 340 -16 69 -1 155 17 155
33 0 5 9 4 19 -3 16 -9 30 -9 69 0 37 10 74 10 163 2 63 -6 119 -13 125 -15 6
-2 40 0 75 4 35 4 79 5 99 0 19 -4 66 -9 103 -12 38 -4 74 -11 81 -16 15 -12
30 -13 226 -13 224 -1 339 1 540 7 102 3 203 5 225 4 22 -2 58 -2 80 -1 22 1
72 3 110 5 39 1 76 7 84 11 18 12 104 19 98 9 -3 -4 77 -8 177 -8 140 0 187 3
199 14 15 11 17 11 17 -1 0 -19 81 -18 104 1 13 11 19 11 31 1 10 -8 19 -9 28
-3 6 6 59 11 117 12 58 2 109 5 114 8 5 4 21 7 35 9 14 1 26 3 26 4 0 1 39 2
88 3 48 0 82 4 76 8 -8 5 -7 9 1 14 8 5 18 2 24 -8 10 -12 26 -14 81 -10 39 3
74 9 79 14 15 13 56 11 56 -3 0 -10 19 -12 77 -7 43 3 87 9 97 14 14 6 23 3
32 -10 10 -13 20 -16 41 -11 15 4 55 11 87 17 33 5 65 14 72 20 16 13 37 2 28
-13 -4 -7 -2 -8 4 -4 7 4 35 7 63 8 34 0 52 5 56 14 3 8 9 14 15 14 5 0 7 -4
4 -9 -10 -16 21 -33 41 -23 29 15 94 24 161 23 37 -1 62 2 62 9 0 5 8 10 18
10 10 0 27 7 39 15 12 8 23 11 25 6 2 -5 42 -5 98 0 52 5 113 10 135 11 25 1
45 9 53 20 15 20 42 24 59 7 10 -10 35 -9 133 2 8 1 21 7 29 13 8 6 59 12 115
13 56 1 112 4 126 7 14 3 49 10 79 15 30 6 57 15 61 21 4 6 48 10 108 9 56 0
105 2 110 5 17 10 78 18 147 18 50 0 75 5 89 17 13 11 20 13 23 4 3 -8 27 -10
86 -6 45 3 128 5 185 5 86 -1 102 1 102 15 0 10 6 14 19 10 12 -3 27 3 36 13
9 10 23 16 30 13 20 -7 65 42 65 70 0 13 -7 47 -16 76 -8 28 -12 61 -9 71 3
11 -3 49 -15 86 -11 37 -18 75 -15 84 3 9 -1 32 -9 51 -22 53 -8 246 21 283
17 21 20 33 13 59 -20 74 -25 219 -14 371 14 181 12 433 -5 464 -7 13 -11 81
-11 181 0 101 -4 162 -10 166 -8 5 -7 11 1 21 9 11 8 26 -4 67 -8 28 -18 69
-22 90 -5 28 -20 53 -63 95 l-56 57 -1 78 c-1 76 0 79 29 102 31 24 31 25 14
52 -9 15 -25 30 -35 32 -10 1 -25 10 -34 18 -19 16 -77 15 -299 -4z m136 -245
c11 -64 11 -82 1 -102 -8 -16 -6 -18 8 -12 16 6 17 2 12 -37 -4 -25 -3 -47 0
-51 4 -4 8 -35 10 -69 2 -34 8 -79 14 -99 5 -21 6 -61 2 -90 -4 -29 -6 -57 -4
-63 2 -5 4 -74 6 -153 1 -79 4 -145 7 -147 2 -3 1 -30 -3 -62 -6 -48 -4 -61
10 -73 15 -13 16 -23 4 -90 -6 -41 -15 -90 -19 -107 -5 -27 -3 -33 11 -33 15
0 16 -5 10 -37 -5 -21 -10 -92 -13 -158 -2 -66 -5 -158 -7 -205 -2 -50 1 -90
7 -97 7 -9 7 -17 -1 -27 -8 -10 -10 -53 -7 -140 6 -145 3 -151 -72 -161 -26
-3 -74 -13 -107 -21 -33 -8 -89 -18 -125 -20 -36 -3 -81 -9 -100 -15 -19 -5
-54 -9 -77 -9 -23 0 -45 -5 -48 -10 -5 -8 -11 -7 -21 1 -8 7 -29 9 -51 5 -21
-3 -68 -10 -104 -15 -37 -4 -72 -12 -78 -16 -7 -4 -18 -1 -26 5 -8 6 -18 9
-24 6 -19 -12 -137 -14 -168 -3 -26 8 -36 7 -58 -7 -15 -10 -60 -21 -103 -26
-67 -7 -146 -21 -347 -60 -27 -5 -72 -11 -100 -14 -27 -3 -97 -14 -155 -25
-58 -10 -143 -22 -190 -25 -62 -5 -92 -12 -112 -26 -31 -23 -45 -25 -50 -8 -3
9 -20 8 -69 -1 -35 -6 -95 -16 -132 -21 -38 -5 -76 -15 -84 -22 -8 -6 -36 -13
-62 -14 -92 -4 -247 -15 -288 -20 -23 -3 -44 0 -47 5 -4 6 -41 8 -94 5 -48 -3
-103 -5 -122 -4 -20 0 -56 -7 -80 -15 -32 -12 -78 -16 -160 -15 -152 2 -299
-10 -331 -26 -15 -7 -29 -10 -33 -7 -3 3 -52 12 -108 20 -131 18 -378 18 -533
0 -84 -10 -126 -11 -140 -4 -11 6 -64 11 -118 12 -54 2 -100 5 -103 8 -3 2
-73 3 -157 1 -84 -2 -183 0 -222 6 -135 19 -346 25 -356 9 -4 -7 -29 -6 -75 2
-82 13 -123 17 -310 24 -78 3 -164 9 -191 14 -31 5 -55 4 -66 -3 -12 -8 -22
-7 -37 2 -30 18 -203 34 -305 27 -64 -5 -117 -2 -183 9 -51 9 -97 14 -102 11
-5 -3 -53 -1 -107 6 -131 15 -150 14 -181 -5 -8 -5 -18 -4 -25 3 -18 18 -65
13 -108 -11 -31 -18 -41 -20 -48 -10 -6 10 -36 12 -119 11 -133 -3 -143 2
-135 69 4 38 0 58 -21 102 -15 31 -24 62 -20 73 3 11 -1 26 -12 38 -9 10 -14
22 -10 26 4 4 12 1 17 -7 9 -12 9 -10 3 5 -4 11 -8 82 -8 158 -1 131 0 139 20
152 16 10 31 12 51 6 28 -8 31 -6 42 24 11 31 10 36 -14 59 -14 14 -25 31 -25
37 0 7 -6 20 -13 28 -22 26 -55 124 -52 153 2 14 6 35 9 46 4 11 2 23 -4 27
-15 9 -12 25 5 25 15 0 14 17 -4 75 -4 11 -6 73 -5 138 1 64 -2 120 -7 123
-15 9 -10 44 6 50 17 7 21 54 5 54 -14 0 -13 37 1 46 6 4 9 19 5 36 -3 16 -2
37 3 47 13 23 19 171 9 178 -5 2 -4 11 2 18 6 7 8 26 5 43 -4 24 -1 31 15 35
11 3 20 9 19 14 -1 4 1 20 5 35 5 16 3 41 -3 59 -8 24 -8 36 2 47 9 11 9 16 0
19 -8 3 -7 16 4 50 12 34 13 47 4 52 -17 11 -2 41 20 41 10 0 19 -4 19 -9 0
-5 9 -7 20 -4 15 4 19 11 15 24 -5 16 -1 19 25 19 17 0 29 -4 26 -9 -7 -11
107 -10 115 2 4 5 12 6 19 2 21 -13 102 -16 94 -3 -5 7 3 9 27 4 109 -22 185
-32 195 -24 7 5 16 8 20 7 5 -1 20 1 34 5 14 4 51 3 83 -2 35 -6 60 -5 63 0 3
5 24 6 46 3 27 -5 38 -4 34 3 -10 17 58 8 87 -11 27 -17 27 -17 27 5 1 22 1
22 15 4 9 -12 21 -17 36 -13 12 3 31 2 41 -4 12 -7 18 -6 18 1 0 7 19 9 54 6
30 -2 56 -1 58 4 4 11 59 15 81 5 11 -4 29 -2 44 6 22 12 26 11 44 -11 12 -16
22 -21 26 -14 5 5 25 9 45 8 28 -1 39 3 43 15 4 13 13 16 35 13 17 -2 30 -8
30 -13 0 -5 7 -9 15 -9 8 0 15 5 15 10 0 6 14 10 31 10 16 0 28 -4 25 -9 -3
-5 18 -9 47 -8 95 2 138 -3 132 -13 -3 -5 -1 -10 4 -10 6 0 11 3 11 8 0 4 27
7 60 7 33 0 60 -3 60 -7 0 -11 38 -10 45 2 6 9 36 2 45 -11 3 -4 21 -9 40 -11
31 -3 35 -1 33 20 -2 19 0 21 15 14 9 -5 34 -10 55 -10 21 -1 42 -4 47 -7 6
-4 10 -1 10 5 0 6 5 8 10 5 6 -3 10 0 10 7 0 8 3 9 8 3 8 -12 42 -13 60 -2 6
5 12 4 12 -1 0 -17 62 -20 92 -4 37 18 104 27 111 15 3 -5 47 -8 97 -7 54 2
88 -1 85 -7 -11 -17 22 -9 48 11 32 26 60 27 53 2 -5 -13 0 -18 16 -19 16 -2
19 0 9 6 -10 7 -10 10 -1 16 7 4 15 2 19 -4 4 -6 14 -9 22 -6 28 10 78 12 81
3 2 -6 21 -5 48 3 25 7 56 13 70 14 14 1 27 4 30 5 13 7 70 4 70 -4 0 -5 6 -4
13 3 16 12 77 10 77 -3 0 -5 9 -1 21 10 17 16 22 16 29 4 8 -13 10 -12 10 3 0
20 11 22 28 5 10 -10 14 -10 21 0 6 10 28 12 92 7 46 -3 85 -8 87 -10 3 -2 19
2 38 10 24 10 34 11 38 2 2 -7 5 -5 5 5 1 17 35 19 61 3 9 -5 11 -4 6 3 -4 7
4 14 21 18 17 5 28 3 31 -4 2 -7 8 -10 13 -6 5 3 9 0 9 -5 0 -6 5 -11 11 -11
5 0 8 4 4 9 -3 5 -1 12 5 16 5 3 10 1 10 -4 0 -14 37 -14 45 -1 10 16 28 12
21 -5 -3 -9 0 -15 8 -15 8 0 16 5 18 11 3 9 10 9 27 -1 21 -11 23 -10 18 3 -5
13 1 15 31 10 20 -3 39 -7 41 -9 2 -2 10 1 17 7 9 7 16 4 26 -10 8 -12 18 -18
21 -14 4 3 17 8 30 9 12 1 55 5 95 9 39 5 72 12 72 16 0 5 6 6 14 3 20 -8 146
-10 134 -3 -6 4 -6 9 -2 12 5 3 27 -3 48 -14 37 -18 40 -18 52 -1 13 16 15 16
28 -1 13 -16 16 -16 77 4 48 15 98 22 204 25 181 5 199 7 207 19 5 6 8 5 8 -2
0 -7 7 -10 15 -7 8 4 15 1 15 -6 0 -10 3 -10 14 -1 10 9 21 9 33 3 24 -13 94
-7 104 10 9 15 125 13 144 -2 7 -5 15 -7 18 -4 3 3 35 6 71 5 37 0 66 4 66 9
0 12 79 10 86 -2 7 -11 145 2 162 15 7 5 35 7 63 4 29 -4 60 -2 70 3 12 7 20
7 24 0 3 -5 11 -10 16 -10 6 0 7 5 4 10 -3 6 -2 10 4 10 5 0 12 -4 16 -10 3
-5 12 -7 20 -3 8 3 15 0 15 -7 0 -9 4 -10 13 -2 7 6 51 12 98 12 194 1 299 5
299 13 0 4 10 7 23 7 18 0 19 -2 7 -10 -11 -7 3 -10 46 -10 46 0 63 4 68 15 3
8 13 15 23 15 15 0 16 -2 3 -10 -17 -11 -12 -13 47 -14 22 -1 39 3 36 7 -2 4
8 5 24 1 29 -6 50 -7 68 -4 21 5 36 0 30 -10 -3 -5 7 -3 22 5 15 8 30 10 33 5
3 -5 34 -3 73 4 37 7 70 10 72 6 3 -4 33 -6 67 -4 35 3 85 6 111 8 26 2 50 6
54 10 9 9 32 -41 39 -86z"/>
<path d="M12025 17482 c-39 -3 -56 -10 -79 -33 -24 -24 -27 -34 -22 -63 4 -18
15 -41 25 -50 22 -20 31 -91 30 -236 0 -181 -8 -285 -23 -325 -13 -36 -13 -42
2 -65 13 -20 17 -55 19 -180 1 -85 -3 -169 -8 -186 -15 -48 9 -106 49 -116 18
-5 32 -12 32 -16 0 -5 16 -8 35 -8 19 0 35 3 35 7 0 4 8 10 19 14 36 11 45 97
22 208 -15 75 -16 89 -2 157 9 41 20 78 26 83 6 4 5 10 -4 16 -15 10 2 26 18
17 14 -9 68 23 74 44 3 13 11 18 20 14 8 -3 21 3 28 14 8 10 26 22 41 25 15 4
35 21 45 37 9 17 21 30 25 30 4 0 8 6 8 14 0 9 7 12 21 9 15 -4 22 0 26 16 3
11 10 21 15 21 5 0 6 5 3 11 -4 6 2 17 13 25 20 14 25 33 37 145 5 52 -9 94
-49 148 -14 19 -26 38 -26 42 0 12 -106 110 -142 131 -84 52 -150 62 -313 50z
m211 -164 c8 -7 21 -19 29 -25 7 -7 17 -13 22 -13 18 0 83 -63 83 -80 0 -10 5
-22 10 -25 6 -3 10 -17 10 -31 0 -14 7 -27 15 -30 8 -4 15 -10 15 -15 0 -16
-61 -97 -100 -133 -22 -20 -40 -40 -40 -45 0 -5 -13 -11 -29 -14 -16 -3 -36
-13 -45 -22 -9 -9 -20 -14 -24 -11 -12 7 -4 383 9 424 11 35 21 39 45 20z"/>
<path d="M16745 17441 c-6 -6 -23 -12 -39 -14 -26 -3 -32 -11 -52 -65 -13 -33
-25 -86 -28 -118 -2 -31 -9 -60 -16 -64 -7 -4 -9 -13 -5 -20 4 -7 -1 -13 -15
-17 -13 -4 -23 -16 -27 -34 -3 -16 -10 -29 -14 -29 -14 0 -49 -62 -49 -86 0
-11 -11 -31 -25 -44 -20 -19 -30 -22 -43 -14 -30 19 -64 104 -64 161 0 36 -7
61 -18 76 -17 20 -17 22 3 49 l21 28 -22 30 c-12 16 -22 34 -22 39 0 6 -18 15
-39 22 -32 9 -48 9 -93 -5 -63 -20 -85 -53 -72 -108 14 -63 17 -161 8 -253 -9
-88 -7 -167 4 -174 13 -9 6 -72 -9 -81 -9 -6 -10 -25 -6 -69 4 -37 3 -62 -4
-66 -5 -4 -7 -15 -4 -26 4 -11 8 -53 10 -94 3 -78 26 -144 58 -164 13 -9 24
-8 47 4 17 9 29 19 26 23 -8 13 10 33 30 36 23 3 31 50 12 73 -11 14 -19 99
-18 198 0 17 -5 40 -11 52 -9 17 -9 26 0 36 6 8 8 27 5 46 -6 28 -4 31 19 31
21 0 30 -9 51 -54 24 -51 66 -96 88 -96 6 0 8 7 4 15 -4 10 1 15 14 15 11 0
20 -4 20 -10 0 -18 35 -10 50 13 9 12 22 41 30 65 7 24 18 46 24 50 18 11 70
129 67 150 -2 11 11 16 32 13 4 0 7 4 7 11 0 7 7 5 18 -6 12 -13 14 -20 5 -23
-10 -4 -10 -10 -1 -26 12 -23 12 -25 -3 -43 -6 -8 -6 -28 0 -55 5 -24 7 -47 5
-51 -3 -5 -7 -118 -10 -251 l-4 -243 39 -26 c23 -15 37 -20 34 -12 -3 9 2 14
16 14 14 0 21 6 21 20 0 10 9 24 20 30 15 8 24 6 39 -9 20 -20 20 -20 35 11
19 37 13 67 -26 124 -28 42 -36 78 -19 88 8 5 -2 97 -14 116 -3 5 3 26 13 47
15 30 19 61 20 143 1 58 4 135 8 173 4 46 2 72 -6 82 -14 17 -15 66 -2 155 8
55 6 71 -9 101 -10 20 -15 39 -12 43 8 8 -50 62 -75 70 -10 3 -22 2 -27 -3z"/>
<path d="M13609 17356 c-37 -25 -139 -134 -139 -150 0 -5 -18 -48 -41 -95 -35
-75 -41 -95 -41 -161 -1 -41 -6 -81 -11 -87 -5 -8 -6 -40 -3 -75 5 -49 3 -71
-9 -96 -20 -38 -15 -103 9 -151 9 -16 16 -37 16 -45 0 -7 28 -38 63 -67 34
-30 64 -56 67 -59 21 -24 78 -53 108 -56 20 -2 49 -6 64 -9 19 -5 33 -1 44 9
8 9 26 16 39 16 12 0 25 7 29 15 3 8 14 15 25 15 26 0 36 17 14 23 -10 3 -1 5
20 6 30 1 37 5 37 21 0 11 9 39 19 63 21 45 31 93 36 168 1 26 5 52 9 58 19
31 25 308 7 346 -5 11 -12 32 -15 47 -3 15 -13 33 -21 42 -8 8 -15 22 -15 30
0 9 -4 24 -9 34 -5 9 -19 37 -30 62 -45 97 -193 149 -272 96z m153 -192 c34
-56 48 -94 48 -133 0 -22 5 -43 10 -46 14 -9 4 -215 -16 -300 -8 -38 -18 -88
-21 -109 -7 -50 -56 -101 -107 -110 -53 -10 -71 -1 -91 45 -10 22 -27 45 -37
50 -10 5 -18 20 -18 32 0 12 -6 34 -14 49 -13 25 -13 28 4 33 14 5 18 17 18
63 0 180 16 234 71 255 46 17 105 120 98 169 -6 47 27 48 55 2z"/>
<path d="M14256 17370 c-62 -4 -91 -10 -100 -21 -6 -8 -19 -18 -28 -22 -10 -3
-20 -19 -24 -34 -4 -15 -12 -35 -19 -43 -9 -11 -13 -48 -11 -125 1 -73 -3
-123 -12 -150 -9 -28 -12 -62 -7 -112 3 -40 2 -74 -3 -77 -5 -3 -9 -46 -7 -96
1 -50 -2 -93 -6 -96 -5 -3 -4 -13 1 -22 5 -9 12 -43 15 -74 5 -45 12 -62 31
-77 13 -10 24 -26 24 -36 0 -28 20 -55 40 -55 11 0 20 -4 20 -10 0 -21 38 -30
67 -15 15 8 35 15 43 15 21 0 110 63 110 78 0 7 13 12 31 12 31 0 169 82 169
100 0 5 6 15 13 22 66 72 75 109 40 175 -30 56 -79 102 -110 103 -12 0 -38 15
-57 34 -31 29 -36 40 -36 80 0 25 4 46 9 46 9 0 32 118 35 175 0 17 4 35 8 40
9 15 -65 128 -99 150 -15 10 -32 23 -38 29 -7 8 -40 10 -99 6z m52 -182 c17
-17 15 -96 -3 -114 -8 -9 -15 -28 -15 -44 0 -26 -24 -48 -34 -32 -9 15 18 202
29 202 6 0 16 -5 23 -12z m-28 -350 c19 -46 82 -96 112 -90 4 1 10 -7 13 -18
4 -11 12 -21 18 -22 7 0 17 -2 22 -2 25 -4 45 -24 51 -51 5 -28 2 -32 -63 -70
-61 -35 -105 -56 -154 -72 -9 -2 -20 0 -23 6 -4 6 -9 74 -10 150 -2 76 -7 144
-11 150 -7 13 11 41 26 41 5 0 14 -10 19 -22z"/>
<path d="M12775 17360 c-43 -9 -73 -27 -85 -50 -9 -17 -14 -163 -11 -310 0
-14 -1 -72 -3 -130 -2 -58 0 -114 4 -125 4 -12 1 -29 -8 -43 -13 -20 -14 -31
-5 -65 7 -25 8 -46 3 -53 -19 -22 -22 -118 -6 -163 8 -25 13 -48 10 -53 -3 -4
2 -8 11 -8 9 0 13 -5 9 -11 -3 -6 4 -21 17 -33 20 -19 30 -21 59 -15 75 17 92
69 70 218 -13 94 -5 100 62 49 31 -24 75 -56 97 -72 23 -17 41 -33 41 -36 0
-4 25 -33 55 -66 31 -32 65 -76 76 -96 10 -21 32 -46 47 -55 15 -10 33 -24 41
-31 7 -7 22 -10 35 -6 29 9 29 10 28 44 0 19 5 33 14 37 8 3 14 14 14 24 0 11
5 27 11 37 9 14 6 26 -11 55 -12 20 -26 37 -30 37 -4 0 -25 22 -46 50 -20 27
-56 62 -78 79 -23 16 -60 48 -83 70 -23 23 -47 41 -53 41 -14 0 -80 71 -80 87
0 8 -11 18 -25 23 -14 5 -25 15 -25 22 0 24 33 98 44 98 20 0 126 109 126 130
0 11 6 20 14 20 8 0 18 10 22 23 3 12 13 30 21 39 11 13 14 32 11 68 -4 41
-12 58 -39 86 -18 19 -38 34 -43 34 -6 0 -33 12 -61 26 -40 21 -66 26 -135 28
-47 2 -98 0 -115 -4z m144 -163 c38 -8 61 -23 61 -41 0 -6 -25 -38 -55 -70
-43 -47 -56 -56 -61 -42 -3 9 -4 26 -1 38 4 12 -1 37 -10 55 -12 26 -13 37 -4
46 6 6 11 20 11 32 1 18 2 18 13 4 7 -9 27 -19 46 -22z"/>
<path d="M15740 17348 c-55 -10 -139 -18 -243 -22 -43 -2 -83 -8 -89 -14 -8
-8 -8 -36 0 -93 6 -52 7 -91 1 -107 -5 -13 -9 -59 -8 -101 1 -42 0 -80 -2 -86
-1 -5 1 -29 5 -52 5 -30 3 -49 -8 -71 -24 -47 -38 -181 -22 -214 12 -23 12
-30 -1 -48 -24 -34 -14 -166 13 -188 12 -9 24 -26 28 -37 6 -16 9 -17 16 -5 8
12 14 10 37 -11 21 -20 40 -26 78 -27 27 -1 51 -6 53 -12 2 -6 8 -7 14 -4 5 4
38 6 71 6 34 -1 73 3 87 9 14 5 47 10 75 11 48 3 49 4 58 40 7 29 5 48 -10 83
-20 49 -24 52 -43 30 -15 -18 -42 -19 -58 -3 -8 8 -15 8 -26 -2 -9 -7 -26 -10
-40 -6 -14 3 -36 1 -50 -5 -20 -9 -29 -9 -41 1 -9 7 -32 13 -53 14 l-37 1 -6
65 c-4 36 -4 71 -2 78 3 7 23 12 47 12 23 0 47 5 53 11 6 6 37 12 69 15 33 3
64 10 69 17 6 7 15 12 20 13 35 4 56 21 74 60 12 24 21 48 21 53 0 16 -19 23
-36 13 -10 -6 -31 -4 -57 5 -28 10 -48 11 -66 5 -54 -20 -107 -30 -146 -29
-40 2 -40 2 -48 52 -12 70 -10 85 8 99 11 8 17 27 17 52 0 63 18 155 35 181
11 16 23 23 35 20 10 -3 16 -2 13 3 -8 13 101 59 181 77 81 18 97 35 73 79
-19 37 -75 48 -159 32z"/>
<path d="M14825 17301 l-30 -6 -2 -95 c-2 -159 -5 -193 -18 -224 -14 -33 -22
-98 -30 -241 -3 -49 -10 -104 -17 -121 -8 -24 -8 -39 0 -60 6 -16 14 -46 18
-66 5 -30 17 -45 67 -84 34 -27 64 -51 67 -55 19 -24 90 -39 90 -18 0 6 12 9
28 7 19 -2 28 -9 30 -25 2 -14 12 -25 25 -28 94 -21 107 -22 124 -10 10 7 23
13 28 14 6 0 11 19 13 41 2 27 8 40 18 40 22 0 17 14 -14 41 -46 39 -70 50
-125 56 -29 2 -71 13 -94 24 -24 10 -47 19 -53 19 -16 0 -30 37 -36 97 -10
105 -11 168 -1 180 5 7 11 34 13 60 13 139 17 163 24 163 10 0 19 60 26 171 6
81 4 88 -17 108 -23 22 -70 26 -134 12z"/>
<path d="M19340 17209 c-25 -6 -62 -8 -82 -5 -21 2 -58 -2 -82 -9 -24 -8 -53
-11 -64 -8 -12 3 -53 -11 -99 -32 -50 -24 -98 -39 -133 -42 -41 -4 -61 -11
-78 -29 -13 -13 -27 -24 -32 -24 -16 0 -12 -37 4 -43 8 -3 12 -14 10 -24 -3
-10 4 -31 16 -46 18 -23 27 -26 68 -23 26 2 67 12 92 21 25 9 59 19 75 21 17
2 48 7 70 10 22 3 69 8 105 10 36 2 107 11 158 20 51 9 100 13 109 10 8 -3 20
-3 26 1 20 13 188 10 183 -4 -6 -15 27 -23 103 -23 61 0 134 -15 157 -32 6 -4
39 -8 72 -9 34 -1 62 -6 62 -10 0 -5 19 -9 43 -9 47 -1 141 -23 132 -32 -8 -8
63 -20 74 -13 10 6 62 -14 72 -28 4 -5 15 -7 25 -5 11 2 28 -4 38 -14 12 -11
24 -14 35 -9 16 8 41 4 51 -9 3 -3 43 -21 90 -39 47 -19 107 -42 133 -53 27
-11 54 -17 60 -15 6 2 47 -14 90 -36 88 -44 106 -49 125 -34 9 7 12 4 12 -13
0 -16 4 -20 15 -16 8 3 15 1 15 -4 0 -6 7 -10 15 -10 8 0 15 -7 15 -15 0 -9 9
-15 23 -15 13 0 34 -11 46 -24 12 -13 42 -29 65 -35 54 -13 161 -69 161 -84 0
-6 13 -14 29 -18 15 -4 37 -16 49 -26 11 -10 17 -12 13 -5 -4 6 -2 12 3 12 6
0 11 -8 11 -17 0 -15 2 -16 10 -3 8 13 10 12 10 -2 0 -10 5 -18 10 -18 6 0 21
-10 33 -23 12 -12 39 -31 59 -42 20 -10 39 -27 41 -36 3 -11 19 -20 41 -24 20
-4 42 -15 49 -25 6 -9 22 -20 35 -24 12 -4 20 -12 17 -17 -4 -5 5 -13 19 -19
17 -6 24 -14 20 -25 -4 -10 0 -15 14 -15 24 0 104 -73 100 -92 -2 -7 3 -12 10
-10 7 1 23 -9 36 -23 13 -13 26 -22 30 -18 4 4 9 -3 13 -15 3 -12 9 -20 13
-17 4 3 13 -9 21 -26 7 -17 26 -39 42 -49 28 -18 67 -70 67 -91 0 -6 11 -20
25 -31 14 -11 23 -23 20 -27 -7 -12 42 -54 54 -47 6 4 11 -10 13 -36 2 -33 8
-45 26 -54 13 -6 23 -15 24 -20 0 -19 19 -44 33 -44 8 0 15 -7 15 -16 0 -8 -5
-12 -11 -8 -7 4 -6 -2 2 -17 22 -42 60 -88 78 -94 9 -3 23 -22 30 -43 16 -43
40 -74 52 -66 16 10 48 -6 43 -21 -3 -8 3 -27 15 -43 11 -16 17 -32 13 -36 -4
-4 0 -6 8 -4 11 2 19 -16 32 -67 10 -38 22 -79 28 -90 6 -11 12 -45 14 -76 2
-30 11 -73 20 -93 9 -21 16 -47 16 -57 0 -11 6 -19 13 -19 9 0 8 -3 -2 -9 -19
-12 -4 -31 25 -31 14 0 22 -4 19 -10 -10 -16 6 -80 20 -80 14 0 35 -64 35
-108 0 -17 4 -33 9 -37 5 -3 12 -18 16 -34 3 -16 13 -35 21 -42 8 -6 14 -20
14 -32 0 -11 16 -34 35 -53 24 -22 33 -38 29 -51 -5 -14 -4 -15 4 -4 8 11 10
2 8 -30 -2 -46 11 -89 26 -89 5 0 6 -9 3 -20 -4 -12 -2 -27 4 -34 14 -17 32
-96 38 -168 3 -32 9 -58 14 -58 5 0 9 -9 9 -19 0 -11 9 -35 20 -54 20 -34 21
-65 8 -212 -3 -34 -27 -43 -100 -38 -26 2 -50 -1 -53 -7 -3 -5 -36 -10 -73
-10 -58 -1 -71 -4 -98 -28 -33 -28 -52 -76 -34 -87 5 -3 10 -15 10 -26 0 -13
4 -18 12 -13 8 5 9 2 5 -10 -9 -22 74 -102 114 -110 17 -3 28 -10 25 -15 -3
-5 3 -19 13 -32 10 -13 26 -40 36 -59 10 -19 21 -37 25 -40 15 -11 60 -91 60
-107 0 -10 9 -33 20 -50 11 -18 17 -39 14 -47 -3 -8 3 -23 13 -35 32 -35 40
-47 47 -69 4 -12 3 -22 -2 -22 -5 0 -8 -8 -7 -18 2 -25 38 -83 50 -79 5 2 21
-4 34 -14 13 -11 27 -19 32 -19 16 0 87 83 83 95 -8 19 77 157 100 163 15 4
17 11 12 43 -5 31 -3 40 13 48 10 6 21 23 24 38 3 15 20 43 36 61 17 18 31 37
31 41 0 5 16 32 35 60 19 28 35 55 35 61 0 5 4 10 8 10 13 0 100 90 119 122 9
14 26 31 39 36 19 9 21 16 17 59 -9 80 -24 99 -84 107 -41 6 -55 4 -70 -10
-21 -19 -61 -19 -167 -2 -53 9 -84 9 -112 1 -29 -7 -42 -7 -49 1 -5 6 -11 63
-12 126 -3 100 -6 122 -28 165 -14 28 -29 51 -33 53 -4 2 -12 29 -19 60 -7 31
-16 61 -21 66 -4 6 -8 20 -8 33 0 12 -9 37 -20 55 -11 18 -20 44 -20 58 0 14
-7 34 -15 44 -8 11 -15 28 -15 37 0 10 -6 22 -14 26 -15 9 -50 108 -42 121 3
5 -8 22 -24 37 -16 15 -27 32 -23 38 7 12 -16 87 -34 108 -7 8 -13 23 -13 31
0 9 -5 18 -10 20 -6 2 -15 31 -19 64 -9 59 -13 71 -41 124 -10 18 -13 57 -11
131 2 72 -3 125 -13 167 -16 62 -51 132 -66 132 -4 0 -22 16 -41 35 -19 19
-41 35 -50 35 -9 0 -23 8 -31 18 -19 21 -48 81 -48 97 0 7 -47 58 -105 114
-58 55 -105 108 -105 116 0 8 -15 32 -33 52 -19 21 -45 54 -58 74 -76 114
-424 470 -521 535 -21 14 -38 29 -38 34 0 5 -12 16 -27 24 -16 8 -41 26 -57
40 -16 14 -35 26 -43 26 -8 0 -25 11 -38 24 -13 14 -34 27 -45 31 -11 3 -25
15 -30 26 -6 10 -18 19 -27 19 -9 0 -30 11 -47 23 -17 13 -71 43 -121 66 -49
23 -97 46 -105 51 -50 32 -102 57 -149 72 -30 10 -62 24 -70 32 -9 7 -29 17
-46 20 -16 4 -37 13 -45 20 -25 21 -269 116 -297 116 -8 0 -28 11 -45 25 -16
14 -42 25 -57 25 -29 0 -101 21 -166 49 -22 10 -71 23 -110 30 -38 6 -88 16
-110 21 -22 5 -71 14 -110 21 -38 6 -89 17 -111 25 -116 37 -510 65 -614 43z"/>
<path d="M8853 16946 c-13 -6 -23 -16 -23 -21 0 -6 -6 -17 -12 -23 -7 -7 -11
-27 -10 -45 3 -27 -2 -36 -22 -47 -23 -12 -26 -20 -26 -67 0 -56 14 -133 32
-169 14 -30 1 -63 -30 -75 -15 -6 -62 -12 -105 -14 -69 -3 -81 -7 -103 -30
-13 -14 -24 -30 -24 -36 0 -5 -13 -9 -29 -9 -17 0 -33 -4 -36 -10 -3 -5 -19
-10 -35 -10 -16 0 -33 -6 -37 -13 -4 -8 -44 -32 -88 -54 -44 -22 -105 -56
-135 -77 -30 -20 -58 -36 -62 -36 -4 0 -26 -13 -50 -29 -24 -15 -59 -31 -78
-35 -19 -3 -48 -15 -65 -26 -47 -31 -92 -57 -123 -70 -13 -6 -34 -23 -48 -39
-13 -16 -37 -32 -52 -36 -15 -3 -54 -30 -86 -60 -34 -32 -68 -55 -81 -55 -27
0 -85 -28 -85 -41 0 -5 -11 -9 -25 -9 -14 0 -28 -7 -31 -15 -4 -8 -14 -15 -23
-15 -19 0 -91 -57 -91 -72 0 -22 -53 -80 -81 -90 -16 -5 -42 -29 -57 -51 -15
-23 -40 -48 -54 -55 -15 -7 -37 -25 -50 -40 -13 -16 -31 -31 -41 -35 -9 -3
-17 -12 -17 -20 0 -12 -81 -87 -95 -87 -3 0 -19 -16 -36 -35 -17 -19 -38 -35
-48 -35 -9 -1 -41 -29 -71 -64 -54 -61 -71 -76 -157 -136 -24 -17 -49 -45 -57
-64 -8 -19 -23 -39 -34 -45 -27 -14 -166 -156 -222 -227 -25 -31 -62 -75 -82
-98 -20 -23 -36 -50 -35 -61 1 -12 -6 -21 -22 -24 -30 -8 -93 -72 -87 -88 3
-7 -2 -13 -10 -13 -17 0 -104 -83 -104 -99 0 -5 -22 -36 -50 -68 -28 -32 -50
-68 -50 -80 0 -13 -6 -23 -14 -23 -8 0 -23 -18 -34 -39 -12 -22 -37 -60 -57
-86 -20 -26 -42 -62 -49 -79 -7 -17 -25 -42 -40 -55 -14 -14 -26 -31 -26 -38
0 -8 -7 -16 -15 -19 -8 -4 -15 -12 -15 -18 0 -7 -11 -27 -25 -46 -14 -19 -25
-41 -25 -50 0 -9 -9 -35 -20 -58 -11 -22 -20 -45 -20 -50 0 -5 -7 -15 -15 -22
-8 -7 -15 -24 -15 -37 0 -14 -13 -41 -30 -60 -16 -18 -30 -38 -30 -43 0 -5
-11 -33 -24 -62 -13 -29 -30 -73 -37 -97 -7 -24 -23 -50 -36 -58 -13 -8 -23
-23 -23 -32 0 -24 -27 -97 -66 -178 -19 -40 -34 -75 -34 -78 0 -3 -9 -18 -19
-33 -11 -15 -27 -56 -35 -91 -10 -38 -29 -79 -47 -102 -27 -34 -30 -44 -24
-78 4 -24 2 -41 -4 -46 -6 -3 -9 -10 -6 -15 3 -5 -1 -23 -10 -39 -8 -17 -15
-43 -15 -58 0 -15 -7 -46 -14 -68 -8 -22 -16 -67 -18 -101 -3 -33 -7 -65 -11
-71 -4 -6 -4 -25 -1 -42 8 -37 53 -66 90 -57 23 6 34 26 14 26 -5 0 -10 4 -10
10 0 5 6 7 14 4 20 -8 48 49 47 95 0 20 5 48 11 63 13 34 3 71 -13 48 -8 -12
-9 -9 -5 10 3 14 6 28 6 33 0 4 7 7 15 7 8 0 16 10 17 23 2 41 3 44 17 60 7 9
11 22 9 29 -3 7 1 19 9 26 18 19 17 38 -2 22 -12 -10 -15 -10 -15 3 0 9 5 19
10 22 14 9 12 43 -2 47 -8 3 2 23 28 54 22 27 48 69 58 94 10 25 22 54 27 65
38 92 55 144 54 165 -1 14 3 29 10 35 14 12 39 111 31 124 -4 5 5 18 19 29 14
11 25 24 25 29 0 6 9 18 20 28 11 10 20 23 19 29 -3 27 2 46 17 61 9 9 14 19
11 22 -3 3 1 12 9 20 11 12 12 18 3 29 -11 13 -2 19 24 15 4 0 7 6 7 14 0 9 7
18 16 22 13 5 13 8 2 15 -10 7 -10 11 0 15 6 2 12 11 12 19 0 7 13 20 28 28
17 9 28 23 29 37 1 12 9 27 18 32 12 6 15 16 10 34 -5 20 -3 24 9 20 10 -4 13
-1 9 8 -3 8 -9 12 -14 9 -5 -3 -9 0 -9 5 0 11 9 14 42 14 11 0 19 11 23 28 4
16 11 27 16 24 5 -4 6 1 3 9 -4 9 1 18 10 22 9 3 16 10 16 15 0 4 -7 6 -15 3
-9 -4 -15 0 -15 9 0 10 11 17 28 19 15 2 26 8 25 16 -2 6 2 12 7 12 19 0 37
24 33 45 -2 11 0 14 3 7 4 -8 16 4 35 33 16 26 27 50 24 55 -3 5 5 16 17 24
12 9 19 18 15 22 -7 7 2 19 56 76 20 22 37 46 37 54 0 8 5 14 10 14 6 0 10 9
10 19 0 24 41 56 51 40 4 -7 8 -5 12 4 3 8 0 20 -6 26 -8 8 -6 11 6 11 10 0
21 8 24 18 9 22 29 42 43 42 6 0 8 5 5 10 -3 6 -1 10 5 10 6 0 9 4 6 9 -3 4 6
13 20 20 20 9 24 16 18 33 -5 17 -3 20 10 15 10 -4 24 1 34 12 32 34 52 61 52
71 0 6 3 9 8 9 20 -3 32 2 27 12 -4 6 2 13 14 16 20 5 26 19 23 56 -2 20 2 21
29 7 15 -8 19 -7 19 4 0 8 12 24 26 35 14 11 23 24 20 30 -3 5 0 12 6 14 10 4
9 6 -1 6 -11 1 -11 4 -1 16 9 11 16 12 25 5 10 -8 13 -6 11 7 -1 13 6 18 24
18 17 0 26 7 28 20 2 11 11 26 20 32 8 7 13 16 9 19 -4 4 2 13 13 21 11 8 20
20 20 28 0 7 9 17 20 20 11 3 20 11 20 16 0 5 6 9 14 9 8 0 16 5 18 12 3 7 22
12 44 12 21 -1 31 1 22 3 -19 5 -25 22 -8 24 40 5 58 19 53 42 -3 15 -2 18 4
9 7 -9 13 -6 23 13 7 14 21 25 30 25 23 0 42 24 44 55 0 14 6 25 13 25 6 0 14
6 16 13 3 7 6 4 6 -6 1 -10 6 -15 12 -12 5 4 8 12 6 18 -2 7 12 24 31 40 27
21 38 25 45 15 6 -9 7 -8 3 4 -3 11 7 27 30 47 18 17 34 34 34 39 0 16 32 37
52 34 12 -2 18 3 18 17 0 11 9 22 21 26 17 6 20 12 15 37 -4 22 -3 29 7 25 7
-3 24 4 38 14 13 10 32 19 42 19 9 0 17 5 17 10 0 6 11 22 24 34 12 13 26 32
30 41 5 15 9 15 23 4 15 -12 16 -12 10 5 -6 15 -3 17 12 13 13 -3 28 5 46 25
20 22 33 29 51 25 13 -2 24 -1 24 4 0 4 18 18 40 30 22 12 42 31 46 41 4 15 9
17 20 7 8 -6 14 -7 14 -2 0 10 49 38 61 35 3 0 12 10 19 24 8 15 28 28 52 35
24 6 36 14 32 21 -5 8 -2 9 9 5 11 -4 17 -1 17 8 0 15 10 19 43 15 9 -1 17 2
16 7 -4 24 3 34 24 32 25 -3 87 21 87 33 0 4 -5 8 -11 8 -5 0 -7 5 -4 10 4 6
16 8 27 4 21 -6 117 36 139 62 8 10 16 11 31 3 17 -9 19 -8 14 9 -7 20 17 38
35 26 5 -3 9 2 9 10 0 9 6 13 14 10 8 -3 17 -1 21 5 3 6 20 11 37 11 26 0 29
2 18 15 -9 10 -9 15 -1 15 6 0 12 -1 14 -2 1 -1 12 4 24 10 14 8 24 9 28 2 3
-5 14 -10 23 -10 12 0 13 3 5 8 -9 6 -7 12 7 25 11 9 25 17 30 17 6 0 10 4 10
9 0 5 21 17 48 27 26 9 52 23 58 31 13 15 28 18 19 3 -14 -22 7 -11 49 27 8 7
34 16 58 19 24 4 49 15 56 26 18 24 35 23 27 -2 -9 -29 11 -82 39 -102 22 -16
27 -16 52 -3 16 8 31 11 34 7 3 -4 19 -17 37 -29 36 -25 118 -33 111 -11 -3 7
8 26 24 43 15 16 28 36 28 43 0 6 5 12 10 12 6 0 10 11 10 24 0 16 7 26 21 29
16 4 20 11 16 26 -5 22 8 30 16 9 2 -7 8 -10 12 -6 4 4 3 14 -3 21 -7 8 -9 17
-5 20 10 10 43 8 43 -2 0 -5 13 -5 29 2 15 5 28 16 27 24 -1 7 22 26 49 41 28
15 53 32 58 39 4 6 21 14 38 18 20 5 29 12 25 20 -3 8 0 27 7 44 10 27 8 33
-13 56 -13 14 -31 25 -40 25 -19 0 -106 44 -131 66 -8 8 -22 14 -30 14 -8 0
-24 6 -35 14 -26 18 -137 56 -164 56 -11 0 -23 7 -26 15 -4 8 -14 15 -24 15
-9 0 -29 9 -43 20 -14 11 -33 20 -42 20 -9 0 -24 4 -33 8 -10 5 -27 4 -39 -2z"/>
<path d="M26720 12041 c-97 -23 -129 -25 -164 -6 -31 17 -34 17 -72 -3 -21
-10 -50 -23 -63 -27 -14 -4 -33 -17 -42 -29 -16 -20 -24 -20 -165 -17 -320 8
-967 -4 -995 -20 -15 -8 -28 -8 -48 1 -22 9 -37 8 -73 -4 -24 -9 -69 -16 -99
-16 -30 1 -128 0 -219 0 -91 -1 -208 -1 -260 -1 -194 1 -600 -8 -609 -13 -5
-4 -13 -1 -16 4 -4 7 -45 11 -103 11 -54 0 -113 0 -132 0 -140 1 -241 -3 -274
-12 -37 -10 -145 -20 -191 -18 -31 2 -74 1 -160 -4 -61 -3 -84 -1 -97 10 -13
12 -31 13 -95 5 -43 -5 -91 -5 -107 -1 -16 5 -77 6 -135 3 -58 -3 -113 -5
-121 -4 -33 3 -70 1 -163 -7 -56 -5 -104 -5 -113 0 -9 5 -44 8 -77 7 -110 -3
-121 -3 -157 0 -49 4 -211 -11 -232 -22 -11 -5 -25 -5 -37 2 -25 13 -200 13
-416 0 -93 -5 -186 -10 -205 -11 -19 -1 -43 -6 -52 -10 -10 -6 -19 -5 -24 2
-8 13 -96 4 -124 -13 -14 -9 -28 -9 -57 1 -21 6 -65 12 -98 13 -144 2 -640
-12 -659 -18 -29 -10 -73 -13 -265 -18 -90 -3 -166 -7 -169 -10 -3 -3 -13 -6
-22 -6 -27 0 -47 -32 -48 -78 0 -24 -6 -49 -11 -56 -6 -7 -11 -27 -11 -46 -1
-41 17 -204 26 -240 4 -14 8 -52 10 -85 4 -77 11 -125 29 -200 27 -115 38
-272 39 -570 1 -165 5 -306 9 -313 5 -7 4 -19 -3 -27 -6 -8 -8 -20 -4 -27 4
-7 9 -35 10 -63 1 -27 5 -116 8 -198 3 -81 10 -166 15 -189 6 -23 8 -46 5 -50
-3 -4 -2 -13 2 -20 4 -7 8 -62 9 -123 1 -73 6 -118 15 -135 8 -14 13 -32 12
-41 -5 -34 84 -52 275 -54 170 -2 186 -9 187 -75 l1 -44 65 -24 c36 -13 81
-25 101 -26 20 -1 47 -9 60 -17 28 -18 92 -14 125 8 32 20 363 35 844 37 395
2 464 0 710 -25 58 -6 128 -12 155 -14 28 -1 84 -8 125 -15 41 -7 86 -12 100
-12 80 4 560 3 567 -1 4 -3 37 2 73 10 36 8 133 19 215 24 83 4 218 16 300 25
83 9 197 19 255 21 57 2 110 9 116 14 7 5 23 5 42 -2 23 -8 41 -8 65 0 54 18
266 16 301 -2 24 -13 54 -15 155 -12 69 3 152 10 185 16 33 6 75 8 93 4 18 -3
41 -1 52 4 10 6 79 13 154 16 74 4 161 13 193 21 33 9 68 15 79 15 11 0 72 1
135 1 116 2 210 1 265 -2 17 0 62 2 100 5 39 4 131 9 205 12 351 13 533 25
553 35 10 5 62 10 115 10 53 1 111 5 128 9 17 5 80 11 139 13 68 2 111 8 113
15 4 13 38 15 46 3 3 -5 46 -9 95 -8 79 1 93 4 112 23 12 12 22 35 23 52 1 17
4 31 9 31 14 0 7 35 -14 69 -16 27 -19 43 -14 86 5 33 3 55 -4 59 -6 4 -10 52
-10 124 0 64 -4 129 -9 143 -6 14 -7 31 -2 38 9 16 5 115 -6 133 -5 7 -10 99
-11 203 -2 105 -4 224 -5 265 -1 41 2 125 6 185 8 132 18 340 17 376 0 15 9
36 20 48 17 18 19 24 8 38 -8 8 -14 29 -16 47 -1 17 -5 67 -8 111 -3 44 -10
98 -15 120 -5 22 -10 59 -10 82 0 38 -3 43 -43 66 -34 20 -52 24 -83 20 -39
-5 -41 -4 -57 33 -10 23 -18 75 -20 127 -3 65 -9 92 -22 107 -10 11 -14 26
-11 38 9 28 -18 46 -77 49 -40 2 -56 7 -71 25 -15 19 -28 23 -70 23 -28 0 -76
-6 -106 -14z m158 -258 c2 -12 10 -27 18 -33 8 -7 14 -22 14 -35 0 -12 3 -25
7 -29 4 -4 9 -35 11 -69 2 -34 4 -71 4 -82 1 -11 11 -28 21 -37 18 -16 16 -23
-5 -19 -13 2 -9 -17 5 -31 8 -7 12 -20 9 -30 -2 -10 1 -18 7 -18 6 0 11 -16
11 -35 0 -19 3 -35 8 -35 4 0 7 -39 8 -88 1 -48 4 -107 9 -132 4 -25 7 -76 7
-113 1 -39 4 -63 9 -56 17 28 19 0 2 -29 -14 -24 -15 -35 -6 -54 18 -36 25
-96 13 -103 -8 -5 -6 -15 5 -31 11 -17 14 -37 10 -62 -18 -127 -20 -153 -12
-167 13 -24 10 -210 -3 -210 -9 0 -5 -42 7 -66 9 -18 13 -42 9 -62 -4 -21 0
-43 10 -62 18 -33 22 -82 24 -282 1 -135 -7 -250 -19 -258 -4 -2 -27 3 -51 11
-34 12 -53 13 -92 4 -27 -5 -68 -10 -92 -10 -24 0 -59 -6 -77 -14 -24 -9 -58
-12 -114 -8 -102 7 -237 6 -345 -2 -47 -4 -129 -6 -183 -5 -74 0 -103 -3 -115
-14 -14 -12 -33 -14 -102 -8 -109 10 -424 6 -442 -5 -7 -5 -51 -10 -98 -11
-107 -3 -226 -10 -405 -24 -77 -6 -221 -13 -320 -15 -99 -2 -187 -5 -195 -6
-8 0 -44 0 -80 2 -89 4 -267 -9 -310 -23 -29 -9 -241 -20 -357 -17 -256 4
-582 -5 -594 -17 -16 -16 -59 -17 -59 -2 0 9 -19 10 -67 4 -38 -5 -95 -9 -128
-11 -33 -1 -74 -5 -92 -9 -17 -4 -53 -2 -80 3 -26 6 -64 7 -83 3 -19 -4 -59
-3 -89 1 -39 6 -56 5 -62 -3 -4 -6 -12 -8 -18 -5 -13 9 -145 15 -391 20 -102
2 -202 7 -223 11 -23 5 -42 3 -50 -4 -10 -8 -33 -7 -87 5 -40 8 -83 14 -94 13
-12 -1 -46 3 -76 9 -30 7 -89 11 -130 10 -41 -1 -102 2 -135 6 -50 7 -63 6
-74 -8 -17 -20 -35 -20 -51 -1 -7 8 -16 12 -21 9 -5 -3 -35 -5 -67 -5 -37 0
-63 -6 -74 -16 -9 -8 -22 -12 -27 -8 -22 13 -62 16 -277 18 -172 2 -224 -1
-237 -11 -13 -11 -23 -11 -52 -2 -19 6 -65 13 -102 15 -38 2 -81 6 -98 9 -16
3 -52 8 -80 11 -136 12 -145 15 -161 54 -9 20 -17 43 -18 51 -12 59 -16 93
-17 145 0 33 -7 83 -14 110 -8 28 -15 91 -17 140 -2 50 -7 96 -11 103 -5 6
-10 125 -12 264 -6 388 -15 559 -31 592 -8 16 -14 43 -14 61 0 17 -6 37 -12
43 -10 10 -10 17 -1 31 14 23 -11 239 -33 287 -8 17 -15 49 -14 70 0 22 -5 73
-11 114 -7 51 -7 83 -1 101 11 28 -4 25 222 45 19 1 35 3 35 4 0 5 464 24 540
22 28 -1 102 4 165 10 106 9 117 13 137 37 21 25 21 26 42 7 18 -16 29 -18 78
-11 69 8 60 9 149 -4 39 -6 100 -7 135 -4 85 7 73 7 244 -1 280 -14 497 -14
539 1 21 7 41 11 45 8 8 -4 352 -10 486 -7 44 0 161 0 260 -2 99 -2 209 0 245
4 38 4 87 3 118 -3 47 -9 54 -8 67 9 12 17 16 18 37 5 29 -18 141 -16 248 4
114 21 215 28 237 16 34 -18 146 -32 154 -19 4 6 18 8 34 4 46 -12 326 -15
385 -5 33 6 122 7 225 2 93 -4 199 -5 235 0 36 4 150 10 255 13 106 3 194 9
201 15 8 6 20 7 31 2 10 -6 87 -5 183 0 171 10 281 10 655 5 121 -1 232 1 246
5 19 5 33 1 49 -13 29 -25 50 -25 147 -1 115 29 179 38 268 37 74 -1 80 -3 83
-23z"/>
<path d="M24727 10983 c-11 -19 -18 -91 -9 -97 5 -3 7 -26 4 -51 -3 -29 0 -50
8 -60 7 -9 13 -30 12 -48 -1 -18 8 -58 18 -90 11 -31 20 -65 20 -75 0 -10 3
-22 7 -26 6 -6 11 -68 13 -157 0 -21 -7 -57 -15 -80 -9 -24 -18 -63 -19 -86
-1 -24 -10 -51 -20 -62 -10 -11 -15 -25 -11 -30 3 -6 -1 -14 -10 -18 -23 -8
-66 44 -113 137 -20 41 -40 77 -43 80 -4 3 -10 21 -14 40 -4 19 -14 44 -21 55
-8 11 -14 32 -14 47 0 15 -4 30 -10 33 -5 3 -10 17 -10 30 0 13 -5 27 -10 30
-12 8 -40 72 -40 93 0 18 -44 60 -75 72 -30 11 -99 -35 -86 -58 5 -8 4 -33 -1
-56 -5 -22 -8 -62 -5 -88 2 -26 0 -49 -5 -50 -13 -5 -23 -214 -18 -383 1 -16
8 -49 17 -72 8 -23 13 -45 10 -50 -2 -4 -1 -18 4 -30 7 -18 16 -23 46 -23 48
0 66 11 57 35 -6 15 -3 17 18 12 16 -4 30 -2 37 7 12 15 5 73 -12 94 -14 18
-10 74 6 84 18 12 37 9 37 -5 0 -13 21 -33 56 -53 10 -6 19 -20 19 -32 0 -11
22 -42 48 -68 26 -27 47 -52 47 -56 0 -3 23 -23 52 -43 43 -32 56 -36 77 -29
18 7 27 18 29 37 2 19 12 31 27 37 26 10 49 45 40 60 -4 6 1 25 10 43 9 17 19
52 22 77 3 25 9 53 14 62 6 12 5 19 -6 25 -13 7 -12 16 4 70 14 45 18 84 15
140 -5 125 -23 320 -40 432 -18 128 -36 151 -114 151 -27 0 -51 -3 -53 -7z"/>
<path d="M22353 10894 c-13 -13 -24 -35 -24 -49 -3 -47 -4 -50 -13 -56 -11 -8
2 -65 18 -82 16 -16 29 -134 16 -142 -17 -11 -11 -43 15 -73 25 -29 34 -59 15
-47 -10 6 -17 -20 -18 -73 -1 -22 -9 -40 -24 -52 l-23 -18 19 -49 c15 -40 19
-79 21 -228 2 -174 10 -226 38 -246 17 -12 62 7 72 29 5 12 15 22 22 22 7 0
15 12 18 28 4 15 10 35 16 44 21 39 4 152 -28 184 -10 9 -12 18 -6 22 5 4 18
21 28 39 13 23 30 35 63 44 24 7 56 22 71 34 14 12 38 28 53 36 34 18 137 153
145 190 3 16 12 34 19 40 8 6 14 16 14 22 0 5 7 15 16 21 11 9 17 32 19 76 2
61 1 66 -39 119 -22 31 -49 63 -58 73 -22 22 -72 48 -93 48 -10 0 -29 8 -43
19 -31 21 -137 42 -236 46 -61 2 -72 0 -93 -21z m283 -169 c16 -8 39 -15 52
-15 13 0 35 -12 49 -26 22 -22 25 -32 21 -69 -3 -23 -16 -58 -29 -76 -13 -19
-29 -41 -34 -50 -44 -71 -63 -92 -112 -127 l-32 -23 -12 22 c-11 22 -9 117 6
241 5 47 5 48 -30 62 -36 16 -46 41 -23 64 17 17 110 15 144 -3z"/>
<path d="M23855 10821 c-28 -6 -30 -10 -37 -66 -3 -33 -16 -82 -27 -108 -11
-26 -20 -51 -19 -55 3 -15 -15 -68 -29 -84 -8 -9 -12 -22 -8 -28 4 -6 3 -16
-3 -23 -5 -7 -15 -34 -22 -62 -7 -27 -20 -56 -28 -62 -8 -7 -17 -30 -19 -50
-2 -21 -11 -48 -19 -60 -7 -12 -14 -31 -14 -43 0 -12 -7 -20 -16 -20 -29 0
-94 -23 -94 -33 0 -5 10 -29 22 -53 17 -36 20 -50 12 -86 -10 -47 -30 -56 -48
-23 -6 11 -15 23 -21 28 -5 4 -86 6 -180 5 l-170 -3 1 70 c0 39 3 144 7 235 4
91 7 173 7 183 0 9 0 26 0 37 1 40 0 76 0 133 -1 54 -4 59 -33 78 -66 40 -147
15 -132 -40 4 -14 6 -42 6 -61 -2 -33 -3 -75 -2 -102 0 -7 -1 -56 -2 -108 -1
-52 1 -108 5 -123 5 -20 2 -36 -8 -52 -10 -15 -16 -60 -20 -135 -2 -62 -7
-117 -10 -122 -3 -5 -3 -32 1 -60 6 -39 15 -59 40 -83 17 -18 35 -39 38 -48
11 -29 117 -25 117 5 0 4 18 8 39 8 22 0 43 5 47 11 3 6 17 8 31 4 13 -3 66
-8 116 -11 84 -5 94 -4 115 16 29 27 28 34 -10 51 -45 20 -44 34 2 37 38 2 40
1 40 -25 1 -43 30 -74 78 -80 26 -3 42 -2 42 5 0 5 15 19 33 30 30 17 35 26
40 72 11 90 33 107 153 113 22 1 53 10 67 20 34 22 36 17 53 -153 7 -69 20
-91 66 -115 27 -13 31 -12 73 18 44 32 44 33 40 82 -3 28 -11 74 -18 103 -8
29 -12 63 -10 76 3 14 -1 42 -8 63 -7 21 -13 76 -14 123 -2 54 -9 99 -20 125
-9 22 -23 61 -31 87 -8 26 -19 50 -24 53 -6 3 -10 15 -10 26 0 11 -18 39 -40
63 -41 44 -47 70 -31 126 9 32 -6 77 -29 90 -20 11 -39 11 -85 1z m73 -493 c2
-25 10 -52 18 -58 7 -7 14 -25 14 -40 0 -38 -40 -64 -86 -55 -42 7 -43 21 -7
127 19 58 31 78 42 76 11 -2 17 -17 19 -50z"/>
<path d="M3506 11633 c-4 -4 -64 -9 -134 -10 -237 -5 -626 -8 -787 -6 -295 3
-820 -7 -846 -16 -14 -5 -71 -7 -127 -5 -55 2 -103 0 -106 -5 -3 -5 -54 -9
-113 -10 -60 -1 -119 -3 -133 -6 -56 -10 -367 -34 -385 -29 -11 3 -47 -6 -80
-20 -54 -22 -60 -27 -61 -54 -1 -44 9 -54 55 -58 74 -5 83 -11 75 -52 -10 -50
-9 -385 0 -401 4 -6 7 -58 6 -114 -1 -56 -1 -109 0 -117 1 -8 -3 -44 -9 -79
-5 -36 -7 -69 -3 -75 3 -6 7 -47 8 -91 2 -44 5 -109 8 -145 8 -116 25 -402 26
-440 1 -71 -8 -249 -14 -258 -3 -6 4 -23 17 -39 35 -41 61 -116 49 -139 -14
-29 4 -81 31 -87 28 -7 122 -16 252 -23 55 -3 118 -7 140 -8 22 -1 57 -3 77
-4 36 -2 37 -3 40 -44 l3 -42 68 -16 c37 -9 69 -15 71 -13 2 2 27 -6 56 -17
50 -20 54 -20 128 -4 84 18 169 19 247 4 28 -6 142 -12 255 -15 113 -3 340 -9
505 -13 165 -5 310 -5 323 -1 13 5 42 5 67 -1 25 -6 129 -9 232 -9 104 1 199
-1 213 -5 14 -3 86 -8 160 -11 74 -3 200 -10 280 -16 80 -5 258 -11 395 -13
381 -6 587 -13 620 -24 38 -12 320 2 470 22 200 28 328 36 475 30 80 -3 170
-5 200 -4 30 0 78 1 105 2 68 1 400 -10 560 -18 72 -4 146 -6 165 -4 19 1 64
2 100 1 149 -5 239 -4 310 0 41 2 102 0 135 -5 33 -6 74 -9 90 -9 164 7 394 7
455 1 92 -9 73 -8 210 -8 63 0 142 -1 175 -1 61 -1 68 3 101 57 11 17 12 16
19 -11 4 -16 8 -35 10 -41 2 -8 22 -8 66 -2 47 6 70 15 91 35 28 27 28 27 28
158 0 73 -5 146 -11 164 -9 26 -8 35 4 49 13 14 14 26 7 57 -5 22 -5 42 -1 45
4 3 8 48 8 100 0 52 4 127 8 167 4 39 4 80 0 90 -5 10 -9 66 -10 124 -1 61
-10 136 -20 179 -14 55 -15 77 -7 91 12 18 1 195 -13 232 -4 9 -2 24 5 32 10
12 8 24 -10 60 -20 41 -21 48 -8 63 22 25 33 46 21 39 -7 -4 -11 43 -11 138
-2 203 -33 304 -94 305 -41 0 -54 31 -34 81 12 29 13 45 6 59 -7 13 -7 21 0
25 37 23 -28 209 -69 198 -10 -3 -28 0 -38 6 -15 7 -25 6 -40 -4 -13 -9 -47
-14 -99 -14 -138 1 -358 -8 -376 -16 -10 -4 -24 1 -37 14 -22 22 -34 24 -66
12 -11 -4 -49 -3 -85 4 -36 6 -92 10 -125 8 -33 -2 -98 -2 -145 -1 -97 2 -362
2 -590 0 -85 -1 -192 2 -237 6 -67 6 -195 6 -393 0 -60 -2 -415 14 -422 18 -5
3 -15 1 -22 -5 -9 -8 -22 -8 -37 -3 -14 6 -69 6 -129 1 -58 -5 -120 -6 -138
-3 -19 4 -38 1 -47 -6 -11 -9 -19 -9 -27 -2 -18 14 -157 17 -258 5 -47 -6
-103 -9 -125 -6 -22 2 -161 6 -308 9 -227 4 -276 3 -323 -11 -41 -12 -59 -13
-69 -5 -15 12 -235 10 -235 -2 0 -7 -12 -5 -47 9 -15 5 -251 14 -363 13 -228
-3 -292 -2 -322 4 -19 3 -38 3 -42 -1z m644 -168 c90 -12 283 -15 297 -4 7 6
100 12 225 14 117 2 234 6 259 10 28 4 91 1 160 -9 63 -9 150 -16 194 -15 44
0 100 -4 123 -11 32 -8 60 -7 105 1 34 6 139 13 232 15 94 2 197 4 230 6 33 1
97 -1 143 -4 45 -3 84 -3 86 1 3 4 24 5 48 3 24 -1 97 -4 163 -7 66 -2 181 -7
255 -10 237 -12 286 -11 303 4 14 11 23 11 45 2 20 -8 142 -13 393 -14 281 -2
369 -5 388 -16 18 -10 99 -13 361 -13 186 0 343 -4 349 -7 9 -6 25 -220 22
-276 -3 -37 -22 -178 -28 -211 -4 -21 -7 -109 -6 -194 3 -270 7 -334 21 -345
10 -8 11 -21 2 -59 -9 -41 -8 -51 5 -66 15 -16 15 -24 2 -75 -12 -48 -12 -58
0 -70 7 -8 13 -27 13 -42 -2 -56 8 -184 14 -190 3 -4 6 -17 6 -30 0 -13 4 -31
10 -41 12 -20 40 -258 46 -394 6 -108 -3 -122 -38 -62 -18 30 -24 34 -49 29
-16 -4 -39 0 -56 8 -21 11 -54 14 -128 11 -107 -5 -315 -21 -380 -29 -22 -3
-128 -8 -235 -11 -262 -7 -405 -13 -465 -17 -27 -2 -56 1 -62 6 -8 6 -31 5
-63 -3 -36 -9 -58 -9 -80 -1 -21 7 -39 7 -58 0 -15 -6 -41 -8 -58 -4 -17 3
-103 7 -190 10 -147 4 -300 12 -384 21 -19 2 -203 4 -408 5 -263 2 -394 6
-444 16 -40 7 -88 13 -107 12 -20 -1 -103 1 -186 4 -278 11 -410 10 -434 -3
-23 -12 -46 -12 -886 6 -104 2 -280 5 -390 8 -115 2 -208 0 -218 -6 -12 -6
-30 -5 -53 2 -41 14 -54 16 -154 28 -41 5 -109 8 -150 6 -165 -6 -242 -5 -253
5 -10 8 -296 25 -397 24 -156 -3 -340 -1 -365 2 -57 7 -751 9 -763 1 -7 -4
-12 -2 -12 3 0 6 -11 11 -24 11 -12 0 -35 11 -50 25 -14 13 -26 22 -26 19 0
-3 -5 -2 -10 1 -7 4 -7 12 0 25 6 10 7 21 2 24 -4 2 -9 18 -10 35 -2 23 1 29
12 25 13 -5 13 -1 4 28 -6 18 -11 52 -11 74 1 38 -1 41 -20 37 -22 -5 -22 -5
-2 10 l20 16 -20 1 c-17 0 -17 2 -5 10 12 8 11 10 -7 10 -13 0 -23 5 -23 11 0
5 5 7 12 3 7 -5 9 -2 5 9 -6 16 15 41 26 30 4 -3 7 -1 7 5 0 19 -4 27 -12 24
-5 -1 -8 3 -8 9 0 6 -7 9 -15 5 -9 -3 -15 0 -15 9 0 8 6 15 13 16 9 0 9 2 0 6
-18 7 -16 23 2 23 13 0 14 3 3 23 -7 12 -13 36 -13 52 0 19 -5 29 -12 27 -16
-3 -16 7 2 38 19 33 19 54 0 46 -12 -4 -14 0 -9 19 4 17 2 25 -7 25 -11 0 -11
3 1 10 11 7 11 10 2 10 -9 0 -11 9 -7 33 13 66 12 88 -4 97 -9 5 -11 10 -4 10
6 0 9 9 5 22 -3 13 -1 19 6 15 12 -8 5 53 -8 67 -5 5 -6 15 -3 22 3 8 2 22 -2
32 -10 23 -13 52 -6 52 4 0 6 23 6 51 0 28 3 53 7 55 5 3 8 10 8 15 0 6 -5 7
-12 3 -8 -5 -9 -2 -5 9 3 9 3 19 -2 21 -8 5 -5 75 3 83 3 3 0 16 -5 30 -6 17
-6 30 1 38 7 8 7 29 0 65 -8 44 -7 56 5 70 18 20 19 40 2 40 -7 0 -13 9 -13
20 0 11 6 20 12 20 13 0 12 12 -1 43 -4 11 -1 34 8 58 8 21 12 37 7 34 -5 -3
-11 -1 -15 5 -3 5 -1 10 5 10 7 0 10 6 7 14 -3 8 -1 16 5 18 6 2 5 16 -4 38
-29 68 -10 100 52 93 61 -6 172 -2 240 10 56 10 297 26 360 24 69 -1 166 2
245 8 44 4 94 6 110 4 31 -4 447 -2 500 2 17 1 107 -1 200 -6 222 -9 203 -9
330 1 61 4 128 8 150 7 22 0 99 0 170 0 72 0 220 -1 330 -3 283 -5 335 -4 380
7 22 5 47 6 55 3 8 -4 40 -11 70 -15z"/>
<path d="M7710 11333 c-27 -34 -26 -93 2 -154 13 -27 26 -49 30 -49 3 0 16
-21 29 -47 12 -27 30 -57 40 -68 9 -11 18 -31 18 -45 0 -33 10 -100 27 -189 4
-19 1 -66 -6 -105 -21 -115 -41 -124 -91 -40 -19 30 -47 70 -63 87 -52 58 -96
114 -96 123 0 5 -10 20 -23 34 -62 69 -107 129 -107 144 0 9 -4 16 -9 16 -5 0
-30 16 -55 35 -55 41 -110 48 -121 15 -14 -45 -33 -265 -24 -282 5 -9 9 -32 9
-50 0 -19 8 -44 17 -58 12 -17 16 -43 15 -97 0 -40 3 -75 8 -78 11 -7 13 -78
3 -89 -4 -4 -8 -36 -10 -71 -2 -59 0 -66 25 -85 l27 -21 9 20 c5 12 16 22 25
22 22 2 23 2 44 -6 10 -4 17 -3 17 5 0 6 16 32 37 56 24 30 37 57 38 79 1 19
10 46 19 59 21 33 21 34 -14 90 -24 37 -28 51 -20 66 12 23 40 16 40 -11 0
-10 18 -37 40 -61 22 -24 72 -81 112 -128 40 -47 88 -96 107 -108 34 -23 66
-26 66 -6 0 13 30 44 44 44 17 0 34 42 33 78 -1 19 5 47 14 64 17 33 34 205
27 285 -2 28 -13 85 -24 125 -11 40 -25 92 -30 116 -6 23 -15 42 -20 42 -5 0
-9 6 -9 13 0 7 -8 24 -17 37 -10 14 -16 34 -15 45 1 11 -7 38 -18 60 -11 21
-20 44 -20 50 0 18 -41 47 -77 55 -28 7 -36 4 -53 -17z"/>
<path d="M6155 11101 c-11 -4 -31 -12 -45 -18 -14 -6 -47 -20 -73 -30 -29 -10
-52 -27 -57 -38 -4 -12 -15 -27 -24 -34 -9 -7 -16 -22 -16 -32 0 -11 -4 -19
-10 -19 -5 0 -19 -9 -30 -20 -28 -28 -28 -144 0 -180 11 -14 20 -29 20 -35 2
-25 136 -147 177 -159 12 -4 38 -23 57 -42 19 -19 48 -37 65 -40 20 -4 43 -21
61 -44 33 -42 37 -55 15 -46 -9 3 -23 -3 -32 -14 -10 -11 -24 -20 -33 -20 -9
0 -25 -6 -36 -14 -11 -8 -31 -14 -44 -15 -14 0 -63 -5 -110 -10 -47 -5 -114
-8 -150 -6 -36 2 -75 4 -87 4 -30 1 -33 31 -6 59 13 12 26 34 29 47 3 14 10
25 14 25 12 0 19 121 10 190 -4 37 -4 69 1 74 15 17 11 86 -6 92 -8 4 -15 17
-15 30 0 13 -12 37 -27 53 -46 49 -53 59 -53 75 0 7 -7 16 -15 20 -8 3 -15 11
-15 18 0 8 -20 35 -43 61 -40 43 -48 47 -88 47 -25 0 -50 -5 -57 -12 -14 -14
-16 -48 -3 -48 5 0 5 -17 0 -40 -17 -77 19 -132 93 -144 23 -4 38 -12 38 -20
0 -7 8 -16 18 -18 16 -4 27 -21 51 -80 33 -78 36 -203 5 -229 -7 -6 -19 -29
-24 -50 -6 -21 -14 -38 -18 -37 -4 2 -32 -24 -62 -56 -68 -72 -101 -96 -147
-107 -32 -7 -39 -5 -57 19 -43 55 -67 95 -73 123 -3 16 -8 29 -12 29 -3 0 -6
15 -7 33 0 17 -3 53 -6 79 -4 34 -2 51 8 59 20 16 17 39 -3 39 -14 0 -15 2 -4
9 7 5 11 13 7 19 -3 6 -2 13 4 17 13 8 13 52 0 60 -6 4 -5 11 3 20 15 14 11
79 -4 69 -5 -3 -9 3 -9 12 0 10 -3 14 -6 11 -4 -3 -18 3 -32 13 -13 11 -34 20
-46 20 -18 0 -25 -9 -35 -51 -15 -59 -16 -213 -1 -268 5 -20 9 -45 10 -56 1
-55 17 -144 33 -174 16 -32 16 -35 0 -46 -18 -14 -120 -40 -140 -37 -6 2 -14
-2 -18 -8 -8 -13 -82 -13 -90 0 -3 6 -12 10 -20 10 -23 0 -63 46 -54 62 5 7 9
29 9 48 0 24 -3 31 -9 21 -7 -11 -11 -10 -19 5 -5 11 -10 22 -11 27 0 4 -4 22
-9 41 -9 31 0 86 21 136 4 8 5 22 4 30 -1 8 4 46 12 84 12 58 12 69 0 77 -12
7 -7 13 12 11 3 0 6 16 7 36 1 20 5 54 8 75 4 28 2 37 -9 37 -8 0 -17 13 -21
30 -3 19 -15 34 -32 42 -23 11 -28 9 -44 -12 -17 -23 -30 -65 -36 -115 -1 -11
-11 -88 -23 -171 -15 -109 -19 -178 -15 -245 12 -186 11 -203 -10 -207 -10 -2
-30 2 -43 9 -18 10 -31 10 -53 2 -27 -10 -130 -9 -230 2 -56 6 -150 44 -150
61 0 6 -7 17 -15 24 -11 9 -15 9 -15 1 0 -7 -4 -10 -9 -7 -5 4 -5 21 2 42 7
23 7 38 1 42 -13 9 -11 78 2 75 5 -1 8 13 6 32 -3 26 1 37 17 47 14 8 21 23
21 44 0 17 7 37 15 44 8 7 12 16 9 21 -3 5 -1 9 4 9 5 0 12 9 15 20 3 11 11
19 18 18 7 -2 13 4 14 12 0 10 10 14 28 13 15 -1 27 2 27 8 0 5 6 9 14 9 8 0
22 10 30 22 9 12 16 19 16 14 0 -5 7 -3 15 4 9 7 18 10 22 6 3 -3 21 5 39 19
18 14 53 28 76 31 24 3 50 12 58 19 8 6 22 14 31 18 20 7 14 67 -8 67 -8 0
-13 8 -12 18 3 34 -2 40 -40 46 -42 6 -103 -20 -115 -49 -3 -8 -14 -15 -25
-15 -11 0 -35 -9 -53 -20 -18 -11 -40 -20 -49 -20 -17 0 -128 -81 -169 -123
-54 -55 -60 -64 -60 -85 0 -24 -22 -29 -37 -9 -13 16 -33 89 -33 116 0 12 -4
19 -10 16 -5 -3 -10 2 -10 12 0 11 -6 28 -14 39 -8 10 -12 30 -9 44 3 19 -3
34 -26 58 -17 17 -36 32 -42 32 -5 0 -9 8 -7 18 2 12 -5 18 -23 20 -54 6 -75
-72 -37 -135 13 -21 30 -56 37 -78 7 -22 22 -58 32 -79 22 -45 44 -239 35
-303 -6 -48 -41 -119 -62 -127 -8 -3 -14 -1 -14 5 0 6 -7 9 -15 5 -8 -3 -15
-1 -15 4 0 5 -11 20 -25 34 -14 14 -25 29 -25 33 0 4 -14 21 -30 37 -17 16
-30 37 -30 46 0 9 -11 30 -25 46 -14 16 -25 38 -25 50 0 11 -10 31 -22 44 -13
14 -24 32 -24 42 -2 25 -82 159 -112 186 -14 12 -33 22 -43 22 -12 0 -16 5
-13 15 8 20 -44 20 -92 0 -26 -11 -34 -19 -31 -32 14 -49 17 -134 7 -154 -9
-15 -9 -24 -1 -28 5 -4 17 -24 26 -45 15 -34 15 -41 2 -54 -13 -12 -16 -12
-22 7 -3 11 -13 21 -21 21 -8 0 -14 9 -14 19 0 21 -90 90 -165 127 -40 19 -54
28 -81 53 -9 8 -40 14 -79 14 -55 1 -69 -3 -90 -23 -14 -13 -25 -30 -25 -37 0
-7 -11 -19 -25 -25 -19 -9 -25 -19 -25 -44 0 -35 -10 -62 -39 -109 -11 -16
-20 -43 -20 -58 -1 -15 -7 -38 -15 -50 -8 -12 -18 -53 -21 -92 -4 -38 -12 -78
-17 -89 -15 -29 -11 -121 9 -175 24 -68 13 -80 -70 -75 -34 2 -80 9 -102 15
-23 6 -45 10 -50 9 -17 -3 -55 12 -55 22 0 5 -6 8 -12 7 -7 -1 -30 5 -50 14
-21 10 -42 17 -48 17 -5 0 -10 5 -10 10 0 6 -8 10 -18 10 -11 0 -24 11 -30 25
-6 14 -16 25 -22 25 -5 0 -10 6 -10 13 0 8 -11 20 -25 27 -14 7 -27 26 -31 44
-3 17 -10 36 -16 42 -16 21 -18 54 -2 54 16 0 19 26 4 35 -12 8 -5 72 11 91 9
11 8 14 -2 14 -8 0 -5 6 7 15 11 8 14 15 6 15 -8 0 -6 6 5 18 44 47 53 61 53
88 0 8 4 13 9 10 5 -3 14 1 21 9 7 8 17 15 22 15 5 0 21 13 36 28 36 37 105
54 199 50 89 -3 106 8 96 65 -3 22 -13 41 -22 45 -25 9 -32 26 -13 33 15 5 14
7 -4 17 -40 21 -154 15 -154 -8 0 -5 -8 -11 -17 -14 -29 -10 -144 -87 -209
-141 -59 -49 -104 -105 -104 -128 0 -7 -8 -23 -17 -36 -16 -24 -36 -106 -34
-146 0 -11 1 -36 1 -55 0 -19 5 -37 11 -40 7 -5 6 -15 -2 -33 -9 -20 -9 -33 1
-56 6 -16 9 -34 7 -39 -15 -24 183 -262 217 -262 7 0 27 -11 46 -25 19 -14 42
-25 52 -25 10 0 36 -9 56 -19 38 -19 153 -28 176 -13 6 4 13 7 16 7 32 3 108
33 118 47 13 18 15 17 35 -13 12 -18 44 -46 72 -63 42 -26 58 -30 111 -28 79
2 158 36 201 86 17 21 35 37 40 37 4 0 7 6 5 14 -2 9 4 12 16 8 16 -4 20 2 25
37 9 66 80 122 142 113 35 -5 75 23 75 53 0 16 2 17 11 4 9 -13 10 -13 6 0 -2
8 2 33 10 55 7 21 11 45 9 51 -3 7 -1 14 4 16 5 2 12 21 15 43 4 22 9 48 12
59 3 12 1 16 -6 12 -18 -11 -13 6 7 20 29 22 42 16 62 -28 10 -24 33 -59 51
-78 17 -19 47 -58 65 -86 33 -52 87 -94 118 -94 23 0 150 51 154 62 7 18 54 8
59 -12 6 -23 79 -70 109 -70 10 0 32 -7 48 -15 74 -39 284 -53 382 -25 77 21
118 16 166 -21 44 -35 109 -49 203 -42 71 4 212 35 248 54 16 9 28 5 64 -20
36 -26 53 -31 96 -30 33 0 63 7 82 20 17 11 38 22 47 25 9 3 14 12 11 20 -6
16 17 42 33 37 6 -2 25 8 42 22 l30 25 22 -34 c11 -19 29 -37 38 -40 28 -9
289 29 308 45 8 7 14 6 19 -1 12 -19 170 17 170 38 0 6 26 24 58 41 l57 30 14
-33 c14 -34 55 -53 99 -47 10 1 25 -3 32 -9 20 -17 29 8 16 43 -7 18 -7 27 -1
27 11 0 11 57 -1 80 -4 9 -1 24 7 35 18 25 20 181 2 188 -10 4 -10 7 0 15 11
7 11 12 -2 25 -12 11 -13 16 -3 20 9 3 9 7 -1 20 -7 8 -12 21 -11 29 3 28 -2
45 -20 64 -18 20 -18 21 0 59 17 34 17 40 4 55 -8 9 -13 19 -10 22 3 3 -1 18
-9 34 -10 17 -12 31 -6 34 6 4 -3 19 -19 34 -24 23 -36 27 -72 24 l-44 -3 1
-55 c1 -56 22 -150 42 -186 14 -26 16 -130 4 -224 -5 -41 -6 -77 -2 -80 10 -8
6 -60 -5 -57 -5 2 -14 13 -20 25 -5 12 -23 26 -40 32 -102 38 -157 73 -148 96
3 8 -3 17 -13 20 -27 10 -64 45 -64 60 0 8 -13 20 -30 29 -16 9 -30 19 -30 23
0 4 -11 20 -25 36 -24 28 -30 48 -26 93 1 17 -2 21 -14 17 -10 -4 -15 0 -15
10 0 9 4 15 9 14 5 -2 22 9 39 24 50 44 72 51 169 52 69 0 93 4 93 13 0 7 4
13 10 13 6 0 6 9 0 25 -5 14 -7 25 -3 25 3 0 -6 12 -21 26 -14 15 -26 30 -26
34 0 10 -57 30 -79 29 -9 -1 -25 -4 -36 -8z m-2874 -448 c57 -39 99 -91 99
-120 0 -13 6 -26 14 -29 22 -8 29 -101 13 -170 -14 -59 -41 -114 -57 -114 -4
0 -15 -19 -26 -42 -22 -53 -67 -99 -123 -127 -22 -12 -41 -26 -41 -31 0 -11
-90 -4 -136 11 -21 6 -36 20 -44 40 -10 22 -15 27 -21 17 -5 -7 -9 -8 -9 -2 0
6 -9 21 -20 34 -12 13 -18 30 -16 37 3 7 0 13 -6 13 -6 0 -5 7 5 18 11 12 14
32 12 67 -2 27 1 58 6 67 6 12 6 25 -1 38 -7 14 -7 20 0 20 5 0 10 9 10 20 0
11 8 28 18 38 25 27 55 82 43 82 -5 0 -15 -8 -20 -17 -9 -15 -10 -14 -11 10 0
23 4 27 26 27 25 0 26 2 21 36 -7 41 9 64 45 67 13 0 29 9 36 19 11 16 62 25
118 22 11 0 41 -15 65 -31z"/>
<path d="M6795 10998 c-27 -11 -57 -25 -65 -32 -8 -7 -23 -16 -33 -19 -23 -9
-77 -95 -77 -124 0 -13 9 -42 21 -65 13 -26 18 -49 14 -66 -22 -90 -26 -326
-6 -385 19 -57 67 -107 101 -107 16 0 32 -4 35 -10 9 -14 38 -12 71 5 16 8 39
15 50 15 41 0 115 42 169 95 30 30 55 58 55 64 0 6 7 11 15 11 16 0 18 8 16
50 -1 18 1 21 7 11 7 -9 16 5 32 53 18 55 21 81 17 146 -3 43 -11 88 -17 100
-6 12 -9 24 -6 27 8 8 -43 85 -82 122 -54 50 -126 86 -253 125 -7 2 -36 -5
-64 -16z m209 -174 c9 -3 16 -12 16 -19 0 -8 13 -23 29 -34 40 -29 80 -116 74
-161 -11 -80 -46 -132 -135 -199 -69 -51 -108 -71 -139 -71 -11 0 -30 -7 -43
-15 -21 -14 -23 -14 -32 7 -6 13 -11 57 -13 98 -1 41 -4 88 -7 103 -2 16 -1
26 4 23 4 -2 9 7 10 20 1 14 9 38 17 54 9 17 13 30 9 30 -3 0 8 19 25 42 23
31 28 44 18 50 -8 5 -5 8 9 8 11 0 24 3 28 8 4 4 22 7 39 7 27 0 32 4 30 22
-2 19 6 26 39 32 3 0 13 -2 22 -5z"/>
<path d="M11413 11021 c-34 -3 -64 -9 -68 -13 -6 -5 -9 -53 -6 -85 0 -6 14
-24 29 -40 l28 -28 2 -181 2 -181 -35 -24 c-44 -30 -45 -59 -5 -96 26 -25 32
-39 42 -113 6 -47 11 -125 10 -175 -3 -152 44 -237 101 -184 11 10 30 19 42
19 12 0 30 6 40 14 19 14 19 15 -2 77 -19 54 -43 247 -43 340 0 19 12 26 98
61 17 7 32 16 32 20 0 14 84 48 118 48 37 0 62 22 121 106 19 27 41 54 47 60
11 8 8 23 -11 70 -29 73 -79 133 -156 185 -32 22 -59 43 -59 48 0 5 -33 18
-72 30 -40 12 -88 28 -106 36 -34 16 -46 16 -149 6z m250 -187 c57 -28 191
-160 183 -181 -3 -6 -27 -22 -53 -34 -26 -12 -60 -30 -75 -40 -15 -11 -46 -23
-70 -28 -24 -5 -53 -13 -65 -16 -18 -6 -24 -1 -38 31 -8 21 -12 40 -7 43 12 8
12 29 1 144 -5 55 -6 103 -3 109 9 14 65 1 127 -28z"/>
<path d="M12115 11010 c-51 -12 -99 -36 -120 -59 -17 -20 -18 -25 -6 -54 7
-18 14 -41 15 -52 1 -11 7 -30 14 -43 8 -13 11 -35 7 -51 -3 -16 -1 -83 5
-151 l10 -122 -25 -30 c-14 -16 -25 -34 -25 -39 0 -6 16 -35 35 -65 l35 -54
-2 -153 c-2 -157 1 -172 44 -221 17 -19 18 -19 42 7 26 28 50 35 61 17 4 -6
10 -8 14 -5 13 8 22 67 12 79 -5 6 -11 45 -14 86 -4 41 -8 105 -11 142 -5 60
-3 70 16 88 12 11 35 20 53 20 33 0 163 64 171 84 2 6 33 34 69 61 49 38 63
54 58 69 -3 10 1 22 7 26 7 5 17 34 21 67 7 49 5 64 -12 98 -20 39 -175 195
-194 195 -9 0 -88 29 -152 56 -33 15 -80 16 -128 4z m168 -191 c29 -11 62 -25
73 -29 34 -13 76 -74 70 -101 -11 -61 -21 -86 -45 -110 -14 -14 -34 -37 -43
-51 -9 -14 -27 -28 -40 -31 -13 -3 -40 -10 -60 -15 -41 -11 -85 9 -71 31 4 7
8 73 9 147 1 138 10 180 40 180 8 0 39 -9 67 -21z"/>
<path d="M12677 10935 c-20 -28 -15 -93 9 -102 20 -7 37 -70 31 -112 -7 -46
19 -230 37 -260 6 -10 9 -221 3 -306 -1 -11 2 -52 6 -90 6 -66 5 -71 -16 -84
-12 -8 -42 -19 -66 -26 -57 -14 -68 -32 -53 -84 24 -78 89 -88 205 -31 45 22
96 49 112 60 17 10 36 19 43 19 11 1 58 32 106 71 11 8 36 32 56 53 20 20 42
37 48 37 7 0 12 6 12 14 0 8 7 16 15 20 8 3 15 14 15 24 0 10 4 22 9 28 6 5
12 20 15 34 4 23 17 63 37 116 10 28 -14 152 -40 202 -11 21 -35 52 -53 68
-18 16 -32 36 -30 45 2 9 -10 24 -25 34 -15 10 -44 35 -64 54 -20 20 -76 61
-124 91 -48 30 -91 63 -96 72 -5 10 -18 18 -28 18 -10 0 -24 7 -31 15 -7 9
-20 13 -30 10 -9 -3 -24 3 -35 15 -24 27 -46 25 -68 -5z m253 -300 c7 -8 18
-15 24 -15 16 0 139 -129 153 -160 29 -63 37 -99 27 -122 -6 -13 -7 -40 -4
-60 5 -27 3 -39 -7 -42 -8 -3 -19 -19 -24 -36 -12 -34 -122 -130 -149 -130
-22 0 -45 26 -31 35 6 3 8 24 5 48 -3 23 -7 88 -9 145 -2 57 -7 115 -11 130
-4 15 -8 56 -10 92 -1 36 -5 80 -9 98 -6 28 -5 32 13 32 11 0 25 -7 32 -15z"/>
<path d="M14641 10936 c-7 -8 -25 -18 -41 -21 -16 -3 -31 -13 -34 -20 -3 -8
-12 -12 -20 -9 -8 3 -17 -2 -20 -13 -3 -11 -22 -26 -42 -33 -20 -8 -46 -26
-58 -41 -12 -14 -26 -28 -32 -30 -17 -7 -114 -116 -114 -127 0 -7 -4 -12 -10
-12 -5 0 -10 -7 -10 -15 0 -9 -18 -40 -40 -69 -22 -29 -40 -60 -40 -68 0 -8
-9 -23 -19 -32 -22 -20 -33 -83 -32 -178 1 -67 10 -93 69 -188 21 -34 166
-149 189 -150 6 0 13 -4 15 -9 3 -10 143 -71 162 -71 7 0 30 -13 52 -29 71
-52 217 -48 299 9 34 23 54 30 93 30 39 0 53 5 72 25 13 14 29 25 36 25 16 0
37 37 29 50 -4 6 -14 9 -23 8 -11 -2 -18 5 -20 21 -4 24 -5 24 -85 17 -45 -3
-113 -13 -152 -21 -150 -32 -243 -10 -421 101 -39 24 -76 44 -82 44 -7 0 -12
8 -12 18 0 10 -7 27 -15 38 -8 10 -15 33 -15 49 0 17 -4 36 -9 44 -10 16 -2
50 36 156 27 76 34 86 135 185 137 134 121 124 206 140 40 7 75 17 78 22 3 4
13 8 22 8 17 0 42 56 34 78 -2 6 -26 27 -53 47 -53 38 -107 47 -128 21z"/>
<path d="M13515 10901 l-30 -6 -6 -145 c-7 -160 -18 -262 -28 -270 -4 -3 -16
-36 -26 -75 -10 -38 -24 -81 -32 -95 -7 -14 -13 -36 -13 -51 0 -14 -4 -29 -9
-34 -5 -6 -12 -39 -15 -75 -5 -48 -3 -71 8 -90 9 -14 20 -35 25 -47 16 -35 27
-34 40 3 12 33 33 44 46 24 10 -16 43 -11 49 8 3 9 10 63 15 118 5 58 16 116
26 134 15 29 20 31 48 25 18 -4 68 -9 112 -11 44 -1 85 -3 92 -3 10 -1 30 -74
25 -94 -1 -4 11 -58 27 -120 45 -174 85 -223 132 -163 10 13 30 27 44 30 22 6
24 10 19 34 -4 15 -10 32 -14 37 -5 6 -11 33 -15 60 -4 28 -12 55 -17 62 -5 6
-11 35 -12 65 -2 29 -7 65 -11 80 -4 16 -4 36 1 45 4 10 8 37 9 61 1 36 -2 43
-21 48 -27 7 -94 90 -94 116 0 53 -156 298 -190 298 -9 0 -21 5 -28 12 -8 8
-15 8 -26 -1 -12 -10 -23 -8 -55 8 -22 12 -42 20 -43 20 -2 -1 -16 -4 -33 -8z
m214 -350 c19 -14 22 -24 17 -45 -6 -24 -10 -26 -56 -24 -28 1 -49 5 -48 8 2
3 10 22 18 43 16 41 33 46 69 18z"/>
<path d="M15273 9749 c-13 -4 -51 -8 -86 -7 -38 0 -74 -5 -92 -14 -21 -11 -50
-14 -94 -11 -46 2 -75 -1 -99 -13 -29 -14 -41 -14 -78 -4 -24 7 -56 10 -72 7
-15 -3 -57 -2 -93 3 -50 6 -80 4 -120 -8 -30 -8 -71 -16 -93 -17 -21 -2 -43
-8 -48 -13 -7 -7 -19 -7 -37 0 -14 6 -68 10 -121 8 -98 -3 -257 -3 -345 1 -27
1 -101 -5 -164 -14 -76 -10 -124 -12 -145 -6 -47 14 -160 13 -184 -2 -16 -10
-29 -10 -56 -2 -24 8 -47 8 -73 1 -21 -5 -109 -11 -196 -13 -86 -2 -162 -7
-168 -11 -6 -3 -14 -2 -18 4 -5 9 -69 15 -133 12 -31 -1 -291 -10 -413 -14
-55 -2 -112 -9 -128 -15 -19 -8 -34 -7 -51 0 -17 8 -34 8 -53 2 -15 -6 -59 -8
-98 -6 -38 2 -117 6 -175 9 -58 4 -161 6 -230 5 l-125 -1 -28 -30 c-21 -22
-37 -30 -65 -31 -20 0 -48 -2 -62 -4 -62 -7 -187 -8 -198 -1 -7 4 -26 4 -43 1
-41 -9 -56 -43 -41 -93 14 -46 48 -67 100 -63 20 2 53 2 72 1 42 -2 395 -4
540 -2 58 0 164 0 237 -1 112 -1 135 1 151 16 14 13 28 15 52 11 26 -6 36 -3
49 14 14 19 28 22 131 25 63 2 165 0 225 -5 175 -13 669 -16 739 -4 33 6 92 9
129 6 38 -3 77 -2 88 2 11 5 28 4 37 -1 10 -5 49 -3 97 6 64 11 93 11 142 2
34 -6 67 -8 74 -4 6 4 73 10 148 13 75 2 139 9 142 14 4 7 9 6 13 -1 9 -14
200 -15 226 -1 18 10 56 11 175 7 28 0 111 2 185 6 104 5 136 10 143 22 6 12
13 13 28 4 13 -6 45 -8 85 -3 36 3 118 8 182 10 140 4 218 10 232 19 5 3 10
14 10 24 0 10 9 30 20 44 22 27 26 47 10 47 -6 0 -15 11 -19 24 -10 26 -56 40
-97 30 -13 -4 -30 -2 -37 4 -20 15 -60 21 -84 11z"/>
<path d="M5551 8947 c-12 -19 -20 -49 -19 -69 1 -19 -6 -50 -15 -68 -10 -18
-17 -47 -17 -65 0 -17 -9 -41 -20 -53 -11 -12 -20 -26 -20 -32 0 -6 -11 -26
-25 -44 -14 -18 -25 -42 -25 -53 0 -11 -6 -26 -14 -32 -7 -6 -25 -38 -40 -70
-14 -32 -33 -64 -41 -71 -11 -9 -14 -22 -10 -41 5 -21 2 -30 -14 -38 -11 -6
-23 -21 -26 -33 -4 -13 -17 -39 -30 -58 -20 -30 -22 -41 -16 -78 5 -23 16 -51
25 -61 14 -15 15 -23 5 -43 -9 -21 -8 -30 5 -51 20 -30 62 -38 148 -28 35 4
113 7 173 7 l110 -1 7 -60 c3 -33 14 -80 23 -105 9 -25 20 -60 25 -78 4 -19
23 -70 40 -115 18 -45 41 -102 50 -127 10 -25 21 -63 25 -85 4 -22 15 -51 24
-65 9 -14 21 -45 28 -70 21 -80 55 -174 73 -200 10 -14 26 -51 36 -82 10 -32
21 -58 25 -58 13 0 69 -96 69 -118 0 -11 5 -24 10 -27 6 -3 10 -18 10 -31 0
-14 15 -44 33 -67 19 -23 45 -68 58 -101 13 -32 29 -61 36 -63 14 -5 153 -224
153 -240 0 -5 69 -77 153 -160 83 -83 186 -187 227 -232 103 -110 133 -115
213 -35 25 24 28 34 24 68 -4 30 -16 48 -54 82 -26 24 -56 43 -66 44 -9 0 -16
3 -15 8 1 4 -8 24 -21 44 -15 24 -27 35 -37 31 -10 -4 -17 2 -21 16 -3 12 -13
21 -24 21 -11 0 -19 4 -19 9 0 6 -36 45 -80 88 -44 43 -83 86 -86 96 -3 9 -11
17 -19 17 -7 0 -23 21 -34 46 -12 25 -30 48 -39 51 -20 6 -121 155 -126 186
-1 12 -8 23 -14 25 -7 2 -12 10 -12 18 0 8 -5 14 -10 14 -6 0 -10 6 -9 13 3
21 -34 97 -47 97 -8 0 -11 6 -8 15 7 18 -12 20 -19 3 -3 -7 -5 -2 -4 12 1 37
-53 183 -74 196 -6 3 -15 16 -20 27 -5 12 -17 36 -28 52 -10 17 -16 37 -14 46
3 9 -10 30 -27 47 -17 18 -27 32 -21 32 8 0 6 11 -4 30 -8 16 -15 36 -15 44 0
8 -4 16 -9 18 -6 2 -12 14 -15 28 -7 38 -35 112 -52 138 -8 12 -12 27 -9 32 3
5 1 11 -5 15 -5 3 -10 -2 -11 -12 0 -16 -1 -16 -8 2 -5 11 -7 23 -5 26 11 20
12 89 1 96 -18 12 -47 68 -47 92 0 12 -7 24 -15 27 -9 4 -15 20 -15 43 0 27
-3 32 -10 21 -5 -8 -10 -13 -11 -10 -3 11 -6 140 -3 140 1 0 37 -5 79 -11 l76
-10 34 36 c30 34 32 40 23 69 -6 17 -17 40 -25 51 -7 11 -13 27 -13 37 0 9 -7
23 -15 32 -9 8 -23 46 -32 83 -10 40 -25 76 -37 86 -17 15 -21 29 -19 73 1 29
-2 56 -7 59 -5 3 -7 12 -4 20 4 8 -3 31 -15 50 -12 20 -21 43 -21 51 0 8 -6
13 -12 12 -7 -2 -12 3 -10 10 1 6 -1 11 -5 11 -26 -4 -33 3 -27 26 4 18 1 32
-11 45 -9 10 -15 23 -12 28 8 12 -72 172 -89 179 -8 3 -13 12 -10 20 3 8 -2
16 -12 19 -9 3 -25 10 -34 15 -38 20 -75 11 -97 -24z m-70 -768 c11 -5 17 -14
14 -19 -8 -13 -45 0 -45 16 0 17 5 17 31 3z"/>
<path d="M23658 8802 c-8 -10 -22 -69 -32 -132 -10 -63 -27 -155 -38 -205 -11
-49 -21 -107 -22 -127 0 -21 -4 -38 -8 -38 -12 0 -36 -52 -43 -92 -4 -21 -13
-42 -21 -49 -8 -6 -15 -32 -15 -58 -1 -25 -3 -38 -6 -28 -2 9 -9 15 -14 12
-13 -9 -11 -45 2 -45 6 0 -2 -15 -18 -33 -16 -18 -40 -60 -53 -93 -13 -32 -32
-68 -42 -78 -16 -18 -22 -32 -16 -38 2 -2 -5 -14 -15 -28 -9 -13 -17 -35 -17
-47 0 -13 -5 -23 -12 -23 -28 0 -96 -92 -129 -177 -7 -17 -26 -39 -41 -48 -16
-9 -25 -21 -22 -27 4 -6 0 -16 -8 -22 -9 -7 -18 -25 -20 -40 -2 -17 -20 -47
-45 -73 -24 -24 -43 -48 -43 -53 0 -6 -18 -29 -39 -51 -22 -24 -37 -48 -34
-56 3 -8 -2 -16 -13 -19 -17 -5 -70 -65 -99 -113 -5 -9 -12 -18 -15 -21 -17
-16 -129 -159 -139 -177 -6 -12 -25 -30 -42 -40 -22 -13 -29 -24 -26 -40 3
-16 -1 -23 -17 -25 -11 -2 -30 -18 -41 -35 -11 -18 -30 -36 -42 -39 -16 -4
-23 -14 -23 -29 0 -13 -4 -27 -10 -30 -5 -3 -10 -15 -10 -26 0 -13 -12 -24
-39 -35 -21 -8 -43 -26 -49 -40 -7 -13 -17 -24 -24 -24 -7 0 -39 -27 -71 -60
-31 -33 -61 -60 -66 -60 -4 0 -29 17 -56 38 -40 31 -56 37 -99 38 -28 0 -67 4
-87 8 -27 6 -43 4 -62 -9 -28 -18 -40 -48 -25 -63 7 -7 3 -21 -13 -44 -13 -18
-23 -34 -21 -35 6 -7 0 -21 -15 -39 -24 -27 -43 -61 -43 -77 0 -7 -11 -23 -25
-35 -14 -12 -26 -29 -26 -37 -3 -32 -28 -85 -73 -155 -20 -30 -36 -67 -36 -82
0 -15 -5 -28 -11 -28 -7 0 -8 -7 -4 -17 4 -10 8 -22 9 -28 7 -33 19 -54 34
-60 29 -12 214 -15 228 -4 7 6 28 9 47 8 19 -2 41 1 48 7 33 26 130 66 165 68
22 2 57 13 79 25 22 11 49 21 60 21 29 0 86 38 92 61 3 10 10 19 15 19 21 0
-4 125 -38 185 l-33 59 42 46 c23 26 57 64 76 86 19 21 60 67 92 102 33 34 59
65 59 70 0 4 9 13 19 19 11 7 34 34 52 60 18 26 51 66 74 89 23 22 44 45 46
51 5 13 65 87 105 130 17 18 39 48 50 68 10 19 26 38 36 41 9 3 20 13 23 24 3
10 12 21 20 24 8 3 15 12 15 20 0 7 6 16 13 19 7 3 31 31 52 63 22 33 44 64
50 69 25 24 95 143 95 163 0 11 5 24 10 27 6 4 20 27 32 51 11 25 28 49 38 54
10 5 20 27 24 50 5 34 10 40 31 40 18 0 25 5 25 18 0 11 9 27 21 38 12 10 32
40 44 65 13 25 37 60 55 79 17 18 29 41 28 50 -2 9 2 23 8 31 17 21 84 149 84
161 0 5 10 23 21 40 12 16 22 42 23 56 1 15 5 33 9 40 5 6 5 17 2 23 -4 6 0
16 8 22 14 11 18 26 33 130 4 20 10 40 15 43 5 3 9 16 9 29 0 13 4 26 9 29 4
3 11 38 15 78 3 39 12 79 20 87 7 9 18 58 25 110 l12 94 -33 31 c-39 35 -98
44 -120 18z"/>
<path d="M9507 5629 c-24 -6 -263 -12 -347 -8 -14 1 -92 1 -175 0 -82 0 -177
1 -210 3 -33 1 -73 -1 -90 -5 -27 -7 -106 -13 -300 -25 -156 -9 -263 -14 -290
-13 -60 3 -301 -9 -324 -17 -7 -2 -20 1 -27 7 -16 13 -100 7 -208 -16 -48 -10
-74 -11 -88 -4 -11 6 -38 7 -66 3 -26 -4 -119 -7 -207 -8 -165 -1 -202 -8
-310 -57 -52 -23 -121 -38 -167 -36 -45 3 -53 -12 -36 -59 9 -25 21 -37 47
-46 54 -18 150 -16 190 5 19 9 51 17 72 17 21 0 41 4 44 10 3 5 38 10 78 10
40 0 101 3 137 6 80 7 96 7 140 4 45 -2 181 8 245 19 28 5 131 8 230 6 99 -1
259 2 355 7 96 5 206 11 244 13 37 2 82 7 100 11 17 4 70 7 118 7 49 -1 91 3
94 8 4 7 10 6 18 0 11 -10 42 -11 286 -10 179 0 227 4 245 19 11 9 19 9 28 2
18 -15 82 -15 145 0 41 9 60 10 85 0 21 -8 33 -9 35 -2 5 13 63 13 99 -1 15
-6 44 -11 63 -11 19 1 51 -3 70 -8 65 -17 114 -20 315 -19 426 1 507 -1 1155
-26 52 -2 136 -9 185 -15 56 -8 144 -10 232 -6 154 6 173 3 173 -24 0 -10 14
-33 31 -51 32 -34 32 -34 117 -31 49 1 105 10 131 19 27 10 81 18 131 19 473
12 635 12 647 2 9 -7 13 -37 13 -93 0 -47 4 -85 10 -87 14 -4 23 -164 35 -623
4 -143 12 -254 21 -293 16 -74 19 -284 3 -313 -7 -15 -7 -24 1 -34 7 -8 12
-80 15 -192 2 -98 8 -225 14 -283 12 -126 14 -250 3 -268 -5 -7 -31 -15 -58
-17 -27 -3 -58 -8 -69 -11 -24 -8 -82 -13 -220 -18 -65 -2 -128 -10 -155 -20
-25 -9 -60 -16 -79 -16 -31 0 -92 -11 -242 -46 -36 -8 -73 -12 -81 -9 -9 4
-58 2 -110 -4 -51 -7 -140 -13 -198 -16 -58 -2 -125 -7 -150 -9 -25 -3 -72 -8
-105 -11 -32 -4 -64 -9 -70 -13 -5 -4 -53 -7 -105 -8 -52 -1 -146 -6 -208 -12
-65 -6 -123 -7 -136 -3 -12 5 -29 5 -38 0 -15 -8 -33 -9 -108 -7 -19 1 -71 1
-115 1 -44 -1 -147 -1 -230 -2 -82 0 -172 -3 -200 -6 -68 -7 -56 -6 -282 -4
-112 1 -203 6 -203 10 0 4 -15 4 -32 0 -43 -9 -483 -6 -526 3 -21 5 -45 3 -63
-5 -23 -9 -33 -9 -42 0 -6 6 -26 11 -44 11 -18 0 -41 5 -51 11 -13 8 -30 7
-68 -4 -30 -9 -56 -11 -66 -6 -8 4 -66 8 -129 7 -96 -1 -145 3 -187 14 -4 1
-17 -3 -30 -10 -17 -10 -32 -11 -55 -3 -34 10 -116 14 -262 12 -225 -2 -265
-2 -336 7 -43 5 -82 13 -88 17 -7 4 -18 2 -26 -5 -7 -6 -19 -10 -27 -9 -11 2
-65 -1 -266 -16 -24 -2 -49 -8 -56 -14 -7 -6 -15 -9 -18 -6 -3 3 -59 8 -124
10 -120 5 -170 9 -256 21 -31 4 -71 0 -115 -11 -75 -20 -195 -23 -201 -6 -2 6
-11 11 -21 11 -13 0 -19 16 -29 77 -6 42 -15 79 -19 82 -5 3 -9 22 -9 41 -4
111 -9 156 -19 162 -6 5 -6 8 3 8 6 0 12 7 12 16 0 8 -4 12 -10 9 -5 -3 -10 3
-10 14 0 11 5 23 10 26 17 10 11 25 -7 18 -17 -6 -17 -5 0 14 21 24 22 43 2
43 -12 0 -15 7 -10 33 12 67 3 152 -20 177 -10 11 -14 24 -10 29 3 6 7 62 7
123 1 62 4 123 9 135 5 14 2 39 -10 70 -13 37 -16 69 -13 138 7 131 6 162 -2
245 -4 41 -9 107 -11 145 -2 39 -8 83 -14 98 -6 16 -11 43 -11 62 0 19 -4 45
-10 59 -5 14 -12 60 -15 103 -3 43 -8 98 -11 123 -2 25 -4 78 -4 118 0 41 -5
83 -11 93 -7 13 -6 19 1 19 6 0 8 14 4 38 -4 20 -7 53 -8 72 -1 36 -47 100
-72 100 -6 0 -14 6 -17 14 -8 20 -43 9 -60 -18 -17 -25 -39 -150 -30 -172 3
-8 0 -14 -6 -14 -19 0 -12 -14 18 -34 28 -19 29 -22 33 -127 2 -59 9 -114 15
-121 6 -8 7 -40 2 -88 -8 -86 -2 -253 12 -290 5 -14 11 -56 14 -95 2 -38 8
-88 14 -109 5 -22 10 -109 10 -195 1 -86 1 -167 2 -181 0 -14 0 -47 -1 -75 0
-27 4 -72 10 -100 5 -27 12 -118 15 -202 3 -83 10 -184 15 -224 6 -40 8 -80 5
-90 -4 -10 -2 -27 4 -37 17 -31 29 -290 20 -419 -4 -57 -2 -65 22 -88 24 -25
32 -26 160 -31 98 -4 155 -1 214 10 44 9 96 16 116 16 34 0 37 -2 43 -37 3
-21 6 -52 6 -69 0 -37 23 -95 43 -112 31 -26 71 -24 119 7 64 41 176 61 283
50 44 -4 102 -5 129 -2 36 4 52 2 60 -8 28 -36 76 -43 132 -21 38 15 254 33
274 22 8 -4 26 -8 40 -9 118 -1 588 -10 600 -10 8 0 85 0 170 0 155 1 277 -5
380 -19 30 -4 69 -5 85 -2 17 3 48 2 70 -3 22 -4 69 -7 105 -6 36 2 86 -1 111
-5 30 -5 54 -4 68 3 11 6 39 12 61 14 22 1 40 5 40 10 0 14 33 7 45 -10 12
-16 16 -16 51 -2 30 12 80 15 224 14 102 -1 195 -5 207 -9 12 -4 50 0 84 9 35
9 70 16 78 16 133 -3 264 0 296 6 22 4 87 7 145 6 58 0 159 -1 225 0 66 1 196
0 290 -1 114 -2 177 1 192 9 16 8 44 9 112 1 59 -7 101 -8 123 -1 18 5 46 6
62 3 19 -4 31 -2 37 7 6 11 13 11 26 3 19 -11 75 -8 253 16 47 6 95 8 107 5
12 -3 25 0 28 5 4 6 21 10 38 9 18 -1 52 5 77 14 25 8 86 18 135 22 50 4 106
9 125 12 19 2 61 6 93 8 32 2 66 6 75 9 9 3 42 2 72 -3 52 -8 57 -7 91 20 20
16 42 29 48 29 6 0 20 18 31 40 16 31 21 61 22 132 1 51 -2 104 -5 118 -4 14
-9 41 -12 60 -3 19 -10 69 -17 110 -20 134 -25 475 -7 543 5 20 9 54 8 75 0
20 6 80 16 133 15 85 15 101 3 138 -11 31 -12 57 -6 94 6 41 22 384 20 432 -6
106 -15 189 -24 225 -18 72 -53 134 -85 149 -15 7 -35 17 -43 21 -8 4 -16 18
-18 31 -2 13 -5 30 -8 38 -4 13 -15 235 -14 301 0 36 -32 100 -50 100 -5 0
-10 7 -10 15 0 17 -58 21 -88 6 -51 -25 -108 -34 -258 -36 l-163 -3 -21 43
c-30 61 -73 80 -135 58 -44 -16 -225 -24 -225 -11 0 5 -15 6 -32 3 -18 -3 -85
-8 -148 -10 -63 -3 -151 -7 -195 -10 -44 -3 -126 -7 -181 -9 -56 -2 -106 -6
-112 -10 -6 -3 -18 1 -27 11 -14 14 -22 15 -49 5 -41 -15 -46 -15 -46 1 0 14
-61 19 -272 21 -76 0 -138 4 -138 9 0 4 -70 7 -155 7 -117 0 -155 -3 -155 -12
0 -8 -3 -9 -8 -3 -8 11 -65 12 -99 1 -14 -4 -36 -1 -58 10 -25 11 -48 14 -77
10 -88 -13 -137 -15 -142 -7 -3 5 -47 7 -98 4 -122 -5 -128 -6 -128 -15 0 -13
-22 -9 -40 7 -17 15 -67 21 -235 29 -33 2 -60 4 -60 5 0 6 -195 6 -218 0z
m2583 -2795 c11 -12 11 -18 -2 -31 -19 -18 -38 -10 -38 16 0 33 20 40 40 15z
m-210 -9 c0 -9 -10 -19 -22 -24 -29 -11 -32 -8 -16 18 15 24 38 28 38 6z"/>
<path d="M22865 5453 c-76 -10 -135 -34 -157 -64 -22 -29 -24 -29 -95 -25 -39
2 -77 7 -83 11 -18 11 -210 7 -224 -4 -8 -7 -98 -10 -242 -9 -226 1 -361 -9
-399 -29 -21 -11 -249 -9 -284 2 -11 3 -22 1 -26 -4 -4 -7 -15 -6 -33 1 -17 7
-139 13 -337 15 -367 5 -509 5 -532 4 -10 -1 -128 1 -263 3 -294 7 -242 7
-385 0 -75 -3 -142 -1 -177 7 -40 8 -62 9 -70 1 -7 -5 -33 -11 -58 -13 -25 -1
-53 -7 -63 -12 -13 -6 -24 -4 -38 9 -17 15 -25 16 -51 6 -22 -8 -36 -8 -51 -1
-27 15 -248 17 -254 3 -5 -13 -60 -16 -68 -4 -3 4 -67 9 -143 10 -162 3 -152
3 -222 -5 -30 -4 -98 -6 -150 -4 -162 4 -681 1 -765 -6 -44 -3 -91 -10 -105
-16 -14 -5 -52 -9 -85 -9 -95 1 -209 -4 -220 -11 -13 -7 -58 -5 -73 4 -21 14
-85 11 -96 -4 -13 -16 -66 -22 -82 -8 -8 6 -34 6 -71 0 -33 -5 -81 -7 -106 -4
-32 3 -58 -1 -79 -12 -21 -10 -34 -12 -36 -5 -4 11 -120 14 -146 4 -31 -12
-37 -73 -16 -159 11 -44 20 -97 20 -117 0 -21 6 -52 14 -70 8 -18 22 -67 31
-108 9 -41 19 -82 22 -90 7 -20 11 -78 17 -249 4 -117 8 -146 20 -153 18 -10
21 -44 6 -53 -6 -4 -10 -21 -10 -38 2 -65 -13 -361 -26 -512 -3 -44 -21 -542
-21 -595 0 -25 -1 -108 -2 -185 -1 -97 2 -156 12 -192 8 -28 12 -54 9 -58 -9
-9 -2 -108 10 -122 8 -11 17 -9 42 6 24 15 35 17 50 9 16 -9 23 -7 37 11 24
29 49 27 49 -4 0 -18 -7 -28 -25 -35 -25 -9 -35 -40 -14 -40 23 0 70 36 76 58
3 13 1 51 -5 85 -5 34 -8 65 -6 69 2 3 61 6 132 6 127 -1 218 7 259 23 32 12
47 -11 35 -55 -12 -41 3 -68 50 -92 25 -13 35 -13 59 -3 21 8 55 10 112 5 112
-10 227 -8 317 5 41 6 98 13 125 15 28 2 70 6 95 8 25 3 81 5 125 4 44 0 168
0 275 2 497 6 1561 -3 1579 -14 6 -4 21 -1 33 5 13 7 66 14 118 17 52 2 118 6
145 9 28 3 84 7 125 8 41 2 77 4 80 5 3 2 9 2 13 1 5 -1 16 7 25 18 15 18 35
20 207 26 173 7 220 7 324 6 19 0 42 4 53 10 10 5 78 12 151 16 72 3 140 9
149 14 9 5 24 6 32 3 9 -4 22 -1 30 5 7 6 48 16 90 21 42 5 84 14 94 19 9 5
42 12 72 16 30 4 98 16 150 28 90 19 137 24 255 27 28 0 65 5 82 11 30 9 262
19 456 18 44 0 97 6 125 15 35 12 77 15 162 13 84 -3 119 0 131 10 11 9 24 10
50 3 47 -14 105 -12 137 3 18 9 61 13 126 12 98 -2 101 -1 128 27 15 16 28 35
28 43 0 7 9 16 19 20 25 8 34 32 20 57 -6 11 -8 30 -5 43 3 12 2 45 -3 71 -6
33 -6 53 2 62 7 10 7 27 -2 62 -13 52 -17 229 -6 280 4 18 2 36 -4 44 -6 7
-10 31 -9 53 0 22 -2 45 -7 52 -4 7 -9 67 -10 133 -2 66 -6 123 -9 126 -3 3
-1 11 4 17 6 8 7 23 1 41 -15 47 -21 93 -13 98 5 3 7 52 5 110 -1 58 1 115 6
127 11 32 -21 200 -51 265 -5 11 -8 24 -7 30 2 5 -5 36 -15 69 -10 33 -21 71
-24 84 -4 14 -21 33 -37 43 -26 15 -37 16 -68 6 -24 -7 -41 -8 -47 -2 -10 10
-18 69 -26 179 -5 92 -30 204 -49 225 -8 9 -15 25 -15 36 0 10 -4 26 -10 34
-8 12 -14 12 -45 -3 -20 -9 -41 -17 -48 -17 -17 0 -52 -64 -61 -108 -6 -34 15
-100 35 -113 6 -3 12 -40 13 -81 2 -41 9 -85 15 -97 7 -12 12 -59 13 -104 0
-47 6 -97 14 -116 8 -19 12 -42 8 -50 -11 -25 -13 -91 -3 -91 5 0 8 -19 7 -42
-2 -62 12 -129 28 -135 10 -4 14 -21 13 -57 -1 -59 14 -157 36 -236 9 -30 20
-77 24 -105 5 -27 14 -68 19 -90 11 -39 9 -96 -4 -198 -4 -31 -2 -53 5 -60 15
-15 14 -27 -3 -27 -14 0 -34 -76 -22 -87 3 -3 -1 -18 -9 -33 -10 -20 -13 -60
-10 -160 1 -74 1 -140 -2 -147 -3 -8 -19 -10 -52 -6 -31 3 -51 1 -55 -6 -4 -6
-18 -11 -32 -11 -14 0 -33 -7 -41 -16 -11 -11 -25 -14 -47 -9 -100 20 -356 6
-401 -23 -12 -8 -20 -9 -135 -12 -74 -2 -105 -7 -170 -28 -30 -9 -66 -13 -137
-12 -39 1 -100 -6 -135 -14 -34 -9 -73 -14 -86 -12 -12 3 -48 1 -80 -4 -31 -5
-77 -11 -102 -14 -25 -2 -65 -9 -90 -15 -25 -5 -92 -11 -150 -12 -58 -1 -112
-5 -121 -10 -9 -5 -111 -11 -226 -13 -165 -4 -218 -9 -249 -22 -21 -9 -61 -19
-89 -22 -27 -2 -55 -9 -62 -14 -7 -5 -14 -5 -18 2 -9 14 -65 12 -114 -4 -22
-8 -67 -15 -98 -15 -73 0 -272 -9 -383 -17 -47 -4 -94 -7 -105 -7 -11 0 -56 1
-100 2 -44 0 -100 -1 -125 -2 -258 -17 -308 -19 -344 -9 -22 6 -44 8 -49 5
-11 -7 -501 -15 -719 -13 -76 1 -128 -3 -128 -8 0 -6 -14 -7 -35 -2 -19 4 -35
4 -35 0 0 -4 -11 -5 -24 -3 -13 3 -27 0 -30 -6 -9 -13 -53 -15 -60 -2 -4 5
-23 12 -44 15 -64 11 -390 15 -422 6 -17 -5 -32 -5 -35 0 -8 13 -173 6 -187
-8 -8 -8 -17 -8 -31 0 -13 6 -56 8 -121 4 -56 -4 -112 -6 -126 -6 -14 0 -128
2 -255 5 -126 3 -256 5 -287 4 -74 0 -100 22 -97 84 1 23 -1 114 -5 202 -4 88
-7 257 -8 375 -1 118 -5 226 -10 239 -6 16 -4 31 4 45 12 19 15 265 8 471 -1
22 0 96 2 165 3 88 -2 161 -15 245 -10 66 -25 167 -33 225 -8 57 -17 112 -20
122 -10 33 14 37 431 62 44 3 112 10 150 16 39 6 102 10 140 10 67 -2 171 3
315 15 36 2 97 4 135 3 77 -2 92 -2 247 5 70 4 114 10 130 21 20 13 29 13 78
-1 126 -35 160 -39 160 -19 0 23 8 24 120 14 58 -5 139 -8 180 -7 41 1 97 1
125 1 27 -1 52 3 55 8 3 6 27 4 55 -4 56 -14 135 -14 239 2 58 9 75 8 100 -5
23 -12 48 -14 111 -9 52 4 85 2 92 -5 17 -17 78 3 78 26 0 27 21 29 55 5 32
-23 110 -35 215 -33 28 1 75 1 105 1 30 0 63 1 73 1 33 3 82 3 255 -2 147 -4
175 -3 188 10 13 13 24 14 67 5 29 -6 90 -13 137 -16 47 -3 92 -8 102 -11 11
-4 18 0 23 14 5 18 15 21 59 21 30 0 71 -7 92 -16 54 -23 616 -27 652 -5 19
12 32 12 73 3 36 -9 56 -9 70 -2 11 6 24 8 29 5 6 -4 88 -8 182 -10 128 -3
174 -1 180 8 6 9 12 9 28 -1 13 -8 38 -10 70 -7 27 3 68 1 90 -5 22 -6 86 -13
142 -15 57 -3 152 -12 212 -20 60 -9 115 -14 123 -11 9 4 13 16 11 33 -3 23 2
29 30 37 40 11 63 -4 42 -29 -10 -12 -10 -19 -2 -27 9 -9 18 -6 37 12 34 32
33 59 -7 146 -6 12 -7 39 -4 60 7 38 6 39 -36 57 -41 16 -77 19 -143 10z"/>
<path d="M19110 4571 c-40 -8 -87 -36 -99 -60 -9 -18 -8 -49 4 -106 11 -58 23
-75 50 -75 37 0 46 -47 56 -285 2 -39 -8 -202 -12 -210 -3 -6 -5 -58 -5 -117
l1 -108 -30 -1 c-16 -1 -36 -1 -42 0 -7 1 -13 -3 -13 -9 0 -5 -11 -10 -25 -10
-15 0 -31 -9 -41 -25 -15 -23 -15 -27 -1 -49 39 -60 146 -80 272 -52 169 38
251 70 283 111 11 14 24 25 28 25 16 0 94 85 94 102 0 10 5 18 10 18 14 0 27
36 51 142 18 84 18 95 5 168 -9 43 -27 98 -40 123 -14 25 -32 65 -41 90 -11
32 -39 69 -105 135 -49 50 -90 95 -90 101 0 6 -8 11 -17 11 -10 0 -40 15 -68
34 -27 19 -62 36 -77 38 -15 2 -30 7 -34 11 -9 8 -66 7 -114 -2z m105 -150
c17 -7 38 -17 47 -22 10 -5 24 -9 32 -9 8 0 41 -22 72 -50 31 -27 61 -50 65
-50 5 0 11 -11 15 -25 3 -14 10 -25 14 -25 5 0 12 -10 15 -22 4 -13 18 -35 31
-49 27 -28 43 -93 51 -202 4 -55 1 -77 -17 -113 -11 -25 -23 -59 -27 -75 -6
-33 -76 -100 -136 -131 -22 -11 -58 -20 -80 -21 l-42 -2 -3 40 c-2 22 -7 44
-11 48 -5 5 -5 25 0 45 12 52 9 180 -4 210 -9 20 -9 26 1 30 17 5 15 54 -4
102 -16 40 -16 42 5 57 21 14 22 21 19 117 -3 98 -15 135 -38 121 -18 -11 -50
6 -50 26 0 11 3 19 8 17 4 -2 21 -10 37 -17z"/>
<path d="M7802 4530 c-18 -17 -21 -28 -16 -60 5 -27 2 -47 -8 -62 -15 -23 -32
-86 -49 -178 -17 -97 -30 -145 -44 -167 -9 -13 -23 -57 -33 -98 -10 -41 -27
-85 -40 -100 -12 -14 -22 -34 -22 -45 0 -11 -4 -28 -9 -38 -21 -37 -62 -139
-60 -148 3 -20 -2 -34 -12 -34 -17 0 -38 -32 -39 -58 0 -12 -4 -30 -9 -40 -27
-51 -51 -104 -51 -113 0 -15 81 -99 95 -99 23 0 34 22 22 41 -10 16 -8 23 12
41 16 16 25 19 28 11 3 -7 9 -13 14 -13 5 0 9 6 9 13 0 6 15 41 33 77 19 36
37 81 41 100 4 19 17 48 31 64 23 29 26 30 121 30 l98 1 12 -75 c7 -41 10 -93
7 -116 -4 -29 1 -55 16 -88 20 -45 22 -47 58 -44 31 2 39 7 41 26 3 21 7 23
37 18 28 -6 35 -3 40 14 4 12 1 28 -6 36 -7 9 -14 41 -15 71 -1 34 -8 59 -16
64 -7 5 -9 9 -4 9 5 0 4 6 -2 13 -18 21 1 127 26 146 39 30 30 81 -14 81 -13
0 -24 5 -24 12 0 6 -7 19 -16 29 -11 13 -13 22 -6 35 10 17 -1 66 -19 90 -5 6
0 28 11 50 15 31 18 46 11 69 -21 65 -29 139 -17 157 8 13 8 23 -1 38 -7 10
-16 45 -19 76 -4 32 -13 58 -20 61 -8 3 -14 12 -14 20 0 8 5 11 12 7 7 -4 8
-3 4 5 -4 6 -12 9 -17 6 -5 -4 -9 1 -9 9 0 9 -12 23 -27 33 -16 10 -34 23 -41
30 -21 20 -75 16 -100 -7z m99 -467 c0 -21 2 -84 4 -141 l3 -102 -32 1 c-17 1
-43 -2 -57 -5 -41 -11 -43 8 -11 77 16 34 33 77 37 95 4 18 13 45 20 59 7 14
11 32 8 39 -3 8 1 14 11 14 13 0 17 -9 17 -37z"/>
<path d="M20040 4512 c-32 -15 -60 -37 -60 -48 0 -7 -6 -14 -14 -17 -7 -3 -16
-20 -20 -38 -3 -18 -17 -45 -30 -59 -26 -28 -61 -123 -53 -145 3 -7 0 -16 -7
-18 -7 -3 -20 -27 -30 -54 -10 -26 -22 -58 -28 -70 -6 -12 -8 -29 -5 -37 3 -8
3 -18 -2 -20 -4 -3 -6 -27 -4 -55 3 -28 0 -52 -6 -56 -16 -9 -13 -62 5 -90 9
-13 13 -33 10 -43 -5 -13 2 -30 19 -50 14 -16 25 -35 25 -41 0 -6 13 -17 30
-26 28 -15 30 -14 45 9 9 14 26 26 38 28 19 3 23 11 28 59 8 74 14 82 58 76
22 -3 65 5 111 19 86 27 106 29 117 12 9 -15 23 -125 23 -177 -1 -18 7 -42 17
-53 9 -10 18 -37 19 -59 1 -26 10 -49 25 -65 41 -44 97 -23 83 31 -7 27 -6 27
35 20 37 -6 41 -5 41 13 0 11 -7 33 -15 48 -8 16 -15 39 -15 51 0 12 -4 24 -9
27 -4 3 -11 34 -14 68 -6 60 -25 123 -44 141 -10 10 -13 35 -17 157 -3 69 -10
107 -25 140 -11 25 -21 54 -21 65 0 27 -53 137 -74 154 -10 8 -24 27 -32 43
-23 45 -70 68 -134 67 -30 0 -62 -3 -70 -7z m119 -224 c21 -58 33 -95 36 -113
2 -11 14 -53 28 -94 29 -88 30 -117 2 -114 -11 1 -38 3 -60 4 -22 1 -52 7 -67
14 -26 10 -27 12 -13 39 8 16 15 42 15 58 0 16 4 37 10 47 10 20 24 112 22
154 -1 33 15 36 27 5z"/>
<path d="M21310 4502 c-17 -14 -23 -30 -25 -73 -3 -70 -19 -136 -46 -193 -12
-25 -19 -55 -16 -67 3 -12 0 -22 -9 -26 -7 -3 -19 -24 -25 -47 -5 -22 -14 -54
-19 -71 -5 -16 -14 -50 -21 -75 -6 -25 -20 -66 -30 -92 -11 -26 -23 -73 -28
-105 -10 -63 -14 -79 -25 -105 -10 -23 29 -105 56 -119 17 -9 25 -6 51 18 17
15 37 34 46 41 8 8 16 37 18 65 4 47 19 94 34 107 3 3 13 32 23 65 9 33 21 70
26 83 11 25 30 30 30 8 0 -8 14 -25 32 -37 39 -28 112 -34 171 -13 32 12 47
12 69 3 35 -14 68 -67 68 -109 0 -25 10 -42 40 -71 54 -53 71 -52 103 9 9 19
17 44 17 56 0 29 -19 86 -35 106 -7 8 -18 33 -25 55 -35 109 -46 134 -81 181
-27 37 -36 57 -32 76 6 30 -42 103 -148 226 -96 110 -169 145 -219 104z m165
-333 c77 -71 111 -172 52 -155 -12 4 -46 11 -75 15 -29 4 -57 12 -61 17 -5 5
-11 33 -13 63 -5 46 -3 54 13 58 10 3 21 14 24 24 4 10 8 19 11 19 2 0 25 -19
49 -41z"/>
<path d="M11618 4478 c-13 -10 -31 -18 -41 -18 -10 0 -25 -13 -35 -29 -9 -16
-30 -35 -47 -43 -19 -8 -31 -22 -33 -36 -2 -13 -14 -28 -26 -34 -37 -16 -53
-64 -50 -148 2 -75 36 -177 64 -195 6 -4 15 -17 20 -30 5 -13 33 -39 64 -59
30 -20 71 -57 91 -81 20 -25 41 -45 46 -45 12 0 69 -55 69 -67 0 -12 -118 -66
-129 -58 -5 3 -12 1 -16 -5 -3 -5 -14 -10 -23 -10 -9 0 -29 -7 -45 -15 -15 -8
-45 -16 -67 -18 -22 -2 -45 -9 -52 -14 -7 -6 -29 -14 -48 -18 -40 -8 -107 -40
-132 -62 -9 -8 -32 -22 -50 -31 -32 -16 -53 -62 -29 -62 6 0 11 -13 11 -30 0
-35 1 -35 41 -14 17 8 37 13 44 10 8 -3 57 17 110 44 53 28 105 50 117 50 11
0 41 6 67 14 25 8 70 20 98 26 29 7 79 25 110 42 32 17 75 39 96 49 32 17 37
24 37 54 0 18 -4 37 -10 40 -5 3 -10 17 -10 31 0 24 -52 81 -202 219 -68 64
-95 110 -108 188 -9 59 -9 62 14 82 14 11 32 35 40 53 9 17 23 32 31 32 8 0
28 18 46 39 17 22 41 41 53 43 14 2 25 15 33 41 11 34 11 39 -8 58 -13 13 -27
18 -41 13 -12 -3 -18 -2 -15 3 10 17 -62 9 -85 -9z"/>
<path d="M21050 4472 c-14 -2 -30 -8 -37 -14 -12 -10 -39 -9 -225 8 -60 5 -78
4 -78 -6 0 -8 -8 -10 -21 -7 -25 7 -131 -12 -139 -24 -3 -5 -16 -10 -28 -12
-12 -2 -28 -9 -34 -15 -7 -7 -20 -12 -30 -12 -28 0 -58 -32 -58 -61 0 -36 53
-79 97 -79 19 0 48 7 65 16 39 20 74 11 92 -24 29 -56 43 -280 36 -568 -2 -88
5 -124 23 -124 6 0 21 -9 33 -21 26 -24 44 -18 44 16 0 29 16 41 35 25 36 -30
39 12 14 203 -6 49 -7 83 -1 90 10 13 7 188 -4 247 -3 19 -8 51 -9 70 -2 19
-7 54 -13 78 l-9 42 51 0 c31 0 67 8 90 19 29 15 52 19 97 15 74 -5 113 13
134 62 19 47 19 54 -4 54 -11 0 -22 4 -25 9 -7 10 -60 17 -96 13z"/>
<path d="M10415 4448 c-8 -13 -15 -35 -15 -50 0 -16 -4 -36 -9 -46 -5 -9 -23
-46 -40 -82 -41 -84 -80 -140 -100 -140 -9 0 -28 12 -41 26 -14 14 -37 37 -52
52 -16 15 -28 31 -28 37 -1 35 -68 73 -125 70 -63 -2 -69 -27 -28 -111 26 -53
150 -194 170 -194 6 0 16 -7 23 -15 11 -13 10 -24 -1 -58 -8 -23 -13 -46 -11
-51 2 -5 -3 -16 -11 -25 -8 -9 -20 -38 -26 -65 -14 -59 -48 -136 -59 -136 -5
0 -18 9 -30 20 -21 20 -23 20 -53 4 -18 -9 -49 -14 -73 -13 -22 1 -53 -1 -67
-5 -14 -4 -49 -3 -77 2 -30 5 -56 5 -66 0 -14 -8 -16 -5 -10 16 3 15 0 38 -10
57 -9 18 -16 42 -16 54 0 12 -3 25 -7 29 -4 3 -8 12 -9 19 -1 7 -3 17 -5 22
-1 6 1 35 5 65 3 30 9 108 11 173 2 65 7 121 10 126 2 5 7 25 10 46 6 52 -17
85 -60 85 -18 0 -35 4 -37 8 -1 5 -15 12 -30 16 -22 5 -30 2 -39 -15 -9 -17
-8 -23 2 -30 10 -6 11 -11 3 -16 -19 -14 -23 -40 -14 -103 6 -39 5 -72 -2 -91
-8 -24 -7 -33 6 -48 18 -20 22 -106 6 -116 -6 -4 -8 -21 -4 -39 3 -18 7 -62 9
-97 5 -102 23 -188 53 -247 24 -49 30 -55 63 -58 19 -1 58 -11 85 -22 37 -13
57 -16 75 -10 13 5 63 6 110 3 73 -6 91 -4 113 10 14 10 26 22 26 27 0 5 8 20
17 32 l18 24 44 -31 c42 -29 45 -29 58 -11 12 16 16 17 34 6 16 -10 24 -11 35
-1 8 7 13 17 11 23 -3 6 -1 18 4 27 4 9 13 44 18 79 11 65 49 178 81 240 10
19 21 46 25 59 7 24 73 142 84 151 4 3 18 26 31 53 l25 47 6 -32 c7 -42 36
-97 55 -105 7 -3 14 -15 14 -27 0 -19 39 -66 55 -66 3 0 47 -42 99 -94 129
-130 135 -171 31 -234 -24 -15 -46 -35 -48 -44 -8 -27 -82 -42 -260 -51 -62
-3 -97 -64 -63 -109 7 -10 18 -18 24 -18 6 0 25 -8 42 -19 34 -20 76 -15 155
20 22 9 56 20 75 24 19 4 40 11 45 15 6 4 26 10 46 14 26 5 56 25 103 68 77
71 112 132 102 175 -4 15 -10 40 -13 55 -3 16 -33 57 -67 92 -153 160 -176
186 -176 194 0 6 -6 12 -14 15 -21 8 -28 67 -11 94 25 38 93 76 126 69 26 -5
30 -1 54 45 14 28 25 54 25 57 0 4 -18 26 -40 50 -39 41 -59 48 -119 43 -25
-2 -78 -39 -136 -92 -40 -38 -61 -27 -47 25 10 33 8 38 -13 52 -12 8 -50 17
-83 19 -54 4 -63 2 -77 -17z"/>
<path d="M8688 4448 c-24 -19 -26 -48 -6 -96 10 -24 18 -57 18 -73 0 -16 6
-46 14 -66 25 -67 35 -159 37 -339 1 -65 -3 -119 -10 -131 -6 -12 -11 -32 -11
-44 0 -44 -23 -88 -51 -98 -23 -8 -31 -5 -55 21 -19 20 -23 29 -12 25 13 -5
11 5 -12 46 -15 29 -31 75 -35 102 -4 28 -11 55 -15 60 -4 6 -13 33 -19 60
-15 57 -28 97 -46 140 -7 17 -18 50 -25 74 -23 89 -148 157 -191 104 -9 -10
-13 -64 -14 -184 -1 -92 -6 -174 -12 -181 -13 -17 -16 -187 -4 -202 5 -6 11
-27 13 -45 2 -29 8 -36 33 -43 24 -6 34 -3 56 18 17 16 29 22 33 15 4 -6 14
-11 22 -11 12 0 15 12 14 53 -3 89 -1 109 12 105 13 -5 46 -101 47 -136 1 -13
12 -33 26 -46 14 -13 25 -30 25 -38 0 -33 58 -138 77 -138 6 0 25 -13 41 -30
30 -30 62 -32 62 -5 0 6 24 34 53 61 48 44 55 55 62 104 4 30 9 60 9 65 8 47
22 99 43 149 13 32 22 61 19 64 -3 3 -1 11 5 19 8 9 8 13 0 13 -7 0 -10 23
-10 63 3 231 4 220 -35 422 -3 11 -5 30 -5 41 -1 33 -32 64 -71 73 -19 5 -42
12 -50 15 -9 4 -23 1 -32 -6z"/>
<path d="M11112 4439 c-12 -5 -25 -17 -28 -26 -3 -10 -11 -28 -17 -41 -8 -17
-8 -28 1 -42 8 -14 8 -21 -2 -29 -25 -21 -36 -90 -37 -232 0 -95 5 -166 15
-209 8 -36 14 -88 13 -116 -1 -62 27 -112 77 -139 29 -16 37 -17 50 -6 9 8 16
19 16 26 0 7 7 18 15 25 9 7 13 21 10 30 -3 10 2 26 11 35 17 16 16 18 -4 34
-28 21 -43 74 -36 123 4 21 2 44 -3 50 -20 25 -23 68 -9 103 8 19 15 56 15 82
-1 76 9 160 20 182 40 74 -34 177 -107 150z"/>
<path d="M9080 4306 c-35 -13 -35 -13 -38 -81 -2 -38 -8 -75 -13 -82 -6 -7
-12 -25 -14 -40 -5 -42 -33 -184 -44 -220 -5 -18 -8 -33 -5 -33 2 0 -3 -14
-12 -31 -8 -17 -13 -41 -10 -52 3 -11 -1 -32 -9 -47 -20 -40 -22 -144 -3 -164
9 -9 18 -21 21 -28 6 -18 39 1 52 30 12 27 30 28 44 5 15 -27 29 -6 37 52 7
53 19 69 44 58 8 -3 30 -8 48 -11 24 -3 36 -11 43 -29 5 -14 7 -29 4 -34 -4
-5 -1 -37 6 -71 9 -49 19 -71 47 -100 39 -41 58 -40 70 6 7 26 13 31 34 28 33
-3 41 25 22 81 -26 80 -49 249 -44 322 3 39 2 86 -2 105 -4 19 -8 58 -8 87 0
62 -24 114 -75 161 -19 19 -35 40 -35 48 0 8 -7 14 -15 14 -8 0 -15 3 -15 8 0
7 -72 33 -87 31 -5 0 -24 -6 -43 -13z m118 -389 c0 -23 2 -49 4 -57 4 -22 -50
-27 -58 -5 -6 14 11 95 23 118 11 19 31 -18 31 -56z"/>
<path d="M12482 2437 c-12 -13 -22 -31 -22 -40 0 -9 -4 -17 -10 -17 -16 0 -12
-66 5 -80 8 -7 15 -19 15 -26 0 -8 18 -49 39 -92 45 -90 97 -206 107 -242 4
-14 17 -39 30 -56 13 -17 24 -35 24 -41 0 -5 9 -18 20 -28 24 -22 50 -71 50
-95 0 -10 7 -20 15 -24 8 -3 15 -12 15 -20 0 -8 9 -22 21 -30 12 -8 18 -19 14
-26 -10 -16 14 -40 41 -40 12 0 26 -4 29 -10 3 -5 17 -10 31 -10 13 0 24 5 24
10 0 6 6 10 13 10 14 0 49 42 60 74 4 11 0 41 -9 68 -9 27 -13 52 -10 56 10 9
79 32 99 32 21 0 128 -53 149 -73 8 -8 30 -22 48 -32 19 -10 61 -35 92 -56 31
-22 66 -39 77 -39 11 0 23 -5 27 -11 9 -14 166 -89 188 -89 9 0 40 -11 69 -25
85 -42 401 -122 503 -129 33 -2 69 -8 80 -14 32 -17 201 -36 344 -38 74 -1
185 -7 245 -14 61 -6 115 -11 120 -11 6 1 80 3 165 5 165 5 254 19 435 69 22
6 47 12 55 12 8 0 40 6 70 12 30 6 87 17 125 23 39 7 77 16 85 20 46 22 115
38 129 31 14 -8 34 -3 88 21 11 6 26 7 32 3 17 -10 287 50 296 66 3 4 18 4 32
-2 18 -6 34 -7 48 -1 37 18 155 52 179 52 13 0 52 13 87 29 35 16 89 34 119
40 30 7 65 22 78 34 15 14 33 21 52 19 20 -2 44 7 76 29 26 17 75 42 110 55
35 12 73 31 84 42 11 10 33 25 48 33 37 19 42 27 42 80 0 57 -15 72 -58 60
-17 -5 -32 -7 -35 -5 -4 4 -60 -24 -142 -71 -22 -13 -58 -28 -80 -35 -22 -7
-60 -26 -84 -42 -27 -18 -52 -27 -64 -24 -11 3 -32 -1 -46 -9 -53 -29 -142
-65 -161 -65 -10 0 -21 -4 -24 -9 -3 -5 -26 -12 -51 -15 -25 -4 -45 -11 -45
-17 0 -5 -9 -9 -20 -9 -11 0 -20 -4 -20 -9 0 -5 -28 -12 -62 -15 -136 -13
-154 -15 -188 -21 -66 -12 -160 -38 -160 -44 0 -7 -8 -7 -164 -16 -71 -3 -115
-10 -125 -19 -15 -13 -121 -32 -149 -27 -8 1 -19 -3 -26 -9 -8 -5 -21 -7 -30
-4 -10 4 -27 2 -39 -4 -45 -21 -107 -32 -176 -32 -50 0 -71 -4 -71 -13 0 -6
-12 -13 -27 -14 -16 -1 -64 -7 -108 -13 -75 -10 -312 -12 -400 -3 -22 2 -117
5 -211 7 -93 2 -179 8 -190 13 -10 6 -64 13 -118 17 -129 9 -182 22 -206 54
-16 20 -23 22 -34 13 -11 -9 -20 -10 -35 -1 -13 6 -21 7 -21 1 0 -6 -14 -4
-32 3 -18 8 -73 24 -123 36 -49 12 -116 35 -148 51 -32 16 -62 29 -68 29 -6 0
-23 9 -38 19 -15 11 -50 25 -77 32 -53 13 -120 43 -126 57 -1 4 -29 23 -60 40
-31 18 -67 44 -80 57 -13 14 -30 25 -39 25 -8 0 -30 16 -49 35 l-34 35 22 22
c16 17 25 19 33 11 8 -8 18 -8 35 -1 17 8 25 22 30 55 3 24 13 47 21 52 12 6
13 15 7 33 -10 30 -69 98 -83 98 -6 0 -25 9 -43 20 -18 11 -50 20 -70 20 -20
0 -63 7 -95 15 -32 8 -96 17 -142 20 -57 3 -95 10 -122 25 -47 24 -49 24 -49
5 0 -21 -11 -18 -39 10 -13 14 -29 25 -36 25 -7 0 -39 14 -70 30 -69 36 -104
38 -133 7z"/>
</g>
</svg>
