<?xml version="1.0" standalone="no"?>
<!DOCTYPE svg PUBLIC "-//W3C//DTD SVG 20010904//EN"
 "http://www.w3.org/TR/2001/REC-SVG-20010904/DTD/svg10.dtd">
<svg version="1.0" xmlns="http://www.w3.org/2000/svg"
 width="271.582244pt" height="150.000000pt" viewBox="0 0 271.582244 150.000000"
 preserveAspectRatio="xMidYMid meet">
<metadata>
Created by potrace 1.16, written by Peter Selinger 2001-2019
</metadata>
<g transform="translate(-4.075582,158.428024) scale(0.014556,-0.014556)"
fill="#444444" stroke="none">
<path d="M8400 10876 c-78 -17 -105 -35 -191 -123 -90 -92 -147 -186 -190
-314 -41 -123 -48 -210 -21 -271 l19 -45 109 -6 c79 -4 111 -3 117 6 4 7 6 41
4 76 -8 110 15 161 118 258 57 54 100 86 124 93 33 9 38 8 59 -15 26 -31 29
-79 7 -132 -9 -22 -56 -75 -115 -130 -62 -59 -103 -106 -109 -126 -15 -44 -15
-122 -3 -297 10 -138 10 -197 -3 -265 -10 -57 35 -82 150 -81 51 1 60 4 63 21
2 11 11 27 19 36 11 14 13 38 8 125 -5 78 -2 138 9 211 15 98 17 103 60 147
24 25 48 46 54 46 15 0 102 93 127 138 77 136 84 265 22 415 -27 64 -89 148
-131 178 -72 53 -209 77 -306 55z m180 -97 c72 -16 114 -50 145 -116 15 -32
33 -69 40 -83 22 -43 29 -161 12 -211 -39 -113 -64 -145 -189 -238 -43 -32
-64 -57 -84 -99 -25 -52 -26 -65 -30 -241 -3 -149 -7 -187 -18 -189 -16 -4
-27 58 -26 150 0 35 -2 131 -5 213 l-5 150 101 100 c56 55 107 111 114 125 17
33 29 95 28 141 -2 54 -55 141 -98 162 -73 35 -121 21 -231 -68 -48 -39 -154
-157 -154 -172 0 -4 -7 -21 -16 -38 -10 -19 -15 -51 -14 -85 4 -98 3 -100 -29
-100 -28 0 -30 2 -36 55 -8 63 21 167 80 292 50 103 162 212 247 241 71 24
103 26 168 11z"/>
<path d="M12344 10633 c-14 -66 -114 -332 -139 -369 -9 -14 -21 -22 -25 -18
-5 5 -18 41 -29 79 -45 159 -67 209 -96 224 -38 19 -80 0 -71 -32 26 -87 29
-142 17 -265 -6 -70 -12 -178 -12 -240 0 -106 2 -114 23 -132 26 -22 44 -25
53 -10 3 6 -3 10 -14 10 -35 0 -24 28 12 32 28 3 32 6 28 28 -2 14 -5 70 -7
125 -5 107 6 148 29 111 26 -42 48 -57 70 -50 74 23 111 83 164 269 5 17 15
30 23 30 11 0 13 -42 12 -260 -2 -230 0 -264 15 -295 23 -46 64 -53 89 -15 14
21 15 32 6 68 -6 23 -14 56 -18 72 -8 32 -7 421 0 434 10 15 -16 156 -35 193
-17 33 -24 38 -54 38 -30 0 -35 -4 -41 -27z"/>
<path d="M11790 10595 c-30 -8 -85 -14 -122 -15 -80 0 -107 -11 -130 -50 -13
-22 -14 -37 -8 -62 11 -42 14 -140 11 -352 -4 -218 -13 -207 176 -218 145 -8
147 -7 159 39 13 48 2 53 -110 53 -129 0 -136 5 -136 94 0 75 6 82 86 97 78
15 89 26 77 76 -10 42 -2 40 -114 27 l-45 -6 -3 95 c-1 64 2 97 9 102 7 4 35
9 64 11 166 10 202 21 213 62 12 49 -41 69 -127 47z"/>
<path d="M10242 10522 c-7 -5 -24 -39 -37 -77 -14 -37 -32 -81 -40 -98 -8 -17
-15 -36 -15 -44 0 -7 -6 -24 -14 -36 -21 -33 -24 -106 -9 -215 15 -114 48
-188 101 -231 37 -31 103 -48 139 -37 21 7 100 111 131 173 32 63 55 185 49
252 -15 170 -132 321 -248 321 -24 0 -50 -4 -57 -8z m138 -127 c12 -19 25 -35
30 -35 4 0 21 -32 36 -70 27 -69 27 -73 17 -164 -8 -65 -19 -109 -39 -147 -34
-69 -73 -119 -90 -119 -20 0 -84 60 -84 79 0 9 -7 36 -16 60 -26 75 -28 187
-6 259 24 74 88 172 113 172 9 0 27 -16 39 -35z"/>
<path d="M10593 10512 c-15 -9 -18 -30 -10 -72 15 -79 19 -276 13 -578 -1 -55
14 -65 68 -45 23 8 88 18 146 23 123 9 145 17 199 65 84 76 78 190 -14 268
-17 14 -42 27 -55 29 l-25 3 27 26 c88 83 74 234 -25 274 -40 16 -301 22 -324
7z m307 -97 c19 -19 18 -76 -2 -107 -21 -33 -124 -86 -173 -90 l-40 -3 0 105
0 105 45 7 c63 9 152 0 170 -17z m-22 -286 c88 -22 115 -66 80 -135 -30 -61
-91 -82 -220 -76 l-38 2 0 66 c0 36 -4 74 -10 84 -13 25 9 42 74 56 68 16 61
15 114 3z"/>
<path d="M11146 10497 c-16 -12 -17 -29 -11 -198 3 -101 7 -223 8 -271 2 -75
5 -91 24 -110 21 -20 30 -21 145 -19 114 1 124 3 140 24 24 30 22 53 -4 71
-18 13 -38 15 -98 10 -58 -5 -78 -3 -86 7 -25 32 -44 272 -33 416 2 29 -1 57
-6 62 -19 16 -62 21 -79 8z"/>
<path d="M9718 10480 c-38 -11 -71 -21 -75 -23 -5 -3 -8 -157 -7 -344 0 -273
3 -342 15 -360 18 -30 27 -29 39 3 8 21 13 24 24 15 22 -19 25 -1 15 84 -13
99 -4 205 17 205 8 0 29 7 46 16 30 16 32 15 49 -7 10 -13 48 -84 85 -157 54
-107 71 -133 92 -139 32 -8 54 6 63 41 7 24 2 34 -27 64 -19 19 -34 39 -34 43
0 16 -68 157 -79 163 -19 12 -12 50 15 75 62 59 80 161 43 237 -18 36 -32 47
-89 73 -76 35 -98 36 -192 11z m195 -114 c36 -41 35 -80 -5 -141 -31 -47 -61
-66 -127 -80 -24 -5 -36 -3 -42 6 -5 8 -9 58 -9 112 0 93 1 99 26 122 47 43
107 36 157 -19z"/>
<path d="M9277 10466 c-56 -15 -88 -43 -113 -98 -18 -40 -18 -40 5 -84 19 -35
23 -54 18 -96 -2 -29 -1 -78 4 -109 5 -31 11 -98 13 -150 5 -131 17 -217 31
-229 7 -6 24 -4 49 8 36 16 37 18 30 57 -3 22 -10 47 -14 55 -4 8 -11 68 -15
132 l-7 117 39 10 c21 5 52 13 68 17 37 8 107 74 142 134 34 57 46 135 26 173
-32 64 -162 93 -276 63z m192 -89 c21 -17 8 -89 -25 -141 -23 -37 -39 -49 -77
-62 -26 -9 -59 -13 -72 -10 -23 6 -25 11 -25 64 0 37 -6 66 -16 81 -15 21 -15
24 4 43 40 41 171 56 211 25z"/>
<path d="M14000 10327 c-47 -4 -142 -6 -212 -3 -142 5 -160 -1 -142 -52 9 -26
13 -27 109 -34 55 -4 158 -3 230 3 71 5 175 9 230 8 212 -3 505 -56 603 -108
9 -5 55 -26 102 -46 99 -44 249 -119 302 -152 21 -13 42 -23 48 -23 5 0 10 -4
10 -9 0 -5 9 -12 20 -16 11 -3 32 -20 47 -36 15 -16 53 -46 83 -66 57 -38 164
-142 209 -203 14 -19 34 -44 43 -55 17 -20 63 -80 105 -137 37 -50 67 -89 80
-102 16 -18 100 -195 109 -229 3 -16 13 -31 20 -34 9 -3 14 -20 14 -44 0 -36
-3 -39 -45 -58 -25 -11 -45 -24 -45 -30 0 -14 49 -85 65 -94 13 -7 61 -84 112
-177 12 -23 33 -50 48 -62 23 -18 29 -19 52 -7 34 18 50 54 58 130 4 35 16 99
27 141 26 102 21 120 -37 136 -25 7 -62 12 -83 12 -31 0 -41 6 -62 37 -33 48
-35 50 -61 108 -12 28 -26 58 -31 67 -4 10 -8 24 -8 32 0 8 -10 31 -22 51 -43
68 -200 277 -213 281 -7 3 -18 18 -25 34 -7 16 -18 31 -26 34 -8 3 -14 12 -14
20 0 23 -167 187 -250 245 -41 28 -100 69 -130 90 -175 121 -480 270 -605 294
-309 61 -499 75 -715 54z"/>
<path d="M6829 10141 c-45 -28 -59 -51 -59 -98 0 -12 -5 -25 -12 -29 -6 -4
-89 -9 -182 -11 -94 -1 -193 -8 -221 -14 -27 -6 -95 -17 -150 -25 -110 -16
-296 -58 -335 -76 -14 -7 -34 -13 -46 -14 -12 -2 -41 -11 -65 -22 -24 -11 -78
-32 -119 -46 -84 -30 -171 -82 -340 -203 -71 -51 -420 -396 -420 -414 0 -7
-10 -26 -23 -43 -23 -32 -73 -133 -97 -196 -7 -19 -26 -54 -41 -77 -51 -77
-131 -404 -115 -468 5 -21 12 -26 33 -23 40 5 62 51 69 144 4 48 14 91 24 109
10 17 26 59 35 94 9 35 27 78 41 96 13 18 24 38 24 46 0 8 6 23 13 34 8 11 21
40 31 65 18 47 97 170 122 191 8 6 14 18 14 26 0 19 294 313 349 349 24 16 56
35 70 43 14 7 62 37 106 65 61 40 224 115 265 122 24 4 67 18 76 25 6 5 24 11
40 13 16 2 63 14 104 26 170 48 500 80 678 65 l82 -7 0 -54 c0 -44 4 -55 21
-64 16 -9 28 -7 62 13 23 13 78 37 122 52 44 14 89 35 99 45 17 17 18 23 8 59
-12 38 -74 101 -129 129 -12 7 -32 31 -45 54 -13 23 -27 43 -33 45 -5 1 -31
-10 -56 -26z"/>
<path d="M8420 9383 c-66 -34 -91 -142 -49 -213 30 -51 47 -60 106 -60 80 0
113 43 113 146 0 54 -16 100 -42 122 -27 22 -91 24 -128 5z m88 -119 c2 -39
-1 -56 -14 -69 -17 -17 -19 -16 -36 5 -23 28 -23 78 -1 102 29 32 48 19 51
-38z"/>
<path d="M16240 8180 c-74 -4 -207 -15 -295 -25 -88 -9 -173 -16 -190 -16 -90
3 -292 -25 -465 -64 -36 -8 -99 -15 -141 -15 -56 0 -80 -4 -89 -15 -7 -9 -15
-50 -18 -93 -2 -42 -8 -82 -13 -88 -5 -6 -4 -37 1 -70 9 -59 20 -200 40 -524
6 -96 16 -231 22 -300 5 -69 12 -262 14 -430 2 -168 3 -315 4 -326 0 -13 8
-24 20 -27 13 -3 20 -14 20 -31 0 -15 8 -30 19 -36 24 -13 142 -13 286 -1 61
6 171 12 245 15 272 12 693 46 742 62 12 3 28 -6 46 -26 25 -26 32 -29 54 -21
31 11 78 92 78 132 0 15 -7 32 -15 37 -12 6 -17 33 -20 123 -2 63 -8 181 -14
263 -6 82 -8 152 -6 156 2 3 0 39 -5 80 -5 41 -11 140 -14 219 -4 80 -8 168
-11 195 -2 28 -7 110 -10 182 -2 72 -7 137 -10 145 -3 8 -6 120 -8 249 l-2
234 -25 13 c-26 13 -29 13 -240 3z m164 -118 c2 -4 7 -84 10 -177 8 -216 18
-468 21 -520 7 -137 26 -395 29 -425 8 -56 21 -375 21 -499 l0 -114 -39 -13
c-67 -24 -325 -49 -641 -64 -104 -5 -251 -15 -325 -24 -201 -23 -272 -24 -275
-6 -11 69 -14 179 -7 245 7 68 5 150 -12 400 -1 22 -6 103 -10 180 -4 77 -12
165 -17 195 -5 30 -12 125 -15 210 -3 85 -9 178 -13 205 -3 28 -4 64 0 80 3
17 4 70 1 119 -6 101 3 116 67 116 33 0 116 14 246 40 28 6 120 15 205 21 85
5 227 16 315 23 173 14 432 19 439 8z"/>
<path d="M15380 7850 c-14 -4 -53 -8 -86 -9 -40 -1 -66 -6 -73 -15 -14 -17
-13 -152 1 -244 8 -49 7 -70 -2 -88 -12 -21 -11 -27 6 -45 34 -38 50 -41 95
-19 52 27 165 51 204 44 47 -8 85 10 85 41 0 15 -4 34 -9 44 -5 9 -12 48 -16
87 -6 73 -14 127 -22 157 -11 41 -116 68 -183 47z m104 -137 c3 -16 6 -53 8
-83 l2 -54 -39 -8 c-22 -5 -60 -13 -84 -18 -29 -7 -48 -7 -54 -1 -14 14 -20
178 -7 186 18 11 135 21 152 13 9 -4 19 -20 22 -35z"/>
<path d="M16050 7743 c-58 -6 -163 -18 -235 -26 -150 -17 -165 -21 -165 -52 0
-12 8 -29 18 -38 18 -17 108 -13 367 14 61 6 137 11 170 11 94 -1 133 40 85
88 -24 24 -62 24 -240 3z"/>
<path d="M15495 7370 c-11 -5 -45 -9 -76 -9 -125 -2 -146 -29 -123 -153 25
-140 37 -192 46 -211 15 -29 54 -39 91 -24 22 10 56 12 113 8 44 -3 93 -4 110
-1 l29 5 0 145 c0 151 -11 212 -43 236 -19 15 -116 17 -147 4z m83 -102 c12
-12 17 -143 6 -172 -5 -12 -21 -16 -68 -16 -107 0 -107 0 -121 106 -7 51 9 70
63 79 20 4 42 8 47 10 23 8 62 4 73 -7z"/>
<path d="M16230 7303 c-19 -2 -55 -10 -80 -18 -25 -8 -94 -21 -155 -30 -60 -9
-139 -21 -174 -26 -71 -10 -101 -30 -101 -65 0 -33 35 -39 134 -25 44 6 144
20 221 31 77 11 156 20 176 20 19 0 43 6 52 13 19 14 31 66 20 84 -10 15 -48
21 -93 16z"/>
<path d="M15513 6851 c-119 -5 -135 -8 -154 -28 -22 -22 -22 -23 -6 -74 10
-30 17 -84 17 -129 0 -122 36 -173 109 -152 20 6 73 13 118 16 161 10 200 32
182 101 -7 26 -29 205 -29 235 0 13 -63 41 -87 38 -10 -1 -78 -4 -150 -7z
m142 -112 c7 -8 15 -42 19 -77 5 -59 4 -63 -17 -71 -29 -11 -168 -18 -183 -8
-18 10 -28 158 -12 169 20 14 178 3 193 -13z"/>
<path d="M16165 6729 c-38 -11 -128 -25 -200 -30 -79 -6 -132 -15 -137 -22
-15 -24 -7 -44 25 -62 37 -20 118 -18 343 7 144 17 171 36 142 101 -11 23 -19
27 -58 26 -25 0 -76 -9 -115 -20z"/>
<path d="M363 8145 c-3 -9 -3 -28 0 -44 3 -16 3 -31 0 -35 -7 -7 -51 -128 -60
-164 -3 -12 -9 -25 -14 -28 -5 -3 -9 -16 -9 -28 0 -28 41 -58 73 -54 21 3 22
-1 30 -102 14 -198 15 -581 1 -785 -8 -110 -16 -207 -19 -215 -2 -8 -7 -128
-10 -266 l-7 -252 23 -21 c26 -24 64 -28 73 -6 4 12 21 14 83 10 157 -8 200
-8 313 4 63 6 311 14 550 17 239 2 496 6 570 7 126 2 135 1 132 -16 -5 -27 26
-57 57 -56 17 0 53 23 100 62 98 82 100 87 66 125 -16 18 -34 32 -42 32 -7 0
-13 3 -13 8 0 13 -98 72 -120 72 -24 0 -32 -17 -34 -68 -1 -34 -4 -37 -41 -44
-21 -5 -44 -7 -50 -4 -23 9 -39 247 -21 319 3 10 -2 36 -9 57 -7 21 -11 40 -8
43 7 8 7 213 0 292 -10 97 -37 237 -50 254 -8 10 -26 11 -72 6 -33 -3 -95 -6
-138 -5 -42 1 -90 -1 -105 -5 -60 -13 -80 -96 -62 -255 7 -58 13 -235 15 -395
1 -159 6 -298 10 -307 6 -15 1 -18 -33 -18 l-39 0 -12 108 c-15 137 -15 160
-8 727 2 182 7 371 12 421 7 87 7 92 -15 114 -21 21 -27 22 -109 15 -47 -4
-122 -6 -166 -4 -177 7 -180 7 -183 -21 -2 -14 -13 -34 -23 -46 -17 -18 -18
-25 -8 -50 7 -16 16 -127 22 -254 9 -223 15 -934 8 -978 -4 -26 -27 -40 -41
-26 -14 14 -17 83 -7 129 9 42 11 297 2 325 -10 31 -48 40 -95 24 -24 -8 -94
-20 -157 -25 -99 -9 -115 -9 -129 5 -19 19 -40 21 -50 4 -5 -7 -7 -110 -5
-229 2 -138 -1 -224 -8 -237 -10 -19 -46 -23 -71 -7 -12 7 -9 110 11 470 6 99
13 316 15 482 4 248 3 317 -10 386 -9 46 -16 105 -16 131 0 40 3 48 25 56 55
21 72 111 30 166 -14 18 -25 39 -25 46 -1 30 -40 123 -56 135 -24 18 -63 16
-71 -2z m1022 -595 c1 0 0 -172 -1 -382 -3 -545 -3 -659 1 -779 l4 -106 -125
1 c-94 1 -125 4 -129 14 -4 12 -5 239 -1 472 1 79 -15 363 -21 373 -3 5 -7 90
-8 190 -2 100 -6 193 -10 206 l-8 24 149 -6 c82 -4 149 -6 149 -7z m451 -388
c15 -11 32 -61 40 -122 4 -30 8 -199 9 -375 1 -176 5 -333 10 -349 7 -27 6
-29 -16 -23 -13 3 -44 2 -69 -2 -31 -4 -54 -2 -75 8 -16 8 -37 17 -44 21 -26
11 -30 55 -36 379 -4 174 -7 348 -8 386 l-2 70 85 6 c47 3 87 6 90 7 3 1 10
-2 16 -6z m-960 -548 c7 -38 -3 -246 -15 -304 -6 -34 -8 -35 -71 -46 -91 -16
-160 -17 -161 -1 -1 6 -4 37 -7 67 -9 102 2 277 19 295 6 6 56 13 112 16 56 3
105 6 109 7 4 1 10 -14 14 -34z"/>
<path d="M6857 8053 c-8 -10 -19 -35 -22 -56 -5 -22 -14 -41 -24 -44 -35 -10
-43 -20 -73 -88 -92 -208 -59 -622 59 -739 32 -32 60 -40 117 -34 34 4 52 14
82 46 54 56 77 84 90 113 24 49 50 235 46 319 -3 49 -29 159 -42 175 -4 6 -17
41 -29 79 -22 70 -69 166 -81 166 -4 0 -13 14 -20 30 -21 50 -72 66 -103 33z
m93 -177 c35 -78 76 -200 92 -278 9 -44 9 -78 -1 -155 -14 -111 -36 -164 -93
-223 -65 -67 -91 -52 -139 81 -48 136 -51 372 -6 494 6 16 28 47 49 68 21 22
38 45 38 52 0 11 9 18 28 24 1 1 15 -28 32 -63z"/>
<path d="M7494 8015 c-4 -9 -2 -34 3 -58 12 -51 11 -552 0 -564 -10 -9 -22 10
-61 97 -15 36 -35 72 -42 81 -8 8 -18 38 -24 65 -18 88 -27 118 -48 163 -12
25 -22 52 -22 60 0 9 -9 34 -19 56 -63 135 -173 141 -126 8 19 -56 36 -325 33
-528 -1 -72 1 -136 6 -143 8 -13 46 -17 46 -4 0 5 11 14 24 20 22 10 23 14 15
59 -4 26 -9 108 -11 181 -3 138 6 166 31 95 7 -21 44 -102 82 -181 38 -79 69
-146 69 -149 0 -4 7 -14 16 -24 14 -16 17 -16 54 5 33 17 42 30 55 72 8 28 14
64 14 80 0 16 -1 65 -1 109 0 44 0 109 -1 145 -1 36 1 124 4 197 6 121 5 134
-13 153 -22 24 -76 27 -84 5z"/>
<path d="M6067 7981 c-36 -16 -87 -73 -87 -98 0 -8 -6 -24 -14 -36 -42 -66
-44 -245 -2 -302 12 -16 27 -41 34 -55 7 -14 42 -59 78 -100 79 -90 118 -153
110 -177 -4 -10 -26 -33 -50 -51 -36 -27 -52 -32 -92 -32 -73 2 -108 -11 -112
-41 -4 -41 11 -51 86 -57 67 -4 74 -3 134 31 87 48 139 111 134 158 -4 38 -83
171 -122 204 -19 17 -41 40 -47 52 -7 11 -30 46 -51 78 l-39 56 6 100 c4 83 9
106 31 144 23 39 31 45 60 45 39 0 97 -22 116 -44 9 -11 11 -31 6 -66 -6 -45
-4 -53 18 -75 31 -31 51 -24 67 22 31 94 -15 198 -106 239 -59 27 -102 28
-158 5z"/>
<path d="M5691 7954 l-34 -14 7 -68 c4 -37 11 -129 16 -204 5 -75 13 -145 18
-155 6 -10 16 -86 23 -170 10 -123 10 -163 0 -210 -15 -66 -26 -83 -51 -83
-63 0 -182 317 -195 515 -10 165 -35 308 -57 328 -24 21 -51 22 -67 3 -9 -11
-9 -26 3 -68 9 -29 25 -131 36 -226 11 -96 27 -189 34 -207 8 -18 20 -69 26
-112 7 -43 23 -98 36 -123 12 -25 35 -71 49 -103 32 -68 70 -97 131 -97 82 0
136 48 140 125 1 23 7 60 14 81 8 29 8 60 0 119 -6 44 -13 109 -14 145 -2 36
-8 97 -14 135 -6 39 -14 133 -17 210 -3 77 -8 148 -11 158 -9 29 -36 37 -73
21z"/>
<path d="M6457 7916 c-8 -21 4 -267 18 -371 2 -16 6 -103 10 -192 3 -89 10
-174 15 -187 21 -55 115 -37 100 19 -2 6 -9 71 -16 145 -7 74 -18 171 -24 215
-6 44 -9 143 -8 220 1 77 -1 146 -5 153 -11 17 -83 16 -90 -2z"/>
<path d="M4690 7855 c-7 -8 -20 -15 -30 -15 -9 0 -38 -18 -63 -40 -40 -36 -50
-53 -79 -138 -30 -90 -32 -106 -32 -227 1 -237 22 -337 87 -403 53 -54 136
-101 206 -118 55 -12 84 -6 95 22 6 15 -60 84 -79 84 -33 0 -125 51 -158 86
-31 34 -36 47 -43 114 -4 41 -9 84 -11 95 -2 11 -5 63 -7 115 -4 98 12 166 61
270 19 38 94 90 132 90 28 0 45 25 32 48 -18 34 -88 45 -111 17z"/>
<path d="M4968 7860 c-9 -6 -19 -22 -22 -38 -7 -29 8 -207 23 -282 31 -156 58
-414 52 -505 -4 -74 47 -104 180 -105 71 0 89 3 102 18 20 22 21 41 3 64 -10
13 -31 17 -95 19 -67 1 -84 5 -91 20 -6 10 -7 24 -4 32 3 8 0 33 -6 55 -5 22
-15 82 -20 134 -5 51 -18 143 -29 203 -11 61 -22 167 -24 237 -4 149 -17 178
-69 148z"/>
<path d="M4270 7835 c-21 -22 -22 -30 -16 -92 13 -122 15 -172 14 -401 0 -12
3 -34 6 -48 16 -64 -21 -3 -128 211 -64 127 -116 236 -116 243 0 22 -47 37
-75 24 -24 -11 -24 -13 -19 -94 3 -46 8 -94 11 -108 7 -27 8 -39 18 -150 3
-41 10 -91 15 -110 5 -19 11 -53 14 -75 3 -22 8 -53 11 -70 3 -16 7 -52 10
-80 13 -168 23 -193 70 -181 21 5 25 13 27 44 4 73 -6 152 -27 227 -19 66 -49
305 -40 313 4 4 9 2 12 -4 2 -5 30 -59 63 -118 83 -148 167 -316 175 -346 14
-55 63 -84 99 -57 19 14 17 44 -15 232 -5 33 -12 148 -15 255 -3 107 -7 233
-8 280 -4 126 -33 161 -86 105z"/>
<path d="M3275 7803 c-39 -5 -133 -41 -167 -65 -34 -24 -125 -169 -139 -223
-6 -22 -19 -62 -29 -90 -52 -143 -26 -421 49 -513 57 -72 108 -100 218 -122
125 -25 169 -26 176 -2 2 9 7 24 11 32 13 34 -19 50 -115 61 -116 12 -152 23
-188 57 -59 55 -81 136 -83 302 -1 87 3 126 16 160 10 25 28 75 40 112 12 36
27 72 32 80 6 7 22 39 35 71 21 52 30 62 83 93 33 20 69 34 82 32 13 -2 24 1
24 7 2 12 -6 13 -45 8z"/>
<path d="M3590 7753 c-11 -8 -20 -20 -20 -27 0 -7 -11 -23 -25 -36 -14 -13
-25 -28 -25 -33 0 -6 -6 -18 -14 -26 -8 -9 -22 -55 -32 -103 -23 -116 -10
-249 49 -506 15 -65 45 -107 110 -154 41 -29 109 -18 148 25 16 17 29 39 29
49 0 9 5 20 10 23 6 3 10 17 10 31 0 13 3 24 8 24 8 0 25 68 42 170 7 45 8 93
1 155 -24 221 -43 275 -125 361 -45 46 -57 53 -98 57 -31 3 -54 0 -68 -10z
m101 -103 c10 -6 19 -17 19 -24 0 -8 7 -19 15 -26 51 -42 88 -309 58 -423 -7
-29 -16 -65 -18 -80 -12 -62 -51 -142 -71 -145 -37 -5 -89 64 -103 139 -7 35
-19 93 -26 129 -7 36 -16 96 -20 134 -3 38 -8 73 -11 78 -3 4 -2 14 3 21 4 6
8 14 9 17 12 68 19 90 35 112 11 15 24 39 29 53 10 27 45 34 81 15z"/>
<path d="M18531 7601 c-14 -9 -17 -105 -6 -261 12 -172 23 -484 18 -497 -8
-21 25 -63 51 -63 38 0 59 32 52 82 -3 24 -8 86 -11 138 -2 52 -10 129 -16
171 -25 160 14 174 84 31 26 -53 47 -101 47 -105 0 -5 9 -28 21 -53 11 -25 27
-79 35 -120 24 -129 58 -163 114 -114 21 18 22 23 12 58 -30 95 -35 140 -38
322 -2 107 -8 211 -14 230 -5 19 -10 62 -10 95 0 71 -10 85 -62 85 -49 0 -69
-33 -48 -77 27 -59 44 -243 23 -250 -14 -5 -118 208 -128 260 -5 28 -15 38
-49 56 -48 23 -55 25 -75 12z"/>
<path d="M18102 7587 c-6 -7 -11 -30 -11 -52 0 -36 -33 -184 -45 -204 -3 -4
-15 -61 -26 -127 -12 -65 -32 -155 -46 -200 -30 -99 -32 -174 -5 -198 24 -22
59 -13 70 18 11 27 24 110 30 188 2 28 106 68 176 68 l42 0 13 -57 c8 -32 13
-62 12 -66 -1 -4 5 -21 14 -38 8 -17 14 -43 12 -59 -3 -36 17 -60 52 -60 46 0
73 46 51 88 -5 9 -17 44 -26 77 -9 33 -32 106 -51 163 -19 56 -34 111 -34 120
0 10 -7 27 -15 39 -8 12 -18 43 -21 70 -10 76 -68 194 -109 221 -39 25 -67 28
-83 9z m97 -222 c23 -30 56 -164 43 -177 -5 -5 -39 -11 -77 -15 l-68 -6 7 29
c4 16 14 62 22 102 8 41 17 78 20 83 10 16 32 9 53 -16z"/>
<path d="M17022 7565 c-40 -17 -48 -36 -29 -67 14 -21 18 -65 29 -313 0 -11
-2 -103 -4 -205 l-6 -185 25 -22 c32 -30 59 -29 79 3 15 22 16 33 5 87 -17 87
-20 195 -6 207 6 5 42 17 79 25 64 15 156 63 183 96 6 8 18 34 27 59 43 123
-9 234 -137 296 -61 29 -82 34 -142 34 -38 -1 -85 -7 -103 -15z m195 -88 c46
-17 80 -50 104 -102 21 -45 21 -47 4 -86 -33 -71 -85 -100 -185 -103 l-35 -1
-6 140 c-5 120 -4 142 9 153 19 15 66 14 109 -1z"/>
<path d="M17481 7539 c-18 -7 -22 -14 -16 -32 3 -12 8 -93 11 -180 2 -87 6
-162 9 -166 2 -5 5 -77 6 -161 0 -84 5 -163 9 -176 15 -38 57 -54 115 -42 28
5 93 13 145 16 l95 7 9 37 c12 49 -5 72 -48 63 -17 -3 -70 -8 -119 -11 -84 -5
-88 -4 -96 18 -14 37 -40 353 -40 488 -1 105 -4 127 -18 138 -20 14 -29 14
-62 1z"/>
<path d="M17457 5753 c-4 -3 -7 -16 -7 -29 0 -33 -41 -207 -51 -218 -5 -6 -9
-19 -9 -31 0 -12 -7 -30 -15 -41 -8 -10 -15 -25 -15 -33 0 -7 -13 -41 -29 -75
-15 -33 -45 -104 -66 -156 -20 -52 -52 -122 -70 -155 -35 -65 -58 -109 -101
-195 -15 -30 -32 -62 -39 -70 -7 -8 -29 -45 -49 -82 -61 -114 -138 -241 -166
-278 -25 -31 -52 -75 -84 -136 -19 -35 -89 -136 -114 -162 -21 -24 -24 -24
-62 -12 -33 11 -44 11 -72 -3 -29 -14 -37 -27 -66 -109 -18 -51 -49 -124 -68
-163 -19 -38 -34 -75 -34 -81 0 -18 36 -54 53 -54 9 0 65 20 124 44 59 24 119
47 131 51 47 14 122 68 122 87 0 18 -35 92 -63 131 -10 15 -9 21 9 35 12 9 28
31 36 47 13 26 194 329 216 361 42 62 65 99 97 159 21 39 48 86 60 105 12 19
31 53 43 75 59 116 120 232 130 250 6 11 21 49 33 85 12 36 27 72 35 80 7 9
25 47 39 85 15 39 33 77 41 86 8 8 14 25 14 38 0 12 7 38 15 58 24 58 58 204
58 251 0 27 -5 47 -14 53 -17 10 -53 12 -62 2z"/>
<path d="M4536 5582 c-57 -35 -145 -290 -128 -372 8 -34 9 -35 60 -38 46 -3
52 -5 50 -25 0 -12 6 -42 15 -67 9 -25 17 -52 17 -61 0 -8 9 -34 20 -57 11
-22 20 -48 20 -56 0 -26 47 -190 67 -236 12 -25 23 -54 26 -65 23 -84 63 -206
78 -235 9 -19 25 -53 34 -75 9 -22 22 -49 28 -60 25 -47 87 -176 87 -183 0 -5
14 -21 30 -37 17 -16 30 -34 30 -40 0 -7 9 -20 20 -30 11 -10 24 -32 29 -50
14 -52 168 -269 277 -390 19 -22 60 -73 91 -114 87 -119 314 -354 393 -408 25
-17 56 -43 70 -58 14 -15 41 -35 60 -45 19 -10 60 -40 90 -67 30 -27 75 -61
100 -77 25 -16 65 -46 90 -66 49 -41 209 -130 232 -130 21 0 48 33 48 57 0 15
-23 34 -92 74 -146 83 -193 115 -271 183 -39 34 -92 75 -116 90 -24 15 -62 44
-85 65 -22 20 -63 54 -91 76 -60 47 -100 83 -123 109 -9 11 -49 54 -87 95
-118 127 -375 450 -422 529 -12 20 -26 42 -31 48 -6 6 -17 24 -25 40 -8 16
-27 43 -42 59 -37 43 -91 138 -172 305 -72 148 -91 200 -113 305 -11 55 -40
143 -76 235 -8 19 -18 53 -23 75 -9 38 -16 63 -40 145 -32 111 -40 144 -36
148 2 2 26 7 52 10 27 3 54 12 60 21 19 24 6 63 -33 94 -19 16 -34 34 -34 40
0 31 -75 239 -90 247 -10 5 -25 3 -44 -8z"/>
<path d="M14683 3605 c-51 -7 -98 -17 -105 -22 -7 -6 -26 -13 -43 -16 -166
-35 -219 -51 -294 -89 -20 -10 -40 -18 -46 -18 -5 0 -36 -22 -68 -49 -31 -28
-65 -52 -75 -55 -10 -3 -23 -18 -30 -33 -7 -16 -19 -39 -27 -53 -22 -37 -13
-291 15 -430 12 -58 24 -127 26 -155 3 -27 12 -81 21 -120 10 -46 16 -135 18
-260 2 -144 7 -201 19 -234 9 -24 16 -51 16 -60 0 -9 6 -28 14 -42 7 -14 17
-48 21 -75 4 -26 15 -59 26 -72 10 -14 19 -30 19 -37 0 -18 76 -84 114 -100
49 -21 265 -45 452 -52 176 -6 201 -3 414 49 64 15 242 104 289 144 68 59 112
127 112 176 1 43 -15 271 -26 382 -3 33 -10 139 -16 235 -6 97 -14 219 -18
271 -6 83 -6 307 -1 365 1 11 -3 48 -8 83 -16 93 -71 150 -192 194 -135 50
-228 71 -325 74 -55 2 -125 5 -155 7 -30 2 -96 -1 -147 -8z m492 -136 c55 -17
121 -40 147 -51 49 -22 91 -68 86 -96 -4 -24 -94 -65 -218 -101 -178 -51 -166
-49 -641 -82 -142 -10 -190 -10 -252 1 -84 14 -167 55 -193 95 -16 24 -15 26
32 69 27 25 54 45 60 46 6 0 17 7 24 14 6 8 35 22 63 31 29 9 59 20 68 25 9 4
65 22 124 39 76 23 111 29 120 21 12 -10 322 3 333 15 3 3 37 5 76 5 52 0 98
-8 171 -31z m239 -386 c-3 -65 -1 -163 4 -218 13 -134 10 -149 -42 -173 -49
-23 -196 -70 -246 -78 -19 -3 -46 -10 -60 -14 -23 -9 -224 -24 -280 -22 -108
4 -316 24 -324 31 -6 5 -65 23 -131 42 -96 26 -125 38 -145 61 -13 15 -30 28
-36 28 -20 0 -42 34 -47 75 -37 277 -37 270 -27 285 7 11 20 8 67 -12 96 -42
122 -47 253 -49 144 -2 261 7 570 41 113 13 312 64 369 94 82 44 82 43 75 -91z
m-1204 -494 c70 -24 314 -78 380 -83 294 -24 415 -16 606 40 45 13 89 24 98
24 9 0 42 9 73 20 32 11 60 17 64 12 4 -4 9 -70 12 -147 3 -77 6 -145 7 -150
6 -26 -2 -45 -17 -45 -10 -1 -36 -8 -58 -16 -22 -9 -62 -22 -90 -29 -27 -8
-81 -25 -120 -39 -219 -77 -484 -86 -840 -29 -98 15 -135 34 -135 67 -1 23
-20 185 -34 280 -16 105 -14 122 13 110 9 -3 27 -10 41 -15z m1215 -466 c-12
-46 -11 -55 10 -67 28 -16 34 -26 30 -55 -3 -23 -93 -131 -110 -131 -3 0 -44
-18 -90 -40 -129 -62 -268 -91 -428 -91 -141 -1 -234 6 -307 20 -25 5 -78 15
-119 21 -95 16 -139 51 -145 120 -2 25 -11 65 -20 89 -9 24 -16 50 -16 58 0
16 -5 16 160 -8 116 -17 525 -17 610 0 36 7 103 25 150 41 124 40 178 54 274
69 4 0 5 -11 1 -26z"/>
<path d="M7650 3213 c-8 -2 -24 -8 -35 -13 -11 -5 -46 -16 -78 -25 -97 -27
-167 -69 -247 -149 -84 -83 -120 -127 -143 -171 -8 -17 -25 -39 -37 -50 -30
-27 -61 -90 -54 -109 3 -8 -4 -25 -16 -38 -11 -12 -23 -34 -26 -48 -2 -14 -9
-45 -14 -70 -6 -25 -12 -72 -15 -105 -3 -33 -8 -74 -11 -92 -14 -75 83 -356
147 -424 16 -17 29 -35 29 -40 0 -5 5 -9 11 -9 5 0 27 -14 48 -31 l39 -30 -34
-70 c-19 -38 -34 -73 -34 -78 0 -4 -13 -33 -30 -64 -16 -31 -30 -61 -30 -67 0
-12 -28 -74 -95 -215 -24 -49 -57 -129 -74 -177 -17 -48 -37 -98 -45 -110 -7
-13 -17 -34 -21 -46 -8 -26 -61 -108 -76 -117 -12 -8 -11 -31 2 -78 16 -57
109 -146 189 -180 l65 -28 47 21 c26 11 62 39 82 61 41 49 116 156 116 168 0
4 9 16 20 26 11 10 20 22 20 26 0 5 13 35 29 66 16 32 47 96 71 143 23 47 56
114 74 150 18 36 39 94 46 130 7 36 18 74 24 85 5 11 11 25 12 30 7 36 28 114
35 132 8 21 14 23 94 22 61 0 103 5 148 20 165 55 463 301 523 431 14 30 34
73 45 95 52 102 64 154 64 286 0 76 -5 135 -12 150 -6 13 -21 54 -33 90 -11
36 -32 77 -45 89 -14 13 -25 29 -25 36 0 7 -21 32 -47 56 -26 24 -60 55 -76
70 -16 15 -57 46 -93 69 -35 23 -64 45 -64 50 0 4 -9 11 -21 14 -11 4 -35 19
-52 35 -37 32 -106 55 -227 75 -86 15 -143 18 -170 8z m171 -112 c93 -8 166
-37 224 -90 17 -15 52 -43 78 -62 26 -19 69 -51 95 -71 26 -21 50 -38 54 -38
5 0 8 -11 8 -24 0 -14 19 -64 43 -113 66 -134 69 -144 64 -220 -8 -118 -35
-230 -76 -311 -67 -135 -74 -143 -217 -252 -18 -14 -58 -45 -89 -68 -31 -24
-81 -55 -111 -68 -65 -29 -183 -48 -216 -35 -13 5 -59 19 -103 32 -44 12 -87
26 -95 30 -8 4 -35 17 -60 28 -25 11 -56 29 -70 39 -14 11 -51 36 -83 56 -58
38 -127 123 -127 158 0 9 -4 19 -9 22 -5 3 -19 43 -31 88 -18 67 -21 100 -18
178 8 155 57 319 110 367 12 10 40 47 63 83 54 83 138 170 195 202 44 25 150
63 200 71 39 7 78 6 171 -2z m-444 -1365 c48 -25 150 -66 162 -66 13 0 15 -26
2 -34 -4 -3 -12 -33 -15 -68 -4 -34 -14 -74 -22 -90 -21 -41 -79 -39 -140 5
-81 58 -114 89 -114 107 0 20 46 115 68 143 18 21 23 21 59 3z m-101 -293 c42
-42 77 -65 122 -81 71 -27 71 -26 22 -122 -32 -62 -54 -73 -122 -59 -33 7 -61
25 -108 67 l-64 58 24 70 c20 57 54 124 64 124 1 0 29 -26 62 -57z m-111 -284
c11 -10 53 -34 93 -53 39 -20 72 -38 72 -40 0 -2 -14 -32 -31 -65 -33 -64 -37
-66 -114 -61 -41 3 -164 62 -170 82 -6 18 40 144 63 171 14 16 17 16 41 1 14
-9 35 -25 46 -35z m-119 -248 c33 -22 78 -47 102 -56 23 -10 42 -22 42 -29 0
-6 -25 -37 -56 -69 -53 -56 -58 -59 -92 -52 -51 9 -115 56 -126 93 -7 24 -4
37 13 60 11 17 21 33 21 36 0 7 31 56 35 56 2 0 29 -18 61 -39z"/>
<path d="M7645 3020 c-11 -5 -53 -23 -93 -40 -145 -62 -225 -137 -300 -282
-40 -75 -54 -116 -66 -187 -9 -50 -17 -94 -18 -98 -8 -30 19 -152 49 -225 31
-75 45 -96 99 -147 35 -33 64 -64 64 -69 0 -13 102 -62 128 -62 11 0 39 -7 62
-15 23 -8 72 -15 109 -15 118 0 198 27 349 117 79 46 192 204 192 267 0 14 9
40 19 58 30 53 29 183 -4 278 -14 41 -33 86 -43 100 -9 14 -35 60 -57 103 -46
90 -139 180 -203 196 -119 30 -245 39 -287 21z m243 -105 c82 -25 179 -124
198 -202 l7 -28 -34 32 c-19 17 -55 52 -81 76 -41 40 -101 68 -114 54 -12 -12
26 -71 89 -137 79 -85 96 -119 106 -220 7 -72 6 -80 -41 -214 -42 -125 -46
-142 -33 -156 14 -15 13 -19 -2 -33 -25 -22 -157 -86 -211 -102 -67 -21 -179
-9 -215 21 -16 13 -33 24 -39 24 -18 0 -178 104 -178 116 0 6 -13 40 -29 75
-37 83 -43 131 -31 222 28 200 142 362 305 436 142 65 190 71 303 36z m289
-428 c3 -27 1 -47 -6 -51 -6 -4 -13 -1 -15 6 -8 23 -13 97 -8 103 11 11 24
-15 29 -58z"/>
<path d="M17545 3120 c-27 -5 -120 -18 -205 -30 -241 -32 -220 -25 -210 -62 5
-17 12 -33 15 -37 4 -3 50 -8 103 -11 l96 -5 8 -30 c4 -16 7 -148 6 -293 0
-144 2 -265 6 -269 3 -3 6 -32 6 -63 0 -63 14 -84 52 -78 31 4 40 59 27 158
-6 41 -14 183 -19 315 -4 132 -9 249 -11 260 -4 18 4 21 61 28 36 5 103 16
150 26 92 18 105 30 73 70 -22 27 -80 34 -158 21z"/>
<path d="M17909 3086 c-1 -14 -3 -48 -5 -76 -3 -27 -5 -65 -7 -82 -1 -18 -7
-37 -13 -43 -6 -5 -19 -32 -29 -60 -10 -27 -38 -90 -62 -140 -49 -98 -113
-280 -113 -319 0 -14 -4 -27 -9 -30 -12 -8 -2 -46 17 -68 17 -20 57 -24 68 -7
4 6 8 35 9 63 2 28 8 65 14 81 6 17 16 52 23 78 15 57 8 54 188 60 l136 4 18
-46 c9 -25 25 -64 36 -86 10 -22 23 -62 29 -90 14 -56 25 -68 61 -59 48 11 53
25 29 80 -12 27 -29 77 -39 110 -10 34 -36 99 -58 145 -23 46 -49 109 -60 139
-11 30 -31 84 -45 120 -94 239 -93 237 -150 247 -35 5 -37 4 -38 -21z m112
-264 c13 -31 33 -77 46 -101 35 -66 32 -71 -36 -71 -32 0 -78 -2 -102 -5 -73
-9 -77 2 -30 88 23 42 41 83 41 92 0 25 30 64 45 59 7 -3 24 -31 36 -62z"/>
<path d="M16867 3053 c-4 -3 -7 -23 -7 -44 0 -23 -5 -39 -15 -43 -8 -3 -15
-12 -15 -19 0 -8 -8 -36 -19 -63 -22 -58 -53 -155 -76 -239 -25 -91 -55 -165
-86 -216 -35 -55 -36 -69 -6 -97 41 -39 94 -20 95 33 0 17 3 52 7 78 6 38 13
50 32 58 37 14 208 23 228 12 20 -12 41 -64 56 -143 13 -69 33 -100 62 -100
30 0 47 18 47 50 0 25 -28 115 -55 175 -7 17 -16 46 -18 65 -3 19 -26 85 -51
145 -26 61 -61 157 -78 215 -16 58 -37 113 -46 123 -15 17 -43 23 -55 10z m38
-251 c15 -10 62 -105 70 -141 6 -29 5 -31 -21 -31 -15 0 -54 -5 -86 -12 -31
-7 -60 -9 -63 -7 -8 9 69 199 80 199 6 0 15 -4 20 -8z"/>
<path d="M16067 3031 c-20 -4 -40 -11 -44 -15 -14 -14 13 -62 43 -76 31 -15
32 -16 37 -103 2 -49 0 -123 -5 -165 -14 -99 -14 -102 -4 -264 6 -96 5 -138
-3 -138 -5 0 -15 -9 -21 -20 -13 -25 15 -80 40 -80 42 0 208 32 235 45 17 8
49 21 73 29 45 16 91 60 92 87 0 9 7 22 16 30 48 39 80 167 70 278 -8 79 -53
190 -99 239 -102 110 -299 180 -430 153z m257 -143 c54 -22 125 -83 157 -134
11 -18 22 -54 25 -81 3 -26 7 -54 9 -61 16 -48 -66 -237 -120 -276 -33 -24
-127 -56 -166 -56 -23 0 -26 5 -36 73 -10 57 -11 323 -3 584 0 3 63 -20 134
-49z"/>
<path d="M9463 1883 c-7 -2 -13 -12 -13 -21 0 -9 -9 -30 -20 -47 -11 -16 -20
-44 -20 -60 0 -17 -9 -77 -20 -135 -11 -58 -20 -116 -19 -130 0 -39 -16 -143
-25 -158 -4 -7 -10 -41 -13 -75 -3 -34 -8 -66 -13 -72 -8 -11 -50 -145 -50
-162 0 -17 51 -63 70 -63 26 0 43 51 35 100 -4 23 -3 46 3 53 6 7 12 25 14 42
3 27 7 30 48 36 25 4 52 9 60 10 15 4 21 -21 35 -151 7 -60 33 -120 52 -120 6
0 23 4 37 10 24 9 26 15 26 64 0 31 -7 75 -15 98 -20 61 -35 171 -45 338 -12
197 -19 260 -30 294 -6 16 -10 40 -10 54 0 37 -22 92 -36 92 -7 0 -18 2 -26 4
-7 3 -19 2 -25 -1z m35 -444 c14 -135 10 -149 -40 -149 -37 0 -41 13 -28 86 6
32 15 82 20 111 18 113 34 98 48 -48z"/>
<path d="M10660 1851 c-52 -35 -130 -124 -130 -146 0 -6 -9 -28 -20 -50 -24
-47 -25 -64 -5 -112 15 -35 99 -122 120 -123 6 0 26 -16 45 -36 34 -34 35 -37
34 -109 -1 -66 -4 -77 -33 -113 -34 -41 -108 -94 -151 -107 -61 -18 -90 -37
-90 -61 0 -31 41 -58 72 -48 13 4 26 8 29 9 3 0 35 19 70 41 152 98 199 168
196 287 -2 64 -6 78 -36 120 -19 27 -46 56 -61 65 -14 10 -46 34 -69 54 -43
37 -43 37 -36 88 5 36 16 62 36 85 16 18 29 37 29 43 0 17 69 52 104 52 29 0
35 4 39 28 5 21 0 32 -19 50 -35 31 -60 27 -124 -17z"/>
<path d="M11263 1873 c-49 -17 -106 -77 -153 -160 -25 -44 -33 -72 -37 -130
-9 -110 6 -131 138 -203 60 -33 117 -83 119 -106 5 -44 -2 -66 -26 -89 -48
-45 -133 -96 -189 -114 -31 -10 -58 -21 -61 -23 -9 -10 16 -57 36 -68 19 -10
32 -7 83 21 178 94 228 143 243 237 8 51 -16 104 -65 140 -20 15 -42 32 -48
39 -7 6 -38 26 -68 43 -30 17 -60 40 -65 50 -32 60 18 198 96 263 28 24 36 26
53 16 47 -30 102 41 65 82 -20 22 -60 23 -121 2z"/>
<path d="M10033 1870 c-28 -12 -29 -39 -3 -73 11 -14 20 -29 20 -34 0 -4 11
-25 25 -44 13 -20 29 -59 36 -85 7 -27 18 -61 25 -76 8 -15 19 -50 25 -78 7
-31 23 -65 40 -85 16 -18 29 -43 29 -56 0 -26 -22 -95 -47 -149 -52 -112 -66
-187 -38 -210 18 -15 45 -6 45 15 0 8 6 15 14 15 8 0 21 24 31 58 9 31 37 113
62 182 24 69 55 168 68 221 13 53 30 110 39 127 9 17 16 37 16 44 0 8 16 46
35 87 19 40 35 81 35 90 0 44 -79 70 -99 32 -6 -10 -12 -33 -15 -52 -4 -35
-26 -101 -50 -154 -8 -16 -20 -58 -27 -92 -7 -35 -15 -63 -19 -63 -17 1 -30
23 -50 90 -39 130 -82 218 -134 278 -21 24 -29 25 -63 12z"/>
<path d="M10907 1866 c-3 -8 -2 -28 3 -45 9 -33 5 -697 -5 -795 -9 -81 3 -106
49 -106 51 0 59 17 51 112 -4 46 -8 183 -8 305 -1 122 -5 225 -9 229 -4 4 -4
12 1 18 4 6 11 68 15 138 5 108 4 129 -10 142 -20 20 -80 21 -87 2z"/>
<path d="M8477 1853 c-4 -3 -7 -21 -7 -39 0 -19 -11 -57 -24 -86 -33 -75 -96
-234 -96 -245 0 -10 -34 -79 -48 -96 -5 -7 -13 -28 -17 -47 -4 -19 -15 -60
-25 -90 -11 -30 -29 -88 -41 -128 l-22 -73 25 -26 26 -26 34 21 c49 31 62 56
47 96 -12 32 -6 108 9 133 4 6 34 16 67 22 33 5 86 16 118 23 46 10 60 10 66
0 4 -7 13 -61 20 -120 10 -89 16 -111 35 -130 23 -23 24 -23 56 -7 34 18 35
27 16 135 -8 43 -25 154 -31 195 -10 84 -27 170 -35 186 -6 10 -10 32 -10 50
0 45 -46 224 -63 247 -10 12 -89 17 -100 5z m65 -230 c26 -89 49 -216 40 -224
-4 -3 -41 -11 -82 -18 -41 -7 -83 -15 -92 -17 -14 -4 -18 1 -18 23 0 16 5 34
12 41 6 6 17 26 24 44 66 173 80 208 89 208 6 0 18 -26 27 -57z"/>
<path d="M9725 1828 c-3 -10 -2 -171 3 -378 2 -45 -6 -267 -12 -338 -5 -68 -3
-87 11 -108 16 -25 20 -26 77 -19 75 8 115 8 183 -1 57 -7 62 -4 66 51 2 26
-2 30 -43 42 -25 8 -77 14 -117 14 -44 -1 -75 3 -79 10 -4 7 -7 170 -8 363 -1
193 -5 357 -9 364 -5 6 -22 12 -38 12 -16 0 -32 -6 -34 -12z"/>
<path d="M8747 1798 c-3 -12 -1 -30 5 -42 15 -28 30 -300 27 -491 -6 -300 -6
-307 14 -319 13 -8 24 -7 45 4 l27 16 -2 272 c-1 150 2 272 7 272 5 0 22 -44
39 -97 17 -54 42 -127 55 -163 13 -36 29 -88 36 -116 27 -121 94 -234 138
-234 23 0 46 25 59 66 15 45 6 807 -10 832 -10 15 -79 16 -95 0 -16 -16 -15
-61 2 -103 10 -24 15 -75 15 -167 1 -73 3 -146 5 -163 13 -94 17 -233 7 -239
-6 -4 -16 4 -22 21 -6 15 -17 39 -24 53 -6 14 -20 52 -29 85 -10 33 -28 80
-41 105 -27 51 -44 113 -51 178 -5 45 -52 130 -93 166 -12 11 -31 35 -42 53
-25 39 -63 46 -72 11z"/>
<path d="M13994 1326 c-10 -7 -55 -27 -99 -45 -44 -18 -96 -41 -115 -52 -52
-27 -159 -66 -203 -74 -21 -3 -52 -14 -70 -24 -34 -20 -104 -44 -252 -87 -49
-15 -108 -33 -129 -41 -41 -15 -94 -27 -181 -43 -27 -5 -79 -18 -115 -29 -204
-63 -436 -97 -517 -75 -21 6 -22 8 -8 35 19 36 19 53 -1 70 -33 28 -81 37
-141 27 -32 -6 -106 -7 -165 -4 -100 6 -109 5 -128 -14 -17 -17 -20 -28 -14
-53 3 -18 10 -34 13 -37 4 -3 15 -16 24 -30 29 -42 189 -199 210 -206 23 -7
67 22 84 57 12 24 18 25 175 38 164 12 342 42 379 62 18 9 95 30 257 69 23 5
53 10 67 10 13 0 26 4 29 9 3 4 27 14 53 21 27 7 53 16 58 20 6 3 28 11 50 17
83 22 252 76 290 93 22 9 67 25 100 35 66 19 183 68 290 122 112 57 137 90 97
126 -15 14 -21 15 -38 3z"/>
</g>
</svg>
