<?xml version="1.0" standalone="no"?>
<!DOCTYPE svg PUBLIC "-//W3C//DTD SVG 20010904//EN"
 "http://www.w3.org/TR/2001/REC-SVG-20010904/DTD/svg10.dtd">
<svg version="1.0" xmlns="http://www.w3.org/2000/svg"
 width="911.802276pt" height="400.000000pt" viewBox="0 0 911.802276 400.000000"
 preserveAspectRatio="xMidYMid meet">
<metadata>
Created by potrace 1.16, written by Peter Selinger 2001-2019
</metadata>
<g transform="translate(-8.823885,433.780278) scale(0.027160,-0.027160)"
fill="#444444" stroke="none">
<path d="M32585 15969 c-112 -5 -226 -28 -249 -50 -6 -5 -17 -9 -26 -9 -8 0
-60 -23 -115 -51 -55 -28 -152 -77 -215 -109 -119 -59 -254 -163 -350 -267
-25 -27 -52 -53 -61 -59 -18 -10 -109 -149 -109 -166 0 -6 -15 -30 -34 -53
-41 -49 -191 -127 -321 -166 -22 -6 -130 -55 -240 -109 -110 -53 -216 -102
-235 -110 -19 -7 -42 -19 -50 -25 -8 -7 -59 -33 -113 -60 -147 -71 -396 -235
-507 -332 -21 -18 -41 -33 -46 -33 -5 0 -29 -16 -53 -35 -24 -19 -47 -35 -51
-35 -3 0 -56 -33 -117 -72 -60 -40 -140 -91 -178 -113 -37 -22 -84 -55 -105
-72 -20 -18 -42 -33 -48 -33 -6 0 -32 -18 -60 -39 -27 -22 -71 -50 -98 -64
-27 -14 -60 -37 -74 -52 -14 -15 -38 -34 -55 -42 -16 -9 -52 -35 -80 -58 -73
-61 -172 -136 -238 -179 -32 -21 -78 -58 -103 -82 -24 -24 -47 -44 -50 -44 -3
0 -38 -26 -77 -58 -40 -31 -85 -66 -101 -76 -16 -10 -58 -45 -92 -77 -35 -33
-67 -59 -72 -59 -5 0 -42 -25 -82 -56 -41 -31 -101 -69 -134 -86 l-61 -31 -36
21 c-25 15 -69 24 -145 32 -161 17 -348 63 -529 131 -27 10 -76 25 -109 33
-32 9 -63 20 -70 25 -6 4 -22 12 -36 16 -14 4 -43 16 -65 25 -78 35 -221 79
-275 86 -30 4 -88 17 -128 30 -40 13 -87 24 -105 24 -18 0 -59 7 -92 16 -43
11 -127 16 -291 19 -126 2 -250 9 -275 14 -132 31 -606 19 -748 -19 -97 -26
-137 -26 -151 0 -6 11 -17 20 -25 20 -7 0 -26 11 -42 24 -29 24 -122 76 -136
76 -5 0 -27 15 -50 34 -23 18 -62 44 -87 56 -25 13 -67 34 -93 47 -55 28 -91
30 -247 15 -118 -11 -247 -36 -300 -57 -19 -8 -73 -21 -120 -30 -79 -16 -143
-40 -215 -82 -61 -36 -201 -139 -236 -173 -19 -19 -84 -80 -142 -134 -59 -55
-110 -109 -113 -120 -4 -12 -17 -34 -29 -51 -32 -42 -68 -118 -94 -195 -18
-56 -35 -79 -115 -165 -125 -134 -206 -271 -206 -348 0 -33 6 -61 17 -76 10
-16 17 -46 17 -85 l1 -60 45 -8 c42 -7 48 -5 125 46 97 64 150 89 320 151 72
26 137 51 145 56 49 29 146 69 219 89 84 24 84 24 225 8 149 -17 316 -15 354
4 17 9 28 8 49 -3 44 -24 138 -16 218 19 39 16 87 32 107 36 28 5 44 17 67 47
16 23 39 48 50 56 12 8 21 22 21 31 0 9 16 30 35 45 52 41 78 98 70 152 l-7
43 54 15 c106 30 182 31 327 2 111 -22 161 -27 295 -27 88 0 179 -4 201 -8
124 -26 190 -47 193 -60 1 -9 -47 -61 -110 -119 -62 -58 -137 -133 -167 -169
l-53 -64 -72 7 c-63 5 -81 3 -141 -20 -38 -14 -90 -39 -116 -55 -25 -17 -50
-30 -55 -30 -12 0 -82 -72 -116 -120 -20 -27 -27 -53 -32 -110 -14 -144 -1
-199 49 -222 14 -6 25 -15 25 -19 0 -5 27 -22 61 -39 54 -26 71 -30 147 -30
162 0 291 58 382 172 27 33 33 51 37 102 7 76 -7 121 -53 182 -34 45 -42 68
-25 79 5 3 15 22 21 43 7 21 36 62 68 95 111 115 224 222 252 238 15 10 32 32
39 49 9 28 14 31 33 25 13 -4 51 -10 85 -15 34 -4 73 -14 85 -22 13 -8 43 -20
68 -27 25 -7 59 -18 75 -23 17 -6 50 -14 75 -18 25 -5 82 -20 128 -34 46 -14
102 -28 125 -31 77 -10 102 -16 167 -35 36 -11 92 -27 125 -37 33 -9 69 -22
80 -30 11 -7 27 -13 37 -13 9 0 21 -8 27 -17 7 -14 -3 -35 -46 -98 -90 -129
-100 -138 -154 -132 -57 7 -105 -9 -200 -67 -45 -27 -101 -51 -144 -61 -133
-32 -307 -138 -362 -221 -34 -51 -47 -133 -33 -217 7 -40 17 -81 23 -92 16
-32 105 -115 123 -115 9 0 30 -6 47 -14 46 -20 191 -37 267 -32 36 3 113 19
171 37 94 28 115 39 178 91 39 32 85 80 102 106 28 45 29 51 24 122 -10 134
-27 224 -52 274 -28 55 -25 103 6 134 10 9 31 35 47 57 16 22 40 53 54 69 14
16 38 45 54 63 20 23 34 32 45 27 16 -7 169 -62 296 -107 39 -14 97 -33 130
-42 33 -9 66 -22 73 -27 24 -20 13 -81 -33 -168 -7 -14 -39 -90 -70 -170 -32
-80 -61 -149 -65 -155 -3 -5 -12 -30 -19 -55 -7 -25 -17 -56 -22 -70 -4 -14
-11 -45 -15 -70 -3 -24 -17 -60 -30 -80 -13 -19 -27 -55 -33 -79 -5 -24 -19
-53 -29 -64 -18 -18 -25 -19 -66 -8 -55 14 -114 14 -152 1 -21 -7 -50 -6 -104
5 -59 11 -195 24 -285 27 -5 0 -102 -5 -215 -12 -182 -10 -246 -18 -420 -51
-25 -4 -70 -12 -100 -18 -30 -5 -72 -17 -93 -25 -20 -9 -72 -25 -115 -35 -42
-10 -125 -37 -185 -60 -59 -22 -121 -41 -138 -41 -16 0 -44 -8 -62 -17 -18 -9
-59 -20 -92 -25 -33 -4 -89 -13 -123 -20 -62 -12 -66 -11 -115 14 -29 15 -92
43 -142 64 -49 20 -94 40 -99 45 -16 15 -148 10 -207 -7 -80 -23 -165 -58
-252 -103 -88 -47 -212 -134 -220 -156 -4 -8 -25 -26 -49 -41 -48 -30 -122
-92 -243 -204 -192 -176 -236 -211 -321 -256 -49 -25 -100 -52 -114 -60 -45
-23 -117 -52 -151 -59 -19 -4 -57 -18 -86 -31 -28 -13 -60 -24 -71 -24 -38 0
-63 -50 -46 -95 12 -32 86 -52 402 -110 152 -28 216 -47 298 -89 29 -14 57
-26 63 -26 7 0 37 -8 69 -19 120 -38 172 -52 317 -82 265 -55 281 -57 426 -48
140 8 196 22 299 74 202 102 325 270 375 510 13 65 31 125 40 135 8 9 41 22
73 29 31 6 76 16 100 21 23 6 62 10 87 10 41 0 45 -2 45 -24 0 -46 -206 -433
-277 -521 -13 -15 -23 -33 -23 -41 0 -7 -11 -25 -24 -41 -13 -15 -27 -39 -31
-53 -11 -36 -53 -111 -79 -140 -12 -14 -34 -42 -50 -62 -15 -22 -39 -40 -54
-44 -15 -3 -36 -9 -47 -14 -11 -5 -48 -15 -83 -24 -234 -56 -380 -266 -358
-514 11 -120 78 -242 154 -281 103 -53 373 -42 473 19 25 15 54 30 66 34 34
11 86 71 122 141 31 60 35 77 39 168 8 184 -23 273 -126 373 l-64 61 7 47 c5
29 14 50 25 56 10 6 30 34 45 62 14 29 50 91 80 138 31 47 64 105 76 130 11
24 38 71 60 103 23 33 62 103 88 156 26 53 60 119 76 146 18 30 32 70 35 100
l5 50 70 18 c39 10 90 25 115 33 111 37 242 70 340 85 108 17 355 18 370 3 11
-11 -27 -91 -122 -259 -15 -27 -35 -66 -44 -85 -56 -125 -66 -140 -96 -156
-17 -9 -42 -14 -56 -11 -27 5 -182 -52 -212 -78 -8 -7 -26 -16 -40 -20 -13 -4
-49 -29 -78 -54 -123 -104 -166 -170 -197 -299 -18 -77 -17 -97 10 -207 28
-114 47 -141 148 -208 69 -46 129 -61 225 -55 68 4 87 11 169 54 116 62 208
147 249 229 52 107 44 279 -18 371 -15 23 -35 45 -44 48 -13 5 -15 15 -10 54
4 35 2 53 -9 67 -23 32 -18 66 21 130 20 33 45 84 55 114 11 30 29 68 42 85
12 17 46 79 75 137 68 139 75 144 150 131 82 -15 208 -69 236 -103 13 -15 36
-59 50 -98 24 -61 26 -79 22 -158 -2 -48 0 -125 6 -171 8 -71 7 -88 -7 -119
-9 -19 -20 -59 -24 -87 -4 -29 -15 -63 -24 -76 -9 -14 -17 -35 -17 -48 0 -13
-7 -36 -15 -51 -16 -31 -69 -247 -80 -326 -7 -52 -32 -153 -60 -240 -9 -27
-17 -88 -17 -135 -1 -57 -8 -101 -21 -135 -10 -27 -23 -70 -28 -95 -5 -25 -14
-65 -19 -90 -6 -25 -15 -77 -20 -116 -5 -39 -15 -98 -24 -130 -20 -81 -36
-169 -43 -234 -3 -30 -9 -62 -14 -71 -5 -9 -15 -58 -23 -108 -16 -98 -39 -217
-62 -322 -8 -37 -14 -77 -14 -89 0 -12 -9 -39 -20 -59 -11 -20 -40 -94 -64
-166 -61 -180 -68 -197 -93 -228 -12 -15 -24 -41 -28 -57 -6 -27 -9 -29 -73
-33 -37 -2 -184 -5 -327 -6 -143 -1 -269 -3 -280 -3 -11 -1 -54 2 -95 5 -63 6
-554 21 -685 20 -22 0 -103 -3 -180 -6 -77 -4 -143 -7 -147 -7 -16 0 -48 -41
-48 -60 0 -12 13 -28 31 -39 29 -18 56 -20 303 -21 263 -2 469 -2 590 -1 33 1
76 -4 95 -11 26 -8 119 -11 326 -9 629 6 1423 -4 1543 -19 46 -6 91 -9 100 -6
43 14 226 14 331 0 101 -13 116 -13 136 0 21 14 32 14 100 -1 63 -14 84 -15
121 -5 29 8 79 10 142 6 53 -4 153 -1 222 5 136 12 325 13 577 5 144 -5 164
-4 169 10 4 9 28 26 55 37 27 12 49 27 49 34 0 6 -15 29 -32 49 l-33 38 -95
-11 c-52 -6 -185 -10 -295 -10 -110 0 -252 -5 -315 -10 -63 -6 -194 -11 -290
-13 l-175 -3 -7 45 c-3 25 -13 96 -22 159 -8 62 -20 118 -25 125 -5 6 -15 41
-21 76 -22 121 -29 155 -45 220 -23 91 -33 232 -40 535 -3 143 -9 271 -12 285
-3 14 -6 57 -7 95 -1 39 -8 103 -14 143 -14 86 -40 427 -48 637 -6 146 6 336
26 400 5 17 11 41 14 55 2 14 11 60 20 103 18 84 12 110 -25 122 -17 6 -19 12
-14 33 10 44 62 143 105 202 22 30 51 71 64 90 40 59 98 108 161 135 33 15 71
32 85 39 34 17 165 52 250 66 25 5 74 13 110 20 105 19 400 17 495 -4 110 -24
157 -40 166 -57 4 -8 15 -57 25 -109 20 -104 28 -469 12 -526 -8 -31 -24 -42
-113 -79 -22 -9 -55 -31 -74 -50 -19 -19 -38 -35 -42 -35 -5 0 -27 -28 -50
-62 -50 -75 -69 -158 -65 -280 3 -103 25 -171 72 -223 20 -22 43 -50 52 -63 8
-13 32 -32 53 -43 21 -10 46 -30 55 -44 9 -14 23 -25 31 -25 8 0 28 -7 46 -16
40 -21 149 -44 207 -44 49 0 161 37 224 74 65 38 224 196 231 231 4 17 13 53
21 80 18 66 19 179 2 237 -14 47 -81 139 -155 210 -43 42 -106 68 -165 68 -21
0 -53 8 -71 17 -18 9 -50 19 -72 22 l-40 6 -7 80 c-4 44 -12 157 -18 250 -5
94 -14 198 -18 233 -4 34 -5 68 -1 74 6 9 25 9 81 -1 40 -7 118 -17 173 -23
55 -6 103 -16 107 -22 4 -6 8 -29 8 -52 0 -22 3 -44 8 -48 4 -4 12 -20 17 -36
15 -43 98 -150 201 -259 50 -53 99 -112 108 -131 16 -34 37 -50 170 -123 52
-29 65 -38 165 -115 30 -23 65 -44 76 -46 11 -2 47 -9 80 -16 33 -6 100 -13
149 -16 50 -2 99 -7 110 -11 48 -15 93 -3 271 76 83 37 218 63 296 57 86 -6
206 -41 229 -66 3 -3 29 -21 59 -40 57 -36 65 -42 150 -115 30 -26 72 -55 95
-65 23 -9 57 -32 76 -50 19 -18 60 -50 90 -70 30 -21 73 -56 94 -79 48 -49
110 -64 152 -36 24 16 26 21 20 64 -3 25 -15 57 -25 71 -10 14 -28 63 -39 108
-12 45 -28 95 -36 110 -7 15 -26 61 -42 102 -15 41 -44 111 -65 155 -21 44
-53 121 -72 171 -18 50 -47 111 -63 135 -44 65 -90 178 -78 193 49 67 47 61
20 104 -14 22 -36 44 -48 48 -40 12 -89 56 -124 111 -19 29 -34 56 -34 60 0
20 -82 121 -164 203 -53 52 -96 103 -96 113 0 18 -5 21 -50 31 -14 3 -54 33
-90 66 -38 35 -83 67 -110 76 -25 9 -63 25 -85 35 -22 10 -65 24 -95 30 -30 6
-64 18 -75 25 -54 34 -308 52 -393 28 -29 -9 -64 -17 -75 -19 -70 -8 -116 -19
-142 -34 -17 -10 -53 -20 -81 -24 -28 -3 -81 -19 -118 -36 -36 -17 -69 -31
-73 -31 -18 0 -73 -47 -73 -62 0 -26 -41 -23 -101 8 -39 19 -71 26 -137 30
-109 6 -514 48 -732 75 -223 28 -346 37 -599 43 -243 6 -246 7 -231 71 16 67
22 215 12 300 -7 63 -5 110 10 220 10 77 23 178 28 225 11 106 45 233 86 328
8 18 14 41 14 52 0 10 6 23 13 27 6 4 19 20 27 34 83 147 227 314 400 465 52
45 124 110 160 144 113 107 387 320 411 320 17 0 63 -78 76 -128 8 -32 18 -61
23 -67 4 -5 14 -30 21 -55 7 -25 16 -49 20 -55 4 -5 10 -32 14 -60 4 -27 12
-55 17 -61 4 -7 11 -47 13 -90 l5 -79 -90 -95 c-68 -72 -101 -118 -138 -190
-48 -91 -50 -98 -50 -179 0 -46 3 -91 8 -100 4 -9 14 -32 23 -51 22 -51 111
-160 131 -160 6 0 27 -11 46 -23 51 -34 132 -48 201 -33 55 11 219 98 219 115
0 5 20 19 45 31 75 36 123 110 143 220 15 81 -18 251 -56 294 -10 11 -28 37
-40 56 -27 46 -137 151 -185 178 -26 15 -55 22 -93 22 -64 0 -64 -1 -95 145
-23 106 -52 197 -90 280 -30 66 -59 144 -59 161 0 12 131 104 148 104 6 0 33
17 61 38 29 20 92 66 140 101 48 35 133 87 187 115 55 28 115 63 134 76 50 37
142 91 249 146 l93 49 24 -30 c21 -26 84 -197 84 -227 0 -5 6 -24 14 -41 19
-43 53 -153 62 -202 4 -22 15 -58 25 -80 11 -24 19 -64 19 -98 0 -55 -2 -60
-45 -105 -121 -131 -155 -385 -64 -484 16 -16 29 -32 29 -34 0 -3 17 -22 38
-44 48 -48 104 -65 186 -55 82 9 153 52 233 141 84 94 107 154 107 274 -1 113
-35 199 -110 276 -58 60 -85 67 -127 34 -14 -11 -31 -20 -39 -20 -24 0 -113
75 -116 99 -2 12 -19 64 -39 114 -19 51 -38 106 -43 122 -5 17 -18 62 -30 100
-11 39 -30 103 -40 143 -11 41 -29 94 -40 119 -11 25 -20 49 -20 53 0 8 74 69
192 158 50 38 216 119 291 142 16 5 48 21 72 35 54 31 142 34 162 4 14 -19
214 -119 276 -139 43 -13 275 -40 349 -40 26 0 59 5 75 11 74 28 189 127 258
224 52 73 228 237 280 262 28 13 82 42 120 64 106 62 215 91 375 99 74 4 152
11 172 15 26 5 52 2 87 -11 44 -16 56 -16 105 -4 31 7 61 19 66 25 19 23 -7
62 -102 152 -50 48 -113 108 -138 133 -49 47 -78 74 -175 155 -32 28 -73 63
-90 79 -56 53 -145 115 -208 144 -35 17 -69 37 -76 45 -7 9 -36 23 -64 33 -29
9 -56 20 -62 24 -29 21 -237 37 -390 29z m172 -136 c3 -7 -35 -52 -84 -100
-49 -48 -102 -108 -119 -133 -32 -48 -116 -99 -239 -145 -33 -13 -73 -30 -90
-39 -16 -8 -61 -27 -100 -42 -38 -14 -95 -39 -125 -54 -76 -39 -100 -45 -100
-26 0 8 4 17 9 20 17 11 43 109 36 143 -5 30 -9 33 -40 33 -29 0 -36 -4 -41
-27 -4 -16 -19 -56 -35 -91 -21 -46 -28 -76 -26 -113 2 -56 -1 -60 -102 -129
-91 -62 -101 -72 -142 -126 -47 -64 -71 -79 -99 -64 -27 15 -25 23 14 62 22
22 41 55 54 98 32 101 45 131 76 184 41 69 221 248 278 275 25 12 57 33 70 46
13 13 37 27 53 31 17 4 39 13 50 20 11 7 45 22 75 34 30 12 62 28 70 35 8 7
37 20 63 29 27 9 62 23 78 32 86 44 405 80 416 47z m245 -39 c66 -25 89 -36
138 -68 60 -40 106 -83 97 -92 -4 -4 -32 -2 -62 5 -65 15 -303 15 -340 1 -38
-15 -115 -13 -115 3 0 6 30 32 68 57 37 25 82 60 100 78 37 36 54 39 114 16z
m78 -284 c91 -6 144 -16 197 -34 41 -15 94 -26 122 -26 39 0 53 -4 60 -19 6
-10 21 -21 35 -25 34 -8 86 -63 86 -91 0 -29 -33 -38 -104 -30 -114 14 -356
-45 -446 -108 -33 -23 -75 -4 -149 70 -35 34 -68 63 -73 63 -5 0 -29 13 -52
29 -57 39 -89 47 -110 26 -18 -18 -20 -31 -7 -39 5 -3 7 -15 4 -26 -3 -11 0
-20 6 -20 6 0 17 -11 23 -25 6 -14 19 -25 29 -25 11 0 45 -20 76 -44 32 -24
67 -45 78 -48 30 -6 21 -48 -18 -78 -18 -14 -71 -62 -119 -107 -120 -113 -137
-116 -248 -38 -190 132 -232 157 -330 190 -116 41 -144 53 -148 63 -5 15 120
79 219 112 49 16 142 56 207 89 147 74 214 100 294 112 35 5 86 15 113 23 60
17 93 18 255 6z m-1111 -422 c31 -24 61 -48 66 -54 22 -25 180 -84 225 -84 16
0 86 -56 189 -151 71 -66 72 -83 5 -118 -24 -13 -44 -27 -44 -31 0 -21 -66
-29 -215 -26 -174 3 -198 9 -275 65 -24 17 -46 31 -50 31 -4 0 -24 7 -45 16
-35 14 -36 16 -20 34 11 12 14 26 10 40 -5 15 0 29 15 45 33 36 23 59 -30 66
-40 6 -50 3 -95 -27 -49 -33 -85 -44 -85 -24 0 22 58 90 109 126 29 22 74 57
100 80 39 35 61 49 80 53 2 1 29 -18 60 -41z m-671 -179 c22 -33 79 -67 114
-68 10 -1 25 -13 34 -27 22 -32 12 -42 -70 -72 -58 -22 -194 -111 -230 -151
-11 -12 -47 -38 -80 -58 -34 -20 -92 -56 -131 -81 -74 -49 -170 -105 -220
-130 -16 -8 -44 -25 -60 -37 -42 -31 -261 -145 -279 -145 -8 0 -33 -16 -57
-36 -23 -19 -56 -42 -73 -51 -17 -8 -58 -41 -91 -73 -38 -36 -95 -77 -154
-108 -52 -27 -121 -71 -155 -97 -33 -25 -83 -60 -111 -76 -59 -35 -184 -124
-239 -171 -33 -28 -150 -134 -380 -344 -26 -25 -60 -51 -76 -59 -15 -8 -34
-24 -43 -37 -8 -13 -37 -45 -62 -73 -127 -136 -223 -260 -254 -330 -12 -27
-31 -67 -41 -87 -11 -20 -20 -46 -20 -57 0 -11 -11 -53 -24 -93 -25 -75 -44
-177 -52 -282 -2 -33 -11 -98 -19 -145 -13 -72 -14 -119 -5 -290 11 -220 7
-261 -33 -293 -20 -15 -20 -18 -5 -50 9 -18 22 -47 28 -64 20 -55 36 -58 375
-64 222 -5 331 -11 385 -22 162 -34 272 -50 303 -44 19 3 47 2 63 -3 27 -8
170 -28 254 -36 259 -23 299 -29 355 -52 33 -13 68 -28 77 -33 10 -6 67 -12
127 -16 118 -6 110 -8 179 53 33 31 177 113 196 113 9 0 35 9 58 19 141 63
164 70 228 69 65 0 157 -24 290 -75 36 -14 89 -27 118 -30 42 -5 60 -13 83
-36 17 -16 27 -33 22 -37 -13 -12 -156 -30 -236 -30 -110 0 -251 -25 -284 -49
-27 -20 -33 -21 -138 -10 -61 6 -132 8 -160 5 -27 -4 -86 -11 -130 -16 -44 -5
-96 -12 -115 -15 -19 -3 -73 -11 -120 -18 -120 -18 -170 -49 -199 -124 -28
-70 26 -94 107 -47 24 14 48 22 53 17 4 -4 11 -110 14 -236 6 -200 5 -227 -9
-227 -8 0 -23 12 -33 26 -10 14 -35 45 -55 69 -33 41 -54 93 -73 184 -17 80
-90 201 -121 201 -8 0 -28 -14 -45 -31 -27 -27 -37 -30 -68 -26 -20 3 -92 13
-161 22 -69 9 -159 24 -200 32 -199 40 -239 44 -475 45 -174 1 -246 -2 -263
-11 -24 -13 -193 -41 -249 -41 -21 0 -80 -23 -161 -64 -148 -75 -212 -118
-244 -166 -32 -48 -91 -145 -134 -221 -20 -35 -45 -79 -55 -97 -11 -18 -19
-52 -19 -75 -1 -23 -7 -60 -15 -82 -21 -57 -19 -67 20 -93 44 -28 44 -51 5
-212 -5 -19 -14 -87 -21 -150 -11 -111 -8 -201 17 -490 3 -36 7 -94 9 -130 2
-36 8 -112 14 -170 22 -240 29 -366 30 -569 1 -117 3 -217 6 -221 2 -4 7 -43
10 -86 11 -155 13 -180 20 -227 4 -26 11 -50 16 -53 5 -3 9 -16 9 -29 0 -14 4
-44 10 -67 32 -141 40 -183 50 -276 17 -149 1 -226 -45 -208 -31 12 -535 29
-745 26 -267 -5 -292 -5 -425 9 -71 7 -134 13 -140 13 -212 -18 -228 -13 -171
63 20 26 36 52 36 59 0 7 9 21 21 32 31 28 59 88 59 126 0 18 9 57 20 86 11
29 20 59 20 68 0 8 9 27 20 43 13 16 25 55 31 97 5 38 14 85 19 104 5 19 12
64 16 100 4 36 11 76 16 90 12 31 32 121 58 260 11 58 31 166 45 240 13 74 25
151 25 171 0 20 4 49 9 65 19 62 52 212 60 279 5 39 26 124 45 190 59 197 76
264 86 334 18 126 38 216 60 264 11 26 27 75 35 110 7 34 29 97 49 139 20 42
36 83 36 91 0 8 -10 27 -22 42 -22 29 -29 70 -57 355 -9 87 -12 97 -38 118
-15 12 -45 27 -65 33 -21 5 -70 25 -110 44 -40 19 -82 35 -94 35 -12 0 -27 7
-34 15 -8 10 -30 15 -62 15 -27 0 -62 7 -79 15 -21 12 -34 13 -48 5 -11 -5
-75 -10 -144 -10 -68 0 -127 -3 -130 -6 -4 -4 -62 -8 -129 -9 -119 -3 -152 -5
-248 -20 -45 -7 -126 -32 -145 -45 -5 -4 -39 -13 -75 -20 -36 -7 -75 -19 -88
-27 -12 -8 -37 -15 -55 -17 -58 -6 -172 -27 -192 -36 -23 -10 -76 -16 -218
-26 -130 -9 -137 -17 -137 -153 0 -113 -26 -226 -63 -274 -13 -18 -27 -42 -31
-54 -12 -37 -82 -119 -123 -143 -21 -13 -51 -35 -68 -50 -21 -19 -53 -32 -109
-44 -44 -9 -85 -21 -90 -25 -17 -14 -173 -14 -253 0 l-73 13 0 33 c0 19 6 44
14 56 8 12 17 38 21 57 4 19 18 49 32 66 13 17 34 59 47 93 14 33 34 74 45 90
12 16 21 32 21 36 0 5 16 41 35 81 19 40 35 78 35 86 1 7 7 30 15 52 13 37 13
39 -20 75 -44 47 -66 36 -81 -40 -9 -46 -83 -218 -115 -269 -5 -8 -17 -31 -26
-50 -9 -19 -28 -60 -44 -90 -15 -30 -30 -72 -34 -92 -4 -21 -11 -38 -17 -38
-5 0 -20 -25 -34 -55 -33 -72 -52 -77 -164 -40 -47 15 -101 32 -120 38 -123
35 -122 42 26 202 61 67 109 139 139 211 33 79 48 100 90 121 16 9 76 47 133
84 57 38 111 69 120 69 9 0 30 7 46 15 15 8 44 15 63 15 19 0 46 6 61 14 15 7
45 16 67 19 22 3 72 13 110 21 86 19 172 12 180 -15 9 -27 -23 -362 -39 -411
-8 -24 -17 -55 -20 -70 -3 -15 -15 -32 -26 -38 -11 -6 -20 -17 -20 -25 0 -16
15 -21 86 -30 l50 -6 12 38 c6 21 16 76 21 123 6 47 17 131 26 188 9 57 15
109 13 115 -1 7 4 44 11 83 16 83 10 116 -24 146 -14 12 -25 25 -25 29 0 4 19
16 43 27 39 18 96 32 272 67 39 7 97 26 130 40 33 15 71 29 85 30 14 2 45 10
70 19 25 8 72 21 105 27 33 7 83 20 110 29 28 10 77 23 110 29 33 7 97 21 141
31 45 11 99 20 120 20 22 0 72 7 112 15 81 17 230 20 435 10 126 -7 139 -10
163 -32 21 -19 34 -24 58 -19 17 3 63 8 101 12 62 6 73 4 94 -15 27 -23 45
-21 99 11 37 23 65 72 83 144 7 27 22 69 35 94 13 25 35 95 50 155 15 63 45
149 70 201 24 50 44 95 44 100 0 15 125 281 158 335 15 24 14 29 -9 74 -13 27
-33 53 -44 59 -11 6 -31 17 -45 26 -14 9 -61 24 -105 34 -44 10 -114 31 -155
47 -113 42 -169 59 -238 74 -34 7 -68 17 -75 22 -6 6 -34 16 -62 23 -27 6 -75
23 -105 37 -30 14 -91 34 -135 45 -44 10 -102 27 -130 37 -27 10 -85 21 -127
25 -80 7 -189 36 -318 86 -137 53 -194 70 -235 70 -22 1 -65 7 -95 14 -30 7
-87 14 -126 15 -74 2 -193 25 -324 61 -41 12 -102 21 -135 21 -79 0 -319 27
-353 40 -36 14 -177 13 -203 -2 -12 -6 -39 -11 -61 -11 -30 1 -44 7 -63 31
-30 35 -121 97 -156 106 -19 5 -32 22 -52 68 -51 118 -85 264 -71 300 12 32
49 17 196 -80 40 -26 86 -55 101 -63 28 -14 63 -51 99 -103 18 -26 67 -42 83
-26 5 5 25 9 45 9 19 0 69 10 110 21 146 41 315 51 620 39 478 -20 603 -28
695 -44 50 -9 123 -21 164 -26 41 -6 88 -14 105 -20 17 -5 65 -18 106 -29 92
-24 297 -96 315 -111 7 -6 43 -21 81 -34 38 -13 87 -33 109 -45 22 -11 45 -21
50 -21 6 0 40 -20 76 -43 80 -54 113 -62 149 -35 27 19 27 19 114 -2 49 -12
90 -19 93 -16 3 3 27 -4 53 -14 39 -15 54 -17 78 -8 23 9 33 8 51 -4 18 -13
30 -14 59 -6 45 12 128 54 137 68 3 6 30 25 58 44 29 18 75 53 102 78 28 24
71 56 98 72 26 15 54 37 62 50 9 13 41 42 73 64 31 22 69 51 84 63 25 22 87
71 291 226 162 123 288 214 352 251 28 17 77 55 110 86 33 31 68 56 77 56 9 0
24 8 34 17 9 10 28 23 41 30 22 11 23 11 17 -15 -8 -35 -29 -57 -144 -157 -52
-45 -150 -134 -217 -198 -67 -65 -126 -117 -130 -117 -4 0 -46 -36 -92 -80
-60 -57 -81 -84 -74 -91 8 -8 22 -4 50 15 45 31 172 145 222 201 20 21 47 48
60 60 13 11 63 56 110 100 208 194 354 321 380 332 15 6 33 19 40 27 11 13 10
17 -10 25 -23 9 -23 9 -4 17 28 11 109 68 179 127 33 27 82 60 110 73 28 13
78 48 111 78 33 29 77 58 97 65 20 7 56 27 80 45 24 18 60 38 80 45 20 7 42
19 48 27 7 7 18 14 24 14 14 0 157 75 202 106 16 11 49 28 74 38 25 9 77 33
115 52 72 37 382 145 400 140 6 -1 20 -18 33 -37z m-6961 -1346 c35 -48 43
-69 58 -151 12 -65 15 -104 8 -121 -9 -26 -9 -26 -113 -23 -112 2 -130 10
-130 57 0 59 -112 154 -211 180 -68 18 -78 29 -45 50 49 33 185 61 300 63 l92
1 41 -56z m7113 -80 c34 -23 36 -28 60 -107 30 -97 21 -159 -34 -240 -56 -81
-169 -161 -226 -160 -43 2 -117 48 -154 97 -49 66 -8 245 78 336 42 45 95 74
118 66 7 -3 31 2 53 10 53 19 76 18 105 -2z m-7520 -71 c59 -24 81 -39 104
-71 36 -50 27 -66 -42 -76 -70 -10 -213 -45 -247 -61 -16 -8 -87 -30 -157 -49
-126 -34 -178 -54 -208 -81 -9 -7 -34 -20 -57 -28 -22 -8 -60 -26 -83 -41 -23
-14 -48 -24 -56 -21 -26 10 -14 44 40 114 63 80 298 292 324 292 9 0 42 17 72
37 30 20 68 39 85 43 34 7 114 -13 225 -58z m308 -255 c13 -15 -2 -94 -22
-117 -8 -8 -23 -35 -34 -60 -12 -25 -44 -88 -73 -140 -28 -52 -58 -107 -66
-122 -8 -15 -18 -30 -23 -33 -4 -3 -11 -23 -15 -44 -4 -22 -12 -41 -18 -44 -7
-2 -88 2 -182 10 -93 8 -181 12 -195 9 -31 -5 -135 -44 -212 -80 -31 -14 -64
-26 -72 -26 -21 0 -20 34 1 51 9 8 25 33 35 56 10 24 67 92 132 160 130 135
187 205 213 259 20 42 42 56 123 78 30 8 74 19 96 25 23 6 68 11 100 12 33 1
84 4 114 9 83 11 87 11 98 -3z m226 -32 c29 -14 67 -28 84 -31 47 -10 58 -28
31 -53 -13 -12 -30 -21 -39 -21 -9 0 -22 -12 -29 -27 -11 -24 -10 -29 6 -40
10 -7 27 -21 38 -30 12 -10 34 -16 57 -14 32 1 38 -1 38 -18 0 -11 -10 -32
-23 -48 -12 -15 -35 -47 -51 -70 -44 -65 -70 -88 -154 -131 -72 -37 -85 -40
-189 -47 -127 -8 -133 -4 -93 60 11 18 29 59 40 91 11 32 27 65 34 73 8 9 24
40 36 70 11 30 31 67 44 81 12 15 31 56 40 91 28 100 40 106 130 64z m-950
-134 c11 -17 -12 -56 -71 -121 -33 -36 -63 -75 -67 -87 -4 -13 -12 -23 -17
-23 -12 0 -124 -114 -160 -164 -16 -21 -29 -47 -29 -56 0 -22 52 -59 58 -42 5
15 32 16 32 2 0 -12 -70 -44 -120 -55 -19 -4 -68 -23 -109 -41 -40 -19 -79
-34 -87 -34 -30 0 -25 42 15 128 23 49 41 92 41 96 0 4 13 35 30 70 35 76 146
184 237 231 32 16 78 41 103 55 78 44 133 59 144 41z m6712 -69 c17 -9 55 -44
85 -78 43 -48 59 -77 78 -136 31 -101 32 -189 3 -245 -21 -40 -111 -123 -134
-123 -5 0 -24 -11 -43 -25 -18 -14 -58 -35 -89 -45 -141 -50 -260 1 -306 133
-37 104 -20 211 45 283 85 95 138 140 203 175 37 19 71 45 77 57 12 26 38 28
81 4z m-4776 -578 c75 -41 130 -129 130 -207 -1 -58 -27 -87 -130 -144 -72
-40 -158 -50 -260 -29 -80 17 -134 55 -143 102 -14 75 34 166 129 244 38 31
57 40 89 41 22 0 49 4 60 9 25 11 91 2 125 -16z m1445 -240 c56 -32 74 -84 77
-209 1 -75 -2 -98 -21 -137 -27 -56 -38 -66 -121 -113 -67 -39 -107 -47 -281
-61 -57 -5 -95 -2 -149 11 -82 20 -124 51 -154 112 -10 21 -22 46 -27 55 -13
25 -11 46 5 76 8 15 20 46 27 70 9 32 24 51 63 81 115 86 212 118 382 126 71
4 131 9 133 11 9 8 23 3 66 -22z m-1976 -1020 c29 -13 61 -24 70 -24 25 0 78
-51 85 -82 8 -37 -18 -38 -50 -3 -13 14 -33 25 -46 25 -13 1 -34 7 -48 15 -14
8 -40 14 -58 15 -18 0 -45 6 -60 14 -15 8 -44 17 -65 21 -20 4 -37 13 -37 20
0 38 123 37 209 -1z m-285 -71 c7 -8 80 -28 141 -40 27 -5 54 -27 55 -44 0 -8
-38 -22 -120 -44 -168 -45 -253 -86 -345 -165 -26 -22 -52 -40 -59 -40 -7 0
-30 -13 -51 -30 -21 -16 -46 -30 -55 -30 -10 0 -20 -6 -23 -14 -3 -7 -23 -16
-45 -20 -22 -3 -53 -16 -69 -29 -38 -32 -177 -107 -197 -107 -9 0 -16 4 -16 9
0 4 44 50 97 102 53 52 106 103 117 114 12 11 42 36 68 55 26 19 52 45 59 56
6 12 38 37 71 55 33 19 74 45 92 59 75 61 156 100 236 113 14 2 28 5 31 6 3 0
9 -2 13 -6z m7219 -60 c122 -112 202 -206 193 -228 -4 -13 -20 -16 -71 -14
-49 2 -70 -2 -83 -14 -28 -25 -39 -22 -100 33 -32 28 -91 69 -132 92 -41 22
-82 46 -90 53 -8 6 -35 20 -60 29 -24 10 -61 30 -82 45 l-37 27 102 12 c57 7
116 10 132 7 17 -3 53 -1 80 4 81 14 82 14 148 -46z m-819 -53 c44 -10 83 -25
87 -32 5 -7 9 -38 9 -68 0 -30 5 -89 11 -130 6 -41 14 -113 19 -160 4 -47 13
-132 19 -190 18 -175 20 -359 4 -372 -9 -7 -51 -9 -126 -6 l-113 5 -82 48
c-46 27 -102 64 -125 84 -23 20 -54 42 -68 48 -70 30 -106 122 -115 288 -3 66
-10 134 -15 150 -13 44 -18 171 -11 239 6 55 10 62 42 80 62 37 343 46 464 16z
m356 -85 c25 -9 56 -27 70 -40 23 -22 124 -82 213 -127 l38 -19 -7 -89 c-5
-68 -3 -100 9 -137 21 -64 37 -159 37 -214 0 -25 5 -50 12 -57 9 -9 9 -18 0
-37 -9 -19 -19 -25 -44 -25 -17 0 -45 -4 -62 -10 -64 -20 -153 -49 -224 -74
-81 -28 -112 -24 -112 17 0 121 -11 333 -19 377 -6 30 -13 75 -15 100 -3 25
-10 92 -16 149 -8 83 -9 165 -1 210 2 7 78 -8 121 -24z m724 -245 c26 -9 31
-18 76 -130 44 -109 52 -125 75 -160 13 -19 35 -66 50 -105 14 -38 33 -82 41
-97 11 -21 12 -33 4 -48 -6 -11 -13 -20 -16 -20 -9 0 -47 49 -69 90 -25 45
-71 116 -126 195 -24 33 -63 98 -87 145 -24 47 -53 95 -64 106 -15 17 -16 23
-6 27 22 9 95 7 122 -3z m-253 -97 c61 -52 89 -85 117 -141 57 -115 122 -234
147 -266 14 -18 25 -36 25 -40 0 -4 20 -36 45 -72 25 -36 43 -70 39 -75 -10
-16 -56 -1 -89 30 -16 16 -51 42 -76 59 -25 17 -51 37 -58 46 -9 10 -29 16
-56 16 -25 0 -48 6 -55 15 -11 13 -28 103 -49 265 -5 36 -16 82 -25 104 -18
42 -21 86 -7 86 5 0 24 -12 42 -27z m-7771 -70 c0 -10 -25 -49 -56 -88 -31
-38 -59 -74 -62 -80 -9 -14 -81 -69 -109 -84 -18 -9 -30 -8 -59 4 -20 8 -48
15 -63 15 -47 1 -126 27 -126 41 0 15 130 88 158 89 10 0 34 8 55 19 20 10 53
21 72 25 19 4 64 22 100 40 76 39 90 42 90 19z m2315 -376 c83 -3 95 -6 150
-38 54 -32 62 -41 82 -95 25 -64 24 -141 -1 -215 -16 -46 -106 -151 -163 -189
-51 -35 -122 -60 -166 -60 -47 1 -138 34 -200 74 -52 33 -56 38 -68 93 -29
136 4 254 101 357 61 65 104 89 145 81 17 -4 71 -7 120 -8z m3532 -152 c104
-15 139 -34 200 -107 51 -62 67 -119 59 -210 -5 -60 -11 -80 -38 -118 -85
-120 -199 -202 -298 -214 -65 -8 -190 21 -254 59 -116 68 -181 190 -174 326 4
69 8 79 45 130 62 82 98 112 166 135 69 23 130 22 294 -1z m2543 -88 c31 -28
40 -117 12 -117 -24 1 -135 106 -129 123 3 8 23 14 48 15 33 1 50 -4 69 -21z
m-7112 -289 c52 -35 70 -62 87 -135 19 -76 18 -118 0 -209 -37 -176 -134 -241
-369 -246 -89 -1 -108 1 -149 22 -77 39 -97 67 -109 154 -28 194 63 357 236
421 42 16 78 20 158 20 97 0 107 -2 146 -27z"/>
<path d="M30914 14729 c-33 -17 -68 -39 -79 -49 -11 -10 -61 -39 -111 -64 -51
-26 -97 -53 -104 -61 -6 -8 -27 -19 -46 -25 -59 -20 -136 -75 -277 -202 -68
-61 -25 -43 69 28 48 36 118 81 155 100 37 18 70 38 74 44 4 6 41 28 83 50 87
45 81 42 214 129 89 58 114 81 89 81 -5 0 -35 -14 -67 -31z"/>
<path d="M26535 13220 c-10 -16 136 -113 214 -144 25 -10 57 -26 72 -37 15
-10 42 -22 59 -26 30 -6 32 -5 21 15 -6 11 -21 24 -33 27 -38 11 -110 47 -178
88 -102 63 -149 86 -155 77z"/>
<path d="M26254 13026 c11 -9 25 -16 30 -16 6 0 47 -17 91 -39 145 -72 190
-91 212 -91 11 0 40 -9 64 -20 47 -21 94 -26 104 -11 8 14 -27 30 -74 35 -22
2 -46 8 -53 13 -7 5 -35 16 -63 23 -27 7 -54 16 -60 20 -5 4 -32 14 -60 24
-52 18 -80 29 -130 51 -16 8 -41 16 -55 20 -24 6 -24 5 -6 -9z"/>
<path d="M28131 11792 c-7 -24 -10 -49 -8 -55 2 -7 10 7 16 31 7 24 10 49 8
55 -2 7 -10 -7 -16 -31z"/>
<path d="M28082 11589 c-6 -34 -10 -65 -8 -67 7 -6 29 104 24 118 -2 7 -9 -16
-16 -51z"/>
<path d="M28018 11301 c-5 -18 -8 -50 -7 -70 l1 -36 9 33 c6 19 9 50 7 70 l-3
37 -7 -34z"/>
<path d="M26325 11099 c-152 -24 -193 -33 -230 -52 -61 -31 -95 -57 -95 -73 0
-21 29 -17 90 14 30 15 78 34 105 41 28 7 68 17 90 24 76 22 440 15 635 -12
81 -12 106 -3 69 23 -15 10 -44 16 -79 16 -30 0 -84 4 -120 9 -100 14 -398 20
-465 10z"/>
<path d="M27977 11063 c-9 -47 -37 -217 -37 -227 0 -5 7 -3 15 4 9 7 14 19 11
26 -6 14 18 178 29 207 4 9 3 17 -3 17 -5 0 -12 -12 -15 -27z"/>
<path d="M29105 11078 c-55 -5 -113 -13 -130 -18 -16 -5 -63 -12 -103 -16 -60
-5 -72 -10 -70 -23 4 -23 124 -27 203 -7 84 21 164 26 445 31 135 2 251 4 258
4 6 1 12 5 12 10 0 5 -24 12 -52 15 -99 10 -463 13 -563 4z"/>
<path d="M27917 10655 c-4 -44 -12 -98 -17 -120 -9 -38 -6 -55 6 -42 9 9 26
173 22 210 -2 18 -7 -3 -11 -48z"/>
<path d="M27687 10229 c-2 -8 -14 -45 -26 -84 -37 -122 -71 -248 -71 -268 0
-37 -53 -242 -67 -258 -8 -9 -13 -27 -11 -40 2 -24 -15 -116 -33 -175 -5 -17
-9 -46 -9 -65 0 -19 -7 -44 -15 -56 -8 -12 -18 -43 -21 -70 l-6 -48 25 50 c13
28 32 95 41 150 10 55 26 125 36 155 10 30 24 80 30 110 7 30 20 78 31 105 10
28 23 75 28 105 20 118 44 226 53 244 17 32 37 140 27 150 -5 6 -10 4 -12 -5z"/>
<path d="M27410 9103 c-7 -32 -15 -64 -18 -73 -4 -12 -2 -13 9 -2 14 13 39 85
39 115 0 39 -19 13 -30 -40z"/>
<path d="M27973 8778 c-11 -17 -11 -38 -17 -413 -5 -293 -4 -340 19 -553 14
-128 25 -236 25 -240 0 -4 5 1 11 11 5 9 7 22 3 29 -11 18 -18 348 -16 786 1
229 -2 392 -8 392 -5 0 -12 -6 -17 -12z"/>
<path d="M27636 8729 c-2 -8 -9 -45 -16 -84 -16 -101 -30 -172 -47 -238 -8
-33 -13 -75 -12 -95 2 -21 -2 -59 -9 -87 -13 -52 -42 -307 -36 -314 6 -7 32
113 44 209 20 150 33 231 46 297 9 40 13 77 10 82 -3 5 -1 22 4 37 12 35 32
196 25 202 -2 3 -7 -1 -9 -9z"/>
<path d="M27227 8538 c-3 -13 -17 -54 -32 -93 -14 -38 -30 -95 -35 -125 -5
-30 -14 -82 -21 -115 -6 -33 -13 -80 -15 -105 -2 -25 -12 -94 -23 -155 -11
-60 -23 -135 -26 -166 -3 -32 -10 -72 -15 -90 -6 -19 -9 -56 -9 -84 1 -27 3
-41 6 -30 2 11 8 29 13 40 20 48 24 64 30 135 7 82 82 474 131 685 17 73 22
125 11 125 -5 0 -12 -10 -15 -22z"/>
<path d="M5450 14253 c-14 -3 -53 -18 -88 -34 -53 -25 -66 -36 -82 -72 -17
-40 -119 -152 -220 -242 -50 -45 -159 -184 -190 -242 -11 -21 -20 -48 -20 -60
0 -12 -12 -45 -26 -73 -14 -29 -27 -69 -28 -90 -1 -21 -10 -49 -19 -63 -31
-48 -15 -85 43 -102 14 -4 39 -21 57 -37 70 -67 181 -42 378 87 28 18 82 53
120 78 67 43 173 161 200 220 5 12 12 24 16 27 12 9 79 136 79 151 0 8 9 25
20 39 11 14 20 39 20 55 0 37 30 98 66 136 21 22 25 33 19 58 -9 43 -69 116
-119 146 -37 21 -54 25 -122 24 -43 -1 -90 -4 -104 -6z m110 -140 c0 -17 -17
-31 -66 -57 -63 -34 -154 -112 -154 -132 0 -8 -13 -20 -30 -25 -47 -17 -58
-69 -35 -164 l19 -75 -35 -36 c-68 -71 -229 -164 -284 -164 -12 0 -28 6 -34
14 -15 17 -18 75 -5 84 5 4 22 32 38 62 34 65 115 168 171 219 21 20 57 56 80
80 94 103 173 169 225 190 30 12 110 14 110 4z m30 -204 c0 -11 -11 -45 -25
-75 -14 -30 -25 -61 -25 -68 0 -15 -67 -117 -84 -128 -18 -13 -23 -9 -47 30
-17 28 -22 51 -22 95 1 51 5 62 35 93 60 65 168 99 168 53z"/>
<path d="M4778 12973 c-30 -32 -99 -125 -154 -206 -124 -185 -143 -214 -174
-257 -34 -48 -46 -68 -70 -117 -11 -23 -34 -62 -50 -87 -17 -24 -37 -62 -46
-83 -23 -57 -124 -254 -145 -285 -11 -15 -26 -45 -34 -68 -8 -23 -23 -54 -34
-69 -11 -15 -36 -67 -56 -116 -21 -50 -43 -101 -50 -115 -7 -14 -31 -70 -53
-125 -23 -55 -57 -138 -77 -185 -21 -47 -46 -107 -56 -135 -11 -27 -26 -63
-34 -80 -35 -74 -175 -559 -175 -605 0 -15 -6 -46 -14 -71 -24 -76 -94 -381
-105 -454 -16 -114 -29 -184 -51 -285 -12 -52 -23 -133 -25 -180 -5 -95 -21
-229 -36 -305 -5 -27 -11 -75 -14 -105 -2 -30 -11 -100 -20 -155 -18 -111 -19
-120 -41 -295 -9 -69 -18 -152 -20 -185 -4 -74 -23 -141 -45 -161 -15 -14 -37
-14 -171 -4 -84 6 -182 15 -218 19 -73 9 -425 7 -540 -3 -41 -4 -181 -9 -310
-11 -277 -5 -721 -15 -735 -16 -5 0 -39 1 -74 4 -107 7 -125 -7 -71 -58 29
-28 32 -28 122 -25 142 5 600 1 620 -6 14 -4 18 -16 18 -52 0 -89 33 -233 79
-342 87 -205 160 -320 214 -335 20 -6 73 -27 156 -63 19 -8 71 -20 115 -27 45
-6 91 -17 103 -23 12 -7 38 -12 58 -12 21 0 49 -9 64 -19 15 -11 52 -23 82
-27 30 -4 81 -20 114 -37 33 -16 82 -38 110 -47 54 -19 108 -51 169 -102 55
-46 83 -62 152 -86 81 -28 147 -36 297 -33 178 2 258 23 371 95 30 19 77 46
104 60 27 14 61 41 76 61 31 40 96 85 124 85 47 0 100 -47 255 -225 59 -68
207 -261 207 -271 0 -4 12 -22 26 -41 14 -19 40 -56 58 -82 17 -27 59 -72 92
-99 56 -47 144 -149 144 -166 0 -9 47 -72 73 -98 9 -10 17 -25 17 -33 0 -27
47 -65 78 -65 34 0 47 13 55 57 5 26 1 36 -28 65 -19 18 -35 37 -35 41 0 9 -4
14 -52 72 -19 22 -49 59 -67 82 -18 23 -64 74 -103 113 -38 39 -85 90 -102
114 -18 23 -51 60 -72 82 -22 21 -52 59 -68 83 -16 24 -47 68 -70 96 -22 29
-52 67 -65 85 -14 17 -45 53 -69 78 -79 84 -148 167 -155 185 -11 29 15 65
127 179 103 105 156 173 156 201 0 31 201 198 345 287 14 8 30 28 36 43 8 18
28 37 56 50 43 21 44 21 77 3 19 -10 51 -18 72 -18 263 2 274 2 510 -13 l101
-6 36 45 c21 24 37 49 37 54 0 6 -12 20 -27 32 -25 19 -36 21 -98 16 -38 -3
-128 -6 -200 -7 -71 0 -242 -1 -380 -2 -471 -3 -517 -2 -575 15 -133 40 -809
64 -1160 42 -121 -7 -134 0 -131 76 1 29 6 71 12 94 5 22 12 66 14 96 2 30 11
99 19 153 9 54 19 133 22 175 3 43 8 84 11 92 3 8 9 44 14 80 4 36 13 99 19
140 6 41 12 104 15 140 7 121 23 265 33 295 13 40 34 156 37 208 2 23 6 56 10
72 22 105 78 348 90 390 8 28 21 84 29 125 35 171 49 227 67 261 10 20 25 66
33 103 9 36 31 110 50 164 19 53 45 126 57 162 28 83 39 111 78 189 17 35 31
68 31 73 0 6 10 31 23 57 13 25 29 68 36 95 7 27 21 60 32 74 10 14 19 32 19
41 0 10 4 21 9 26 4 6 17 33 27 60 18 51 30 73 75 141 23 35 66 112 96 169 6
11 18 34 27 52 9 17 16 36 16 43 0 7 11 25 25 42 14 16 28 42 31 56 7 35 36
92 46 92 5 0 8 7 8 16 0 9 10 25 21 35 12 10 22 30 22 44 0 14 3 25 8 25 5 0
17 19 28 43 18 39 29 55 81 117 22 26 75 98 100 136 30 45 136 187 173 230 20
25 36 49 34 52 -37 81 -55 82 -129 5z m-2073 -4819 c50 -4 108 -9 130 -13 22
-4 90 -8 150 -10 106 -2 184 -19 211 -45 7 -7 10 -34 7 -72 -5 -53 -9 -63 -30
-73 -33 -15 -64 -14 -108 5 -36 15 -39 15 -59 -5 -23 -24 -25 -18 35 -107 31
-47 49 -138 43 -223 -5 -84 21 -131 74 -131 22 0 34 10 57 48 62 99 121 171
154 188 45 25 91 68 91 87 0 25 -51 67 -81 67 -46 0 -63 36 -55 118 10 91 12
98 49 121 37 23 119 27 267 14 98 -8 248 -10 335 -3 28 3 77 1 110 -2 33 -4
132 -12 220 -18 175 -12 184 -13 328 -34 54 -9 112 -13 128 -9 37 7 63 -12 49
-37 -5 -10 -27 -29 -47 -41 -63 -38 -143 -120 -194 -199 -82 -126 -111 -163
-179 -223 -147 -132 -157 -134 -227 -57 -75 83 -133 161 -133 180 0 10 -6 22
-12 28 -22 17 -110 43 -128 37 -39 -12 -52 -95 -25 -159 12 -29 27 -41 78 -64
40 -18 76 -44 98 -70 20 -23 39 -42 42 -42 15 0 47 -36 47 -51 0 -27 -87 -116
-138 -140 -26 -13 -70 -37 -98 -55 -107 -68 -251 -97 -469 -94 -138 2 -200 23
-295 102 -55 45 -215 128 -248 128 -12 0 -39 7 -60 16 -70 30 -147 55 -217 70
-106 23 -204 43 -260 53 -62 12 -99 26 -135 51 -16 11 -37 20 -47 20 -22 0
-62 39 -92 90 -30 52 -61 121 -61 136 0 7 -14 42 -32 76 -21 41 -33 82 -36
118 -2 30 -6 83 -9 117 -4 53 -2 64 17 83 19 19 32 21 118 20 153 -1 495 10
501 16 3 3 15 3 26 -1 11 -3 61 -8 110 -11z"/>
<path d="M11326 12722 c-32 -21 -68 -50 -80 -66 -11 -15 -52 -62 -91 -105
-143 -159 -192 -217 -205 -241 -7 -14 -33 -50 -56 -80 -24 -30 -53 -68 -65
-83 -12 -15 -28 -49 -35 -75 -8 -25 -25 -58 -38 -72 -13 -14 -31 -40 -40 -58
-22 -43 -66 -195 -66 -228 0 -14 -5 -35 -12 -47 -14 -27 -27 -79 -34 -136 -3
-24 -10 -55 -15 -68 -15 -39 -11 -129 6 -143 22 -19 18 -48 -9 -62 -65 -35
-165 -214 -231 -413 -20 -60 -43 -117 -51 -126 -18 -20 -60 -162 -79 -269 -7
-41 -21 -109 -29 -150 -10 -48 -18 -153 -22 -290 -3 -118 -12 -258 -20 -310
-8 -52 -21 -147 -29 -210 -8 -63 -18 -137 -24 -165 -5 -27 -10 -81 -10 -120
-1 -38 -6 -115 -13 -170 -6 -55 -13 -212 -14 -350 -2 -137 -5 -344 -6 -460
l-3 -210 -140 -2 c-247 -5 -490 -13 -503 -18 -7 -2 -37 2 -67 10 -57 14 -117
14 -325 -5 -63 -6 -173 -10 -245 -9 -219 3 -602 -8 -620 -18 -28 -16 -15 -63
23 -85 40 -22 160 -25 537 -13 138 4 410 10 605 12 585 7 643 9 668 22 17 9
27 9 44 0 15 -8 70 -12 159 -11 94 1 152 -3 190 -14 36 -10 114 -17 234 -19
99 -2 223 -7 275 -10 52 -3 149 -8 215 -10 66 -3 134 -10 150 -15 25 -7 126
-8 335 0 34 1 230 -16 266 -24 16 -3 122 -8 235 -11 113 -3 234 -7 270 -9 35
-3 114 -7 174 -11 61 -3 125 -11 144 -17 30 -9 36 -8 47 8 7 11 23 28 34 40
16 15 19 28 14 48 -3 14 -10 28 -14 31 -10 6 -295 16 -575 21 -104 2 -210 8
-235 14 -25 6 -165 12 -312 15 -147 2 -271 6 -276 9 -7 4 -228 16 -632 32 -85
4 -164 6 -175 6 -62 -1 -63 0 -61 100 2 135 -12 571 -19 612 -4 19 1 85 10
148 24 156 24 153 30 337 3 90 7 167 9 170 3 3 0 62 -6 129 -8 89 -8 138 0
175 6 29 15 95 21 147 11 110 23 179 45 247 8 26 23 84 32 128 10 44 21 87 25
95 4 8 10 44 13 80 4 36 13 81 20 100 8 19 26 76 40 125 30 100 130 330 156
358 16 17 21 18 93 3 105 -22 128 -20 215 15 87 34 137 76 189 159 20 30 52
73 73 95 21 22 53 63 72 90 18 28 55 79 82 115 27 36 56 83 66 105 10 22 27
49 39 59 11 11 21 23 21 28 0 6 32 78 71 161 103 223 167 438 140 471 -6 7
-10 44 -8 82 2 60 -2 78 -29 135 -18 37 -35 82 -39 100 -9 40 -42 87 -67 95
-10 3 -26 13 -36 23 -34 35 -177 76 -292 85 -74 5 -76 4 -134 -32z m329 -148
c37 -20 69 -44 72 -52 9 -22 -24 -41 -61 -35 -21 3 -62 -6 -121 -27 -50 -17
-103 -34 -120 -37 -16 -3 -36 -11 -44 -17 -8 -6 -25 -15 -38 -21 -62 -26 -203
-175 -255 -270 -40 -74 -49 -267 -14 -317 31 -44 16 -218 -28 -321 -19 -43
-117 -142 -155 -155 -115 -41 -126 -41 -152 1 -17 27 -19 43 -15 102 10 133
37 269 60 294 9 9 16 33 16 52 0 20 17 68 40 114 22 44 40 84 40 88 0 5 11 23
25 41 14 18 25 36 25 40 0 3 22 35 49 69 26 35 51 72 55 83 3 10 82 96 174
191 148 153 172 173 212 182 25 6 56 15 70 20 53 19 98 12 165 -25z m145 -251
c0 -16 2 -57 5 -93 3 -53 -1 -75 -21 -119 -13 -29 -24 -60 -24 -68 0 -9 -16
-49 -35 -89 -19 -41 -42 -96 -50 -122 -38 -111 -139 -275 -282 -459 -18 -23
-33 -45 -33 -50 0 -4 -24 -35 -54 -68 -29 -33 -62 -75 -73 -93 -11 -18 -42
-47 -69 -65 -44 -29 -56 -32 -124 -32 -60 0 -85 5 -125 25 -52 26 -69 53 -38
63 37 12 149 78 176 104 31 28 97 122 97 136 0 5 9 22 20 37 33 47 49 116 51
229 2 98 0 112 -25 166 -30 66 -30 100 2 205 14 47 29 67 102 137 86 84 93 88
188 117 30 9 66 25 81 35 27 20 65 26 174 29 56 2 57 1 57 -25z m-1099 -1216
c57 -48 61 -82 18 -163 -17 -33 -41 -88 -54 -124 -12 -36 -39 -108 -59 -160
-79 -203 -76 -191 -106 -390 -6 -41 -18 -94 -26 -118 -8 -23 -14 -56 -14 -73
0 -16 -7 -40 -15 -52 -8 -13 -14 -36 -13 -52 0 -17 -7 -61 -16 -100 -16 -68
-20 -158 -30 -680 -2 -90 -10 -184 -17 -215 -9 -37 -13 -115 -13 -240 2 -240
2 -610 0 -680 l-1 -55 -74 1 c-50 1 -76 6 -82 15 -5 8 -9 39 -9 69 0 30 -4 71
-10 90 -5 19 -6 58 -2 85 4 28 4 95 0 150 -4 55 -6 134 -6 175 1 41 2 131 2
200 1 69 7 143 13 165 6 22 14 95 17 162 3 67 10 143 16 168 5 24 12 68 14 97
2 29 15 130 29 223 22 149 30 305 29 525 0 23 9 75 24 140 4 14 10 52 14 85 4
33 20 103 35 155 14 52 30 112 34 132 5 21 13 43 19 50 5 7 15 33 22 58 7 25
17 52 24 60 14 17 51 93 75 157 19 49 106 163 123 163 7 -1 25 -11 39 -23z"/>
<path d="M18010 11936 c-173 -67 -244 -121 -391 -296 l-46 -54 -41 18 c-34 15
-57 18 -127 14 -89 -6 -108 -14 -160 -65 -67 -66 -98 -106 -130 -170 -19 -38
-40 -79 -48 -93 -32 -58 -47 -87 -67 -130 -11 -25 -28 -58 -37 -75 -67 -125
-82 -156 -93 -205 -7 -30 -17 -68 -23 -84 -6 -17 -11 -41 -11 -55 -1 -37 -31
-38 -72 -1 -137 120 -350 186 -557 173 l-108 -6 -47 45 c-76 72 -184 154 -227
173 -73 33 -360 58 -412 36 -16 -6 -63 -16 -106 -21 -71 -9 -86 -15 -160 -65
-45 -31 -112 -75 -148 -100 -36 -24 -77 -61 -91 -82 -81 -122 -178 -293 -178
-314 0 -6 -29 -61 -65 -124 -36 -63 -65 -117 -65 -120 0 -28 -254 -370 -349
-470 -37 -38 -94 -110 -126 -159 -33 -49 -90 -120 -128 -158 -37 -38 -75 -81
-84 -94 -9 -14 -38 -36 -64 -50 -27 -13 -53 -33 -59 -43 -15 -29 15 -85 56
-104 29 -14 36 -15 61 -2 35 19 73 19 97 0 35 -26 63 -17 127 40 43 38 72 56
97 60 21 3 56 10 80 15 23 6 60 10 81 10 21 0 74 7 117 16 59 12 97 14 154 8
41 -4 158 -7 260 -6 168 2 196 5 305 32 66 16 140 34 165 39 81 17 144 39 243
84 137 63 324 216 398 325 29 42 72 102 96 133 23 30 43 65 43 77 0 12 7 38
16 59 9 21 20 47 25 58 4 11 11 45 13 75 15 150 21 161 99 176 68 12 132 -17
234 -106 39 -33 55 -54 59 -80 4 -19 13 -47 20 -62 16 -31 19 -163 5 -235 -21
-107 -32 -227 -37 -398 -3 -99 -7 -205 -10 -235 -2 -30 -7 -113 -9 -185 -2
-71 -9 -175 -14 -230 -16 -156 -21 -284 -10 -290 12 -8 12 -105 -1 -197 -6
-40 -12 -174 -15 -298 -6 -283 -22 -415 -56 -456 -7 -9 -35 -27 -61 -40 -47
-24 -54 -24 -181 -18 -406 19 -483 24 -512 34 -18 6 -39 8 -47 5 -9 -4 -40 1
-69 10 -37 11 -108 18 -224 21 -93 3 -204 9 -245 15 -55 8 -102 7 -175 -2 -55
-6 -129 -13 -165 -14 -36 -1 -126 -7 -200 -14 -74 -7 -155 -14 -179 -16 -69
-4 -89 -43 -48 -89 21 -25 25 -26 157 -27 74 0 160 5 190 11 55 11 227 22 330
20 30 -1 75 -1 100 -1 25 0 80 0 124 1 107 0 468 -48 498 -66 19 -12 233 -24
508 -30 146 -3 330 -10 410 -16 80 -5 197 -11 260 -12 81 -2 130 -8 165 -20
42 -15 94 -19 345 -22 257 -4 309 -2 405 14 91 15 129 17 220 10 172 -13 307
-15 340 -5 41 13 55 34 55 79 0 35 -3 40 -37 54 -23 10 -51 14 -77 10 -59 -8
-572 -21 -846 -21 -164 0 -280 6 -385 18 -217 26 -199 19 -192 80 15 133 26
344 31 587 3 178 10 291 21 345 9 48 15 135 15 220 0 77 7 200 15 273 11 94
12 139 5 153 -7 13 -7 25 -1 38 6 10 15 72 22 137 6 65 13 122 16 127 3 5 9
68 14 140 5 73 14 175 18 227 32 330 33 392 12 568 -7 63 -8 99 -1 112 6 10
10 31 10 47 0 15 8 42 18 58 10 17 26 53 36 80 10 28 27 64 37 81 11 17 19 40
19 51 0 11 9 28 20 38 11 10 20 26 20 35 0 9 13 34 30 56 16 21 30 44 30 49 0
6 9 28 20 50 11 22 19 46 20 52 0 7 12 20 28 30 15 10 35 28 45 40 20 25 61
31 74 11 4 -7 8 -44 8 -83 1 -38 8 -90 17 -115 9 -25 29 -90 44 -144 29 -98
29 -99 126 -206 95 -106 134 -138 210 -172 21 -9 38 -22 38 -28 0 -5 20 -10
45 -10 34 0 47 -5 55 -20 6 -11 18 -20 28 -20 9 0 31 -9 47 -20 17 -11 37 -20
45 -20 8 0 39 -17 70 -39 30 -21 66 -41 80 -44 14 -3 34 -13 45 -22 49 -38
127 -92 174 -120 62 -37 113 -111 188 -273 29 -62 67 -134 86 -160 47 -66 62
-107 49 -136 -9 -20 -5 -29 34 -70 24 -27 60 -71 78 -99 42 -63 192 -199 215
-195 9 2 24 20 34 40 15 31 16 43 7 77 -18 70 2 442 40 736 5 44 8 100 5 125
-3 25 -7 65 -10 90 -11 104 -25 201 -39 271 -8 40 -17 92 -21 114 -4 22 -18
73 -31 114 -13 40 -24 81 -24 91 0 19 -75 193 -96 225 -8 11 -14 29 -14 40 0
11 -14 43 -30 70 -16 28 -30 60 -30 72 0 12 -8 27 -19 32 -10 6 -35 34 -55 63
-97 139 -167 223 -208 248 -15 9 -43 37 -61 61 -19 24 -63 62 -98 83 -184 110
-225 124 -391 130 -89 4 -133 1 -158 -8z m274 -127 c45 -12 84 -24 88 -28 19
-17 -49 -61 -95 -61 -42 0 -87 -38 -87 -75 0 -32 -36 -69 -58 -60 -71 28 -263
28 -330 0 -75 -31 -66 2 24 84 77 71 176 126 249 140 33 6 69 12 80 15 38 7
49 6 129 -15z m307 -177 c32 -21 38 -28 120 -127 114 -139 121 -158 53 -159
-33 -1 -40 -5 -42 -23 -5 -32 -35 -29 -64 5 -13 16 -46 42 -74 58 -27 15 -63
38 -79 49 -17 11 -67 38 -113 60 -94 45 -106 68 -49 99 17 9 48 26 67 37 46
25 144 26 181 1z m-983 -150 c9 -5 38 -19 63 -31 l46 -22 54 26 c43 22 73 28
149 32 135 7 176 -15 137 -72 -8 -11 -20 -36 -27 -55 -51 -143 -63 -183 -71
-242 -5 -38 -13 -101 -19 -140 -5 -40 -9 -121 -10 -180 0 -105 -1 -108 -22
-108 -14 0 -44 23 -83 63 -47 48 -67 79 -89 137 -16 41 -35 84 -43 96 -19 30
-25 74 -27 223 l-2 134 -34 27 c-26 22 -48 29 -97 33 -35 2 -77 0 -96 -7 -47
-16 -158 -131 -190 -196 -15 -30 -52 -102 -82 -160 -30 -58 -54 -109 -55 -115
0 -5 -13 -37 -29 -70 -86 -178 -99 -241 -82 -389 17 -145 21 -243 10 -286 -9
-42 -30 -222 -34 -300 -1 -30 -7 -107 -13 -170 -27 -283 -31 -332 -37 -445 -4
-66 -13 -171 -21 -233 -8 -62 -14 -149 -14 -193 0 -45 -9 -180 -19 -302 -11
-122 -22 -343 -26 -492 -6 -293 -22 -418 -57 -436 -18 -10 -147 5 -160 19 -3
4 0 48 7 97 27 178 35 336 36 665 1 184 5 371 10 415 5 44 14 172 19 285 6
113 14 275 19 360 6 85 13 207 16 270 4 63 11 131 16 150 19 77 35 390 20 390
-5 0 -23 30 -41 68 -18 37 -44 80 -59 96 -40 44 -130 109 -194 141 -50 25 -69
29 -140 28 -45 0 -117 -3 -160 -8 -92 -9 -111 1 -120 68 -4 23 -9 54 -13 69
-13 57 69 69 323 47 122 -11 132 -13 213 -56 79 -41 96 -55 142 -112 12 -14
29 -21 53 -21 28 0 37 5 50 30 12 23 22 30 45 30 23 0 35 8 55 37 14 21 25 49
25 63 0 14 7 34 15 44 8 11 15 31 15 45 0 14 7 35 15 45 8 11 15 26 15 34 0 9
11 30 25 48 14 18 25 37 25 42 0 14 107 218 153 292 47 76 99 133 145 162 27
16 43 19 85 14 44 -6 87 1 145 23 1 1 10 -3 20 -7z m673 -72 c9 0 27 -11 40
-24 24 -23 107 -66 129 -66 7 0 23 -9 37 -20 14 -11 31 -20 38 -20 6 0 22 -11
34 -24 22 -23 22 -25 8 -93 -8 -38 -21 -82 -30 -98 -48 -94 -92 -272 -115
-462 -13 -110 -20 -143 -32 -145 -8 -2 -37 11 -65 29 -27 18 -57 33 -66 33 -9
0 -27 8 -40 18 -13 10 -50 24 -82 31 -83 18 -87 24 -88 149 -1 59 -2 136 -3
172 -1 36 4 82 11 104 7 21 13 53 13 70 1 65 47 210 79 248 17 20 31 44 31 52
0 24 42 58 65 52 11 -3 27 -6 36 -6z m620 -198 c35 -35 119 -220 145 -317 14
-55 28 -104 31 -109 12 -19 45 -201 63 -351 11 -88 21 -169 24 -180 3 -11 -2
-85 -10 -165 -8 -80 -17 -174 -19 -210 -3 -36 -9 -87 -15 -115 -5 -27 -8 -86
-6 -130 3 -83 -5 -115 -29 -115 -24 0 -27 18 -26 132 1 61 -3 124 -8 142 -11
35 -22 273 -22 501 0 86 -6 180 -14 220 -8 39 -20 104 -26 145 -7 41 -18 84
-25 94 -8 12 -11 35 -7 61 6 49 -26 157 -63 207 -13 17 -24 43 -24 57 0 13 -6
32 -14 40 -8 9 -24 33 -35 55 -17 30 -19 41 -10 52 15 18 66 10 90 -14z m-131
-201 c43 -85 62 -149 90 -286 9 -49 9 -50 -25 -80 -44 -39 -70 -124 -61 -204
8 -82 -32 -245 -62 -249 -16 -2 -23 3 -28 22 -6 23 -40 58 -129 129 -35 29
-35 30 -35 106 0 82 27 248 59 366 11 39 26 96 35 128 15 56 48 129 69 155 21
26 42 5 87 -87z m-3220 6 c0 -12 7 -33 16 -46 15 -21 22 -23 69 -17 48 5 54 4
88 -28 56 -51 50 -63 -35 -70 -113 -11 -130 -10 -178 7 -57 20 -223 56 -274
59 -81 6 -44 47 72 80 77 22 151 35 205 37 32 1 37 -2 37 -22z m365 -115 c17
-10 47 -35 68 -54 66 -62 40 -77 -53 -30 -51 25 -55 30 -58 65 -4 42 1 44 43
19z m-582 -103 c20 -5 37 -14 37 -18 0 -14 -33 -38 -98 -70 -34 -17 -79 -47
-100 -65 -55 -50 -204 -106 -281 -106 -30 0 -33 2 -27 24 3 14 20 47 37 75 31
49 32 50 95 57 57 6 72 12 127 54 76 59 129 72 210 49z m369 -98 c4 -4 12 -30
18 -59 5 -29 21 -85 35 -125 33 -96 34 -218 4 -327 -12 -41 -29 -105 -39 -142
-10 -36 -26 -81 -35 -98 -20 -39 -16 -99 7 -114 41 -25 84 76 87 205 1 20 8
42 17 50 43 35 66 130 69 284 2 97 -1 129 -15 165 -16 39 -22 68 -33 155 -2
17 4 20 41 19 45 -1 86 -29 98 -68 3 -12 21 -50 39 -86 17 -36 38 -83 45 -105
7 -22 18 -47 25 -55 10 -12 10 -32 2 -89 -7 -54 -7 -82 1 -105 7 -18 12 -37
12 -44 0 -13 -75 -128 -90 -137 -6 -4 -16 -21 -24 -38 -23 -56 -187 -229 -247
-261 -30 -16 -61 -34 -69 -41 -13 -11 -155 -64 -293 -109 -64 -21 -104 -21
-116 2 -18 33 -16 134 2 169 9 18 24 76 32 130 25 160 36 207 53 226 17 19 19
55 21 373 1 111 4 133 19 146 9 8 58 27 107 43 50 15 106 34 125 41 33 12 86
9 102 -5z m-430 -221 c-1 -30 -4 -111 -5 -180 -4 -139 -10 -174 -71 -417 -9
-35 -16 -73 -16 -85 0 -13 -7 -36 -16 -53 -8 -16 -13 -39 -10 -50 2 -11 -3
-54 -13 -95 -17 -72 -19 -75 -52 -83 -50 -11 -276 -10 -299 3 -23 12 -26 46
-9 100 6 19 12 46 14 60 15 123 30 199 41 222 8 15 14 46 14 70 0 32 9 57 33
94 49 76 67 111 67 127 0 7 13 32 28 53 16 21 41 62 56 91 16 29 64 86 107
128 65 64 83 76 106 73 27 -3 28 -4 25 -58z m-376 -111 c3 -6 -2 -23 -13 -37
-11 -15 -32 -54 -47 -87 -40 -85 -104 -181 -132 -196 -13 -7 -24 -16 -24 -20
0 -15 -86 -89 -125 -108 -22 -10 -62 -43 -90 -72 -52 -55 -57 -62 -114 -146
-19 -27 -48 -58 -65 -69 -16 -10 -40 -26 -52 -34 -13 -8 -25 -12 -29 -9 -12
12 28 84 73 131 26 27 62 72 80 99 18 27 74 93 124 147 50 53 109 120 130 147
68 87 242 265 260 265 9 0 20 -5 24 -11z m4009 -71 c11 -44 1 -391 -11 -395
-14 -5 -53 63 -79 134 -18 50 -18 51 2 77 15 19 23 48 28 109 4 45 9 85 12 90
10 16 43 6 48 -15z m-4190 -449 c4 -11 2 -33 -3 -47 -6 -15 -13 -53 -16 -86
-7 -64 -40 -154 -64 -173 -9 -7 -34 -13 -57 -13 -23 0 -65 -7 -94 -16 -28 -8
-72 -14 -97 -12 l-45 3 27 52 c15 29 35 55 44 58 9 3 45 37 80 76 69 77 186
179 206 179 7 0 16 -9 19 -21z"/>
<path d="M22527 10652 c-39 -8 -50 -57 -52 -247 -1 -168 -4 -197 -41 -382 -3
-18 -15 -23 -71 -32 -83 -13 -431 -8 -563 8 -52 6 -192 12 -310 13 -179 2
-223 -1 -265 -15 -27 -9 -66 -17 -86 -17 -30 0 -38 -5 -48 -27 -7 -20 -9 -157
-6 -463 2 -239 6 -448 9 -465 2 -16 7 -147 11 -290 6 -225 5 -269 -10 -330
-28 -117 -20 -145 44 -145 20 0 59 -8 86 -17 44 -15 97 -17 450 -15 220 1 417
0 439 -4 l38 -6 -6 -42 c-4 -22 -13 -70 -22 -106 -8 -36 -24 -105 -35 -155
-12 -49 -32 -115 -44 -145 -38 -88 -41 -125 -11 -155 35 -35 89 -35 112 0 13
20 24 25 59 25 32 0 52 7 74 26 28 23 31 32 31 79 l0 54 60 46 c33 25 98 79
144 118 112 97 186 154 261 202 34 22 94 69 133 104 49 45 89 71 129 86 32 12
92 43 133 70 41 27 111 71 155 98 139 85 467 361 473 398 4 22 -17 57 -83 134
-28 33 -64 80 -80 105 -44 65 -301 409 -342 455 -19 22 -78 94 -132 160 -54
66 -105 126 -114 134 -9 7 -17 26 -17 42 0 28 -16 60 -74 154 -18 28 -36 57
-41 67 -6 9 -29 44 -52 77 -24 33 -43 63 -43 66 0 2 -20 35 -45 72 -25 37 -45
72 -45 79 0 6 -18 31 -41 55 -32 34 -39 48 -34 67 4 15 0 34 -10 48 -13 21
-23 24 -59 22 -23 -2 -50 -4 -59 -6z m122 -322 c12 -21 35 -50 50 -62 16 -13
43 -53 59 -90 17 -38 35 -68 39 -68 5 0 14 -12 21 -27 6 -16 23 -46 36 -68 14
-22 37 -64 52 -94 40 -80 129 -209 188 -271 67 -70 116 -133 149 -190 14 -25
49 -72 77 -105 28 -33 81 -105 118 -159 37 -54 80 -113 95 -130 16 -17 36 -43
45 -58 9 -16 20 -28 24 -28 4 0 8 -11 8 -25 0 -25 -64 -95 -123 -133 -12 -8
-26 -20 -32 -26 -21 -23 -190 -149 -296 -220 -37 -24 -88 -61 -114 -80 -25
-20 -52 -36 -59 -36 -30 0 -137 -68 -227 -144 -53 -44 -126 -97 -160 -116 -35
-19 -89 -58 -119 -86 -67 -62 -147 -117 -162 -112 -8 3 -10 48 -9 145 l2 140
-33 35 -33 35 -115 7 c-63 3 -241 2 -395 -3 -252 -8 -478 -1 -495 16 -3 2 -4
75 -2 161 1 88 -5 230 -13 322 -19 198 -30 661 -20 847 6 122 9 134 29 145 21
11 354 12 801 2 430 -10 467 -7 515 41 l25 25 0 203 c1 203 8 247 39 247 7 0
22 -18 35 -40z"/>
<path d="M22090 9612 c-31 -10 -38 -50 -13 -80 14 -17 35 -23 104 -30 100 -11
143 -28 147 -60 4 -28 -29 -75 -72 -102 -64 -39 -60 -133 11 -238 61 -92 63
-105 20 -146 -37 -35 -104 -57 -163 -54 -17 0 -36 -2 -42 -6 -6 -4 -25 0 -41
9 -61 31 -101 15 -101 -42 0 -33 21 -53 56 -53 10 0 25 -7 34 -15 13 -12 23
-13 44 -5 15 5 46 10 69 10 49 0 157 32 201 60 54 33 83 72 89 118 5 39 1 49
-50 124 -64 94 -68 123 -27 171 76 86 98 170 63 242 -23 48 -128 94 -226 100
-43 2 -89 1 -103 -3z"/>
<path d="M22599 9263 c-24 -28 -17 -93 19 -161 17 -35 32 -68 32 -74 0 -5 11
-24 25 -42 43 -56 35 -80 -57 -176 -122 -128 -158 -177 -158 -213 0 -51 11
-60 50 -43 26 10 40 11 58 3 20 -9 27 -8 38 8 8 10 14 25 14 32 0 24 60 106
118 162 32 31 77 80 101 110 23 30 57 66 74 80 47 36 118 128 130 167 10 33 8
37 -24 68 -45 44 -66 36 -109 -41 -36 -64 -77 -113 -96 -113 -13 0 -73 69 -93
107 -6 12 -11 38 -11 57 0 31 -5 38 -43 61 -52 30 -51 30 -68 8z"/>
<path d="M21533 9215 c-60 -29 -86 -66 -113 -162 -31 -107 -4 -169 63 -144 21
8 26 18 32 63 6 49 35 98 56 98 5 0 13 -19 19 -42 22 -87 32 -106 70 -149 l40
-44 56 30 c74 39 151 141 168 221 6 28 3 34 -27 53 -19 11 -46 21 -60 21 -23
0 -26 -5 -32 -52 -7 -55 -48 -128 -71 -128 -14 0 -27 41 -45 137 -14 76 -24
92 -64 109 -42 17 -30 18 -92 -11z"/>
<path d="M4267 6089 c-53 -12 -84 -35 -97 -72 -6 -18 -13 -101 -16 -185 -5
-130 -3 -157 10 -178 21 -31 47 -30 95 1 32 22 42 24 66 15 25 -10 120 -84
168 -132 20 -20 35 -22 71 -8 15 5 54 14 89 20 54 9 65 8 87 -8 70 -52 156
-69 252 -52 48 9 71 9 99 0 42 -14 79 -1 79 28 0 34 38 63 78 60 30 -2 37 -7
35 -23 -2 -26 17 -106 30 -122 24 -31 87 10 87 57 0 12 6 57 14 99 41 220 40
210 21 231 -10 11 -26 20 -35 20 -24 0 -57 -39 -73 -85 -17 -51 -69 -81 -112
-65 -24 9 -27 14 -21 40 7 40 -11 77 -41 85 -14 3 -27 4 -30 1 -8 -7 -43 -157
-43 -183 0 -41 -38 -69 -107 -76 -69 -7 -118 4 -145 32 -24 26 -23 52 3 98 37
67 73 95 149 118 29 9 36 16 38 42 2 24 -2 34 -17 43 -12 6 -21 17 -21 25 0 9
-9 15 -21 15 -25 0 -113 -48 -147 -80 -52 -49 -109 -59 -99 -18 7 24 -19 87
-38 95 -8 3 -27 2 -41 -1 -24 -6 -26 -10 -23 -54 5 -71 -11 -185 -28 -204 -19
-22 -81 -24 -89 -4 -3 8 -16 17 -28 20 -27 7 -96 79 -96 101 0 8 16 27 36 42
36 28 92 102 95 125 5 44 -3 58 -55 87 -29 17 -67 34 -85 37 -17 4 -31 10 -31
15 0 11 -12 10 -63 -2z m108 -119 c9 -15 -13 -39 -49 -54 -35 -15 -46 -12 -46
10 0 36 78 71 95 44z"/>
<path d="M4185 5346 c-59 -29 -78 -54 -82 -106 -2 -41 1 -52 22 -72 14 -12 25
-27 25 -32 0 -5 18 -24 40 -43 65 -56 53 -75 -50 -83 -59 -5 -65 -7 -74 -32
-7 -20 -5 -33 8 -52 15 -24 22 -26 84 -26 88 0 130 13 177 53 49 42 45 53 -50
149 -94 95 -98 116 -24 147 28 11 55 18 61 15 13 -8 38 15 38 36 0 28 -32 48
-90 54 -38 4 -64 2 -85 -8z"/>
<path d="M4590 5282 c-68 -33 -90 -55 -121 -117 -26 -54 -30 -70 -25 -114 7
-65 35 -119 82 -161 36 -31 40 -32 108 -28 60 4 80 10 128 42 54 34 98 94 98
132 0 7 5 14 11 16 17 6 -22 121 -54 161 -31 40 -120 87 -162 87 -17 -1 -46
-8 -65 -18z m175 -122 c22 -43 19 -100 -8 -131 -37 -42 -93 -71 -144 -72 l-47
-2 -12 43 c-11 35 -10 48 1 75 24 57 105 115 162 116 26 1 35 -5 48 -29z"/>
<path d="M334 5205 c-3 -8 -3 -34 1 -57 24 -162 22 -342 -5 -449 -15 -61 5
-115 47 -124 15 -4 42 -11 58 -17 40 -13 193 -38 275 -44 142 -10 179 -13 280
-18 58 -3 146 -10 197 -16 51 -5 117 -10 147 -10 30 0 67 -5 83 -11 15 -6 89
-13 163 -16 74 -2 160 -8 190 -14 30 -5 82 -12 115 -15 33 -2 80 -7 105 -10
25 -3 95 -7 155 -10 61 -3 135 -10 165 -16 30 -6 125 -10 211 -9 134 1 167 -2
225 -20 42 -13 83 -19 105 -16 21 3 73 -2 116 -10 43 -8 128 -19 188 -23 61
-5 162 -14 225 -20 63 -6 142 -10 175 -9 99 4 164 3 300 -4 72 -4 177 -9 235
-12 58 -3 134 -9 170 -14 36 -6 83 -10 105 -10 22 0 79 -6 127 -15 76 -13 160
-17 378 -15 25 1 92 -4 150 -10 94 -10 482 -7 610 5 243 22 591 27 620 9 5 -3
48 -8 97 -10 48 -3 120 -10 158 -15 39 -6 92 -7 120 -2 28 4 66 5 85 0 43 -9
551 -1 600 10 20 5 54 3 80 -3 30 -8 76 -9 140 -3 92 8 405 2 421 -8 31 -19
903 -23 990 -5 41 9 165 9 495 2 1074 -24 1848 -16 2014 21 25 5 144 12 264
14 121 2 258 9 305 16 47 6 178 13 291 14 336 5 512 12 560 23 25 6 84 10 132
11 50 0 90 4 93 11 4 6 14 7 24 3 25 -11 701 -13 831 -3 63 5 198 10 300 10
101 1 207 5 235 10 27 5 123 11 211 13 98 2 170 8 183 16 15 8 31 8 49 2 17
-6 54 -6 97 0 39 5 214 10 390 12 249 1 327 -1 354 -12 23 -9 54 -11 101 -7
56 5 77 3 114 -13 41 -19 54 -19 158 -11 62 6 129 17 148 24 19 8 52 17 73 21
21 3 63 14 95 24 l57 18 2 98 c5 267 12 482 18 505 5 21 0 34 -23 60 -29 32
-32 33 -48 17 -20 -20 -43 -161 -44 -270 0 -130 -20 -281 -38 -300 -20 -20
-118 -35 -307 -48 -100 -8 -157 -6 -245 5 -76 10 -228 15 -445 17 -334 2 -408
0 -593 -22 -56 -7 -108 -10 -115 -7 -6 2 -39 1 -72 -4 -33 -4 -186 -11 -339
-14 -154 -3 -284 -9 -290 -12 -5 -4 -204 -8 -441 -9 -236 -2 -500 -8 -585 -14
-85 -5 -218 -12 -295 -15 -77 -3 -201 -7 -275 -10 -74 -3 -223 -8 -330 -11
-107 -3 -198 -8 -202 -10 -4 -2 -58 -7 -120 -9 -62 -3 -167 -7 -232 -10 -65
-3 -122 -8 -126 -10 -8 -5 -108 -13 -250 -20 -182 -9 -466 -19 -480 -17 -8 1
-107 4 -220 7 -113 4 -279 8 -370 11 -91 3 -361 7 -600 9 -360 4 -458 2 -570
-11 -111 -14 -181 -15 -395 -9 -421 13 -410 13 -1380 11 -231 0 -478 2 -550 6
-209 12 -318 20 -350 25 -67 12 -304 14 -370 4 -38 -5 -128 -14 -200 -18 -228
-13 -1051 -1 -1175 17 -157 23 -213 28 -340 34 -74 4 -184 11 -245 16 -60 5
-191 12 -290 15 -173 5 -271 11 -345 21 -19 3 -84 7 -145 10 -60 3 -141 12
-179 20 -38 8 -94 14 -125 13 -31 -1 -85 3 -121 10 -36 7 -99 14 -140 16 -272
13 -332 18 -395 32 -38 8 -104 14 -145 14 -41 -1 -91 4 -110 10 -19 6 -96 14
-170 19 -74 5 -169 13 -210 19 -158 22 -238 31 -335 36 -120 7 -143 9 -215 24
-45 8 -276 23 -355 22 -31 -1 -87 20 -115 41 -30 24 -45 60 -48 113 -2 37 -10
105 -32 271 -12 93 -50 162 -66 119z"/>
<path d="M4971 5190 c-12 -17 -20 -34 -17 -39 3 -4 1 -23 -5 -42 -5 -19 -16
-63 -24 -99 -8 -36 -18 -83 -24 -105 -8 -33 -7 -44 9 -70 22 -35 59 -60 70
-48 15 17 30 78 30 125 0 27 9 75 20 107 22 66 18 153 -8 184 -20 23 -25 22
-51 -13z"/>
<path d="M5132 5128 c-5 -7 -12 -29 -15 -48 -2 -19 -12 -68 -21 -108 -22 -97
-9 -148 50 -190 37 -27 48 -30 165 -36 110 -6 127 -5 139 9 30 36 -42 87 -130
91 -31 2 -69 8 -84 14 -27 10 -51 53 -40 71 3 6 12 44 19 86 12 67 11 79 -2
100 -17 25 -64 32 -81 11z"/>
<path d="M17026 5038 c-3 -13 -6 -61 -6 -108 0 -47 -6 -125 -12 -175 -6 -49
-11 -121 -10 -160 1 -38 -5 -116 -13 -171 -21 -142 -20 -191 4 -204 11 -5 28
-10 38 -10 10 0 43 -13 73 -28 78 -40 263 -62 330 -40 70 24 366 29 464 8 39
-8 91 -10 150 -5 50 3 189 7 309 7 121 0 246 4 280 8 40 4 86 2 132 -7 38 -8
171 -18 295 -23 124 -5 303 -14 398 -21 126 -9 187 -10 225 -2 31 6 61 7 75 2
32 -12 174 -21 392 -24 184 -3 364 -10 535 -20 50 -3 133 -7 185 -10 52 -3
109 -8 125 -11 17 -3 57 -7 90 -9 74 -4 393 -54 420 -65 11 -5 50 -11 87 -14
38 -3 77 -10 89 -17 21 -11 92 -24 209 -40 93 -12 186 -28 258 -44 35 -8 67
-13 71 -11 4 3 76 0 161 -5 85 -5 223 -11 305 -14 83 -3 173 -12 200 -19 41
-12 372 -31 475 -27 233 7 307 13 329 28 18 11 59 16 170 19 213 6 372 18 404
32 18 8 56 10 115 6 53 -4 129 -1 192 7 58 7 121 13 140 12 196 -3 365 -2 410
2 95 11 177 14 430 18 135 2 277 7 315 10 118 11 145 11 304 4 109 -5 158 -3
168 5 13 11 770 14 1082 4 102 -4 143 -1 169 10 27 11 43 12 74 3 21 -5 92
-10 156 -10 64 0 218 0 342 0 124 0 243 0 265 2 22 1 101 1 175 0 227 -5 564
3 580 14 9 6 179 11 435 12 231 1 452 4 490 6 114 7 198 8 225 2 23 -5 293
-18 350 -18 14 1 104 4 201 8 121 4 195 3 240 -5 79 -15 292 -20 379 -9 89 11
164 12 385 6 386 -11 572 -23 613 -38 38 -15 49 -11 56 21 5 29 30 42 38 19 6
-17 38 1 44 26 3 12 0 50 -6 84 -6 33 -10 80 -10 104 2 53 -8 160 -20 212 -6
22 -11 60 -14 84 -2 28 -10 49 -22 58 -20 14 -53 17 -70 5 -14 -9 -26 -83 -15
-96 8 -10 30 -122 30 -156 0 -8 3 -38 7 -67 4 -29 3 -68 0 -87 l-7 -36 -157 7
c-86 4 -209 6 -272 6 -63 -1 -272 -1 -465 0 -334 1 -538 0 -925 -4 -96 -1
-277 -1 -402 0 -125 2 -232 0 -237 -3 -17 -11 -302 -20 -641 -21 -179 -1 -548
-5 -820 -9 -272 -5 -538 -9 -590 -9 -52 -1 -156 0 -230 2 -144 4 -1867 -8
-1985 -14 -38 -2 -187 -6 -330 -10 -143 -3 -294 -10 -335 -16 -41 -6 -161 -10
-266 -10 -106 1 -257 -4 -335 -9 -244 -18 -380 -30 -474 -39 -49 -5 -137 -14
-194 -20 -57 -6 -107 -9 -111 -6 -4 2 -81 -1 -171 -8 -100 -8 -208 -10 -274
-5 -242 16 -369 22 -755 33 -232 7 -487 31 -580 55 -41 10 -113 24 -160 30
-47 6 -119 20 -160 30 -105 28 -332 68 -417 74 -39 3 -98 12 -130 20 -34 9
-143 17 -268 20 -115 4 -327 13 -470 21 -143 8 -271 14 -285 14 -14 0 -90 5
-170 10 -80 6 -215 11 -300 11 -85 0 -180 2 -210 4 -30 2 -147 9 -260 15 -113
6 -214 13 -225 15 -51 10 -383 18 -707 18 -229 0 -360 3 -364 10 -4 6 -21 7
-41 3 -20 -3 -117 -9 -217 -11 -99 -3 -197 -6 -216 -7 -19 -1 -79 0 -132 1
l-98 2 -20 41 c-16 30 -20 51 -15 82 3 23 2 81 -3 129 -6 66 -4 98 6 130 8 25
16 107 19 193 5 143 4 151 -17 178 -27 34 -65 36 -74 5z"/>
<path d="M6125 3610 c-33 -65 -32 -110 1 -150 24 -28 26 -39 28 -128 1 -137
-14 -391 -26 -432 -22 -71 -2 -150 38 -150 7 0 26 11 42 25 l29 24 -2 153 c-2
180 7 223 49 223 21 0 31 -8 46 -35 24 -45 50 -106 50 -116 0 -15 113 -249
124 -256 21 -14 41 -7 65 24 27 34 36 79 46 224 4 74 10 102 22 111 9 7 18 11
21 9 2 -2 6 -58 8 -124 4 -118 5 -122 45 -198 54 -101 69 -113 143 -114 56 0
61 2 95 38 68 71 114 183 127 307 2 22 6 57 9 77 3 22 -3 68 -14 110 -11 40
-22 93 -26 118 -13 93 -33 145 -65 169 -30 21 -33 22 -56 6 -27 -17 -27 -29 3
-95 37 -81 50 -147 59 -289 6 -100 6 -100 -55 -235 -26 -59 -66 -96 -103 -96
-18 0 -55 46 -45 56 3 3 -4 25 -14 49 -11 24 -19 59 -19 77 1 18 1 44 2 58 0
14 -1 90 -3 170 -2 101 1 152 10 168 10 18 9 26 -4 44 -8 13 -15 32 -15 43 0
28 -43 68 -67 63 -16 -3 -18 -13 -15 -103 1 -55 4 -123 6 -150 8 -108 -60
-127 -88 -25 -3 14 -9 93 -12 175 -4 83 -10 157 -15 166 -5 9 -27 19 -50 23
-75 12 -76 1 -14 -324 8 -41 17 -103 21 -136 6 -59 5 -62 -17 -69 -18 -6 -28
-2 -46 21 -13 16 -23 34 -23 41 0 6 -4 13 -9 15 -7 3 -38 64 -123 248 -12 25
-28 58 -36 74 -9 17 -12 43 -9 66 4 33 0 43 -25 69 -43 44 -63 40 -93 -19z"/>
<path d="M7207 3632 c-9 -10 -17 -29 -17 -42 0 -13 -11 -38 -25 -56 -24 -31
-25 -37 -16 -96 6 -35 10 -137 10 -226 1 -90 5 -171 10 -179 4 -9 5 -32 1 -52
-5 -20 -11 -75 -15 -123 -6 -74 -4 -92 11 -118 21 -35 24 -35 70 -14 41 20 49
31 35 48 -6 7 -15 65 -21 130 l-11 118 27 29 c36 37 72 38 106 2 27 -30 118
-215 118 -242 0 -34 53 -149 71 -154 10 -3 39 9 66 26 45 30 53 32 130 29 71
-2 93 1 159 27 70 27 124 63 124 82 0 4 5 20 11 36 30 77 5 204 -48 246 -13
10 -23 25 -23 32 0 8 -24 33 -52 56 -65 51 -128 131 -128 163 0 76 176 165
220 111 16 -19 59 -19 66 0 4 8 -1 32 -9 52 -11 30 -24 42 -58 55 -61 24 -131
22 -182 -3 -46 -23 -136 -94 -151 -119 -32 -51 36 -203 123 -277 31 -27 70
-59 88 -71 42 -30 73 -82 73 -123 0 -94 -87 -146 -265 -159 -60 -4 -110 -7
-111 -7 0 1 -10 22 -21 47 -12 25 -27 65 -35 90 -7 25 -29 74 -50 109 l-37 64
59 68 c68 79 84 125 74 206 -10 83 -53 128 -184 191 -125 60 -169 70 -193 44z
m239 -175 c52 -47 56 -54 50 -85 -3 -19 -16 -48 -29 -66 -49 -63 -174 -129
-202 -106 -17 14 -17 214 0 256 31 77 98 77 181 1z"/>
<path d="M8852 3559 c-77 -15 -97 -30 -100 -74 -7 -110 -14 -285 -16 -415 -1
-80 -8 -191 -15 -247 -12 -96 -12 -105 6 -135 27 -46 55 -48 82 -5 20 33 21
44 15 159 l-6 123 31 29 c28 27 38 30 108 31 88 3 117 -10 126 -54 4 -16 26
-62 49 -102 24 -41 56 -113 71 -161 29 -91 51 -118 94 -118 12 0 25 5 28 10
11 18 35 11 47 -14 15 -35 38 -40 68 -16 14 11 35 24 46 29 16 7 25 25 34 63
15 69 48 153 77 200 13 21 23 40 23 43 0 8 108 186 124 205 7 8 28 42 46 75
18 33 46 76 61 95 48 62 102 179 97 212 -7 48 -118 58 -118 10 0 -19 -155
-283 -174 -294 -25 -16 -46 -7 -60 26 -39 93 -192 276 -230 276 -57 0 -73 -51
-30 -91 15 -13 37 -41 51 -62 13 -21 33 -47 45 -59 20 -20 138 -224 138 -239
0 -4 -17 -36 -38 -70 -22 -35 -58 -107 -81 -159 -52 -115 -57 -122 -90 -118
-21 2 -35 20 -78 98 -89 162 -133 259 -133 296 0 14 8 38 19 52 65 93 87 188
55 239 -31 50 -98 114 -139 133 -39 18 -143 41 -174 39 -9 -1 -35 -5 -59 -10z
m246 -149 c23 -21 42 -44 42 -49 0 -5 -9 -30 -19 -54 -24 -57 -82 -121 -136
-153 -44 -25 -108 -35 -126 -17 -5 5 -11 59 -12 119 -2 105 -1 112 26 152 l27
42 78 0 c76 0 78 -1 120 -40z"/>
<path d="M8360 3548 c-47 -4 -100 -15 -118 -25 -28 -14 -32 -21 -27 -42 12
-44 24 -144 19 -152 -2 -4 -6 -33 -9 -66 -2 -32 -9 -105 -15 -163 -5 -58 -13
-143 -16 -190 -3 -46 -7 -87 -10 -91 -7 -12 26 -108 43 -125 14 -13 27 -15 77
-8 70 9 170 15 236 15 44 0 46 1 58 39 17 56 15 65 -15 85 -24 16 -34 17 -84
6 -31 -6 -90 -14 -131 -16 -74 -6 -76 -5 -80 19 -6 28 9 147 22 181 13 33 62
56 132 63 67 6 84 22 95 88 l6 37 -101 -6 c-120 -8 -119 -9 -102 110 14 104
26 116 124 119 102 4 157 34 140 78 -6 16 -73 42 -124 48 -19 2 -73 1 -120 -4z"/>
<path d="M23789 3449 c-13 -4 -37 -14 -54 -23 -16 -9 -35 -16 -41 -16 -5 0
-26 -15 -46 -33 l-35 -32 0 -430 c0 -371 2 -432 15 -447 18 -22 45 -23 62 -3
6 8 22 13 33 12 25 -2 25 -2 8 128 -6 46 -7 125 -3 185 l7 105 45 7 c25 3 70
7 100 7 78 1 156 34 212 88 110 108 112 226 5 333 -23 23 -60 51 -82 62 -22
11 -47 26 -55 33 -19 17 -138 33 -171 24z m157 -140 c120 -76 146 -132 97
-211 -39 -66 -100 -92 -198 -86 -115 8 -115 8 -115 147 0 139 8 156 80 170 73
14 84 13 136 -20z"/>
<path d="M24360 3393 c-23 -8 -83 -33 -100 -42 -21 -12 -31 -86 -21 -156 5
-33 10 -159 11 -280 1 -312 8 -425 26 -452 17 -28 31 -29 57 -6 10 10 26 18
35 18 15 0 17 11 15 78 -2 45 -9 90 -18 107 -18 35 -20 90 -2 90 24 -1 167
-219 167 -256 0 -34 29 -64 60 -64 16 0 32 5 35 10 3 6 17 10 30 10 42 0 43
41 3 97 -19 27 -49 75 -68 108 -18 33 -49 80 -67 104 -18 24 -33 48 -33 53 0
6 -8 26 -17 45 -20 44 -12 59 48 91 53 28 112 82 147 137 39 60 38 144 -3 203
-41 58 -154 112 -235 111 -30 0 -62 -3 -70 -6z m189 -140 c24 -21 34 -39 38
-69 5 -38 2 -46 -36 -87 -24 -25 -60 -52 -86 -62 -43 -16 -47 -16 -77 2 -30
17 -32 22 -29 63 10 143 32 179 111 180 35 0 53 -6 79 -27z"/>
<path d="M27625 3390 c-38 -4 -101 -17 -140 -28 -38 -11 -83 -22 -100 -24 -26
-3 -30 -7 -33 -38 -2 -28 3 -41 23 -60 l26 -24 82 17 c45 9 84 13 88 9 3 -4 2
-90 -3 -192 -12 -231 -12 -478 0 -548 5 -30 18 -63 29 -73 19 -20 20 -20 45 3
14 13 33 28 43 33 16 10 16 16 -5 114 -24 113 -26 228 -10 426 9 109 30 231
44 254 4 6 22 11 39 11 18 0 47 4 65 9 28 8 38 6 69 -15 20 -13 39 -24 42 -24
9 0 71 60 71 68 -1 4 -9 17 -19 29 -36 44 -206 69 -356 53z"/>
<path d="M26475 3372 c-29 -18 -30 -22 -29 -78 1 -32 9 -88 18 -124 61 -243
64 -291 25 -415 -17 -54 -38 -109 -46 -122 -25 -39 -94 -73 -145 -73 -42 0
-46 2 -61 38 -16 37 -22 67 -32 156 -4 27 -10 57 -15 67 -11 19 -5 187 11 305
10 79 10 83 -12 108 -25 29 -78 36 -98 13 -16 -20 -18 -352 -2 -462 26 -185
69 -302 125 -337 25 -15 41 -18 81 -13 27 4 57 13 66 21 8 8 25 14 36 14 23 0
112 57 125 80 28 53 68 153 78 196 19 85 18 211 -4 279 -14 45 -19 95 -20 204
-1 134 -2 145 -21 152 -32 12 -48 10 -80 -9z"/>
<path d="M27112 3363 c-53 -31 -214 -183 -232 -221 -8 -15 -24 -38 -36 -52
-46 -50 -70 -131 -80 -265 -9 -116 6 -175 69 -270 68 -103 81 -108 287 -111
85 -1 164 2 175 6 33 13 85 63 85 83 0 10 -9 27 -19 38 -19 20 -20 20 -87 3
-46 -12 -108 -18 -183 -18 l-114 -1 -29 35 c-16 19 -32 46 -35 59 -3 14 -12
36 -19 50 -17 31 -18 101 -3 173 10 50 96 238 109 238 3 0 35 27 70 61 76 71
98 84 163 93 39 6 50 12 58 32 14 38 12 41 -28 69 -47 32 -94 31 -151 -2z"/>
<path d="M28631 3314 c-12 -9 -31 -21 -44 -27 -32 -17 -119 -115 -149 -167
-75 -132 -99 -369 -48 -475 76 -156 250 -284 323 -236 65 42 198 229 225 316
20 61 21 230 3 295 -18 63 -57 146 -88 186 -32 42 -128 109 -169 117 -20 4
-39 1 -53 -9z m107 -145 c61 -21 106 -116 117 -250 6 -75 4 -91 -18 -149 -49
-129 -138 -250 -183 -250 -38 0 -88 39 -127 99 -74 116 -78 147 -31 308 63
217 128 282 242 242z"/>
<path d="M24944 3303 c-17 -10 -40 -25 -51 -33 -20 -15 -83 -103 -83 -116 0
-3 -13 -34 -30 -68 -67 -138 -72 -326 -12 -496 8 -25 21 -52 27 -60 7 -8 20
-29 28 -46 22 -44 85 -83 148 -93 95 -15 187 38 267 155 29 43 67 147 82 227
11 59 10 77 -5 141 -10 41 -28 91 -41 113 -13 21 -35 59 -49 85 -35 65 -148
184 -183 192 -15 3 -36 8 -47 11 -11 3 -34 -2 -51 -12z m118 -140 c45 -37 56
-51 78 -98 11 -22 33 -64 50 -94 34 -60 37 -97 19 -214 -14 -93 -60 -171 -132
-224 -60 -44 -150 -25 -183 39 -27 53 -56 172 -55 228 2 55 35 208 54 245 14
27 117 145 127 145 5 0 23 -12 42 -27z"/>
<path d="M28108 3303 c-12 -14 -17 -58 -22 -198 -3 -99 -9 -214 -12 -255 -4
-48 0 -111 11 -175 9 -55 21 -134 27 -175 5 -41 14 -85 19 -97 10 -26 40 -30
62 -9 8 8 27 16 43 18 28 3 28 5 25 53 -1 28 -9 57 -17 66 -8 8 -14 26 -14 39
0 25 -24 126 -42 175 -6 17 -10 55 -9 85 2 100 22 324 32 363 14 55 3 94 -31
112 -38 19 -54 19 -72 -2z"/>
<path d="M29456 3291 c-15 -16 -15 -25 -5 -67 7 -27 16 -56 20 -65 5 -9 15
-50 23 -90 40 -193 17 -569 -34 -569 -15 0 -92 110 -111 159 -10 25 -27 64
-38 86 -12 21 -21 49 -21 62 0 12 -13 59 -30 105 -16 46 -36 126 -44 179 -15
101 -28 139 -49 140 -27 1 -68 8 -86 14 -13 4 -23 0 -30 -13 -5 -10 -12 -144
-16 -303 -3 -156 -9 -311 -14 -344 -8 -61 6 -125 28 -125 5 0 16 -3 25 -6 9
-3 16 -1 16 6 0 6 16 26 35 44 31 30 35 39 35 84 0 28 -5 54 -10 57 -13 8 -6
153 7 166 6 6 21 -15 41 -58 17 -37 36 -75 41 -83 5 -8 17 -37 26 -63 33 -94
160 -257 200 -257 20 0 80 54 104 93 29 48 40 127 42 287 2 176 -6 295 -20
333 -16 43 -15 126 3 177 8 25 12 48 8 51 -4 4 -35 9 -68 12 -52 5 -64 4 -78
-12z"/>
<path d="M25410 3283 c-23 -9 -28 -22 -25 -61 4 -42 11 -49 50 -54 26 -3 30
-8 37 -44 14 -84 39 -431 36 -499 l-3 -70 -50 -5 c-47 -5 -50 -7 -53 -35 -4
-40 48 -96 104 -114 66 -21 182 -7 236 29 66 44 194 176 217 224 30 60 28 140
-5 218 -14 34 -35 90 -45 125 -14 43 -34 79 -64 113 -24 27 -47 55 -52 63 -15
25 -117 75 -195 96 -74 20 -156 26 -188 14z m259 -153 c25 0 113 -110 142
-176 46 -106 60 -204 38 -261 -15 -39 -138 -153 -166 -153 -30 0 -33 7 -45
113 -5 50 -16 124 -24 162 -14 71 -26 330 -16 340 3 3 16 -2 28 -10 13 -8 32
-15 43 -15z"/>
<path d="M5194 2552 c-36 -19 -104 -76 -104 -86 0 -3 -20 -31 -46 -62 -70 -87
-89 -122 -117 -222 -15 -51 -27 -97 -27 -103 0 -5 -10 -30 -22 -56 -22 -46
-22 -47 -5 -147 10 -55 24 -107 32 -116 8 -9 15 -23 15 -31 0 -28 90 -162 120
-180 37 -23 64 -13 74 25 8 33 -9 68 -62 124 -67 72 -86 115 -85 192 2 78 28
187 59 254 13 28 24 56 24 64 0 22 84 125 159 194 92 84 98 98 65 137 -29 35
-37 37 -80 13z"/>
<path d="M10400 2383 c-58 -22 -39 -66 82 -187 68 -68 99 -108 122 -156 29
-61 31 -72 30 -185 0 -132 -4 -149 -87 -315 -30 -60 -60 -103 -104 -147 -66
-66 -78 -99 -50 -137 11 -15 17 -16 60 -4 26 7 56 22 67 33 29 30 114 192 134
255 10 30 24 66 32 80 48 95 70 304 38 378 -9 20 -22 58 -30 85 -10 31 -32 65
-64 99 -28 29 -50 55 -50 58 0 3 -17 25 -37 48 -21 23 -49 56 -63 72 -24 28
-47 35 -80 23z"/>
<path d="M5675 2319 c-85 -49 -100 -62 -133 -119 -14 -25 -39 -63 -56 -85 -57
-72 -96 -190 -96 -286 0 -41 6 -62 31 -101 51 -79 80 -98 152 -98 86 1 134 14
169 47 29 27 30 30 25 97 -6 65 -8 71 -50 112 -25 24 -58 46 -73 49 -52 12
-98 32 -108 48 -15 23 7 57 99 151 67 69 89 86 137 101 74 24 93 55 57 89 -41
40 -75 39 -154 -5z m-1 -502 c16 -26 -9 -62 -58 -85 -50 -24 -86 -18 -105 16
-13 24 14 63 62 92 25 16 33 16 61 5 17 -7 35 -20 40 -28z"/>
<path d="M6760 2235 c-7 -8 -12 -26 -11 -40 4 -49 3 -61 -2 -127 -3 -37 -8
-71 -10 -75 -6 -10 -25 -165 -37 -302 -11 -119 -5 -141 41 -141 51 0 102 46
81 74 -30 40 -38 180 -14 257 28 89 35 132 38 226 4 100 4 102 -22 122 -32 25
-47 26 -64 6z"/>
<path d="M7090 2171 l-35 -29 18 -36 c9 -20 23 -39 31 -42 11 -4 89 17 147 40
10 5 19 -1 27 -19 18 -39 15 -60 -18 -112 -16 -26 -30 -51 -30 -57 0 -12 -111
-158 -160 -211 -21 -22 -45 -54 -54 -72 -28 -56 5 -104 104 -151 50 -24 65
-26 164 -24 125 2 146 6 146 31 0 23 -37 38 -110 45 -87 8 -160 31 -174 55
-11 17 36 111 81 161 74 82 121 166 138 245 9 41 14 84 10 97 -13 40 -63 77
-114 83 -25 3 -65 10 -88 15 -23 6 -43 10 -45 10 -2 0 -19 -13 -38 -29z"/>
<path d="M8200 2063 c-45 -87 -115 -152 -165 -153 -21 0 -45 39 -45 72 0 27
-37 58 -69 58 -17 0 -46 -10 -66 -21 -34 -21 -36 -24 -30 -58 7 -38 8 -87 5
-259 -1 -103 6 -132 35 -132 32 0 55 37 70 110 9 42 24 83 34 94 18 17 22 17
62 4 38 -13 49 -13 87 0 64 21 74 14 65 -55 -13 -111 -9 -210 12 -233 22 -24
67 -26 89 -4 20 20 20 38 0 55 -17 14 -15 42 6 114 6 22 14 52 17 67 6 31 40
71 53 63 10 -6 6 -68 -6 -86 -16 -26 8 -98 47 -142 50 -57 76 -63 171 -38 104
28 121 35 162 71 52 46 76 91 82 154 5 48 2 65 -26 124 -28 61 -38 73 -102
115 -62 41 -78 47 -123 47 -60 0 -128 -37 -165 -91 -28 -40 -39 -49 -62 -49
-16 0 -18 10 -18 69 0 58 -4 74 -22 95 -13 13 -37 27 -54 31 -26 5 -32 2 -44
-22z m464 -152 c37 -25 86 -97 86 -127 0 -12 -9 -42 -19 -67 -21 -48 -10 -42
-204 -112 -70 -25 -86 -1 -63 98 30 127 75 212 118 220 43 8 53 7 82 -12z"/>
<path d="M10245 2074 c-47 -17 -108 -74 -131 -122 -14 -30 -15 -40 -3 -76 19
-60 76 -123 136 -152 57 -26 62 -34 37 -58 -29 -30 -59 -40 -154 -52 -52 -7
-107 -15 -123 -19 -26 -7 -27 -6 -23 26 3 19 8 58 11 87 3 30 8 58 11 64 8 13
23 208 17 224 -7 18 -61 28 -77 15 -7 -6 -18 -43 -25 -83 -17 -100 -25 -114
-79 -129 -41 -11 -46 -11 -58 6 -8 10 -14 37 -14 60 0 47 -19 95 -38 95 -7 0
-30 11 -52 25 -43 27 -86 31 -200 16 -63 -9 -90 -17 -139 -46 -15 -8 -32 -10
-45 -6 -53 20 -75 21 -91 5 -10 -10 -12 -20 -7 -28 5 -6 12 -23 15 -37 4 -14
20 -43 37 -64 28 -35 30 -44 30 -116 0 -86 -12 -109 -57 -109 -16 0 -27 7 -30
20 -3 11 -9 20 -13 20 -16 0 -111 155 -137 226 -25 65 -32 73 -63 83 -30 9
-38 8 -54 -9 -27 -27 -52 -153 -55 -278 -2 -90 0 -103 18 -121 24 -24 53 -27
69 -8 6 7 16 35 23 62 24 99 42 108 87 43 17 -24 50 -65 76 -93 25 -27 46 -53
46 -56 0 -3 18 -14 40 -24 37 -17 41 -17 66 -1 45 30 63 89 68 225 3 67 8 126
11 131 3 5 25 22 50 39 30 20 45 26 48 17 9 -24 -1 -241 -13 -271 -11 -28 -9
-32 24 -62 24 -22 46 -33 66 -33 35 0 54 26 38 53 -10 19 -19 292 -11 315 6
14 54 42 73 42 19 0 40 -67 39 -127 0 -70 -21 -190 -38 -221 -14 -26 -3 -47
42 -83 23 -17 30 -19 43 -8 11 9 14 22 10 41 -3 17 3 50 15 82 21 57 34 66 95
66 31 0 31 -1 37 -60 5 -60 36 -120 61 -120 7 0 23 11 36 25 27 28 45 32 57
10 11 -20 52 -20 158 -1 232 43 274 168 91 270 -74 41 -80 48 -72 80 7 29 75
99 112 118 36 16 42 50 15 77 -24 24 -50 25 -106 5z"/>
<path d="M6215 1922 c-43 -1 -84 -7 -90 -12 -18 -15 -5 -67 19 -83 11 -7 63
-19 115 -26 102 -13 127 -6 151 40 16 28 7 46 -32 62 -48 20 -73 23 -163 19z"/>
</g>
</svg>
